<svg width="1025" height="1025" viewBox="0 0 1025 1025" fill="none" xmlns="http://www.w3.org/2000/svg">
<path d="M926.477 594.049C929.156 580.705 933.552 567.764 939.556 555.55C955.956 521.971 967.743 492.594 957.309 455.1C931.745 363.526 827.769 352.825 776.478 283.761C697.184 177.038 502.352 167.772 409.282 260.001C380.746 288.271 367.38 328.205 338.537 356.167C296.04 397.392 232.941 402.702 189.297 443.804C118.141 510.86 111.233 624.491 174.393 699.89C241.1 779.512 335.257 766.454 426.707 749.521C471.705 741.198 518.486 732.178 564.344 738.574C662.15 752.35 778.2 806.08 872.992 752.596C923.484 724.101 924.775 679.657 923.607 627.812C923.322 616.487 924.284 605.164 926.477 594.049Z" fill="#1C1364"/>
<path opacity="0.6" d="M926.477 594.049C929.156 580.705 933.552 567.764 939.556 555.55C955.956 521.971 967.743 492.594 957.309 455.1C931.745 363.526 827.769 352.825 776.478 283.761C697.184 177.038 502.352 167.772 409.282 260.001C380.746 288.271 367.38 328.205 338.537 356.167C296.04 397.392 232.941 402.702 189.297 443.804C118.141 510.86 111.233 624.491 174.393 699.89C241.1 779.512 335.257 766.454 426.707 749.521C471.705 741.198 518.486 732.178 564.344 738.574C662.15 752.35 778.2 806.08 872.992 752.596C923.484 724.101 924.775 679.657 923.607 627.812C923.322 616.487 924.284 605.164 926.477 594.049Z" fill="white"/>
<path d="M527.875 873.3C744.688 873.3 920.45 836.128 920.45 790.275C920.45 744.422 744.688 707.25 527.875 707.25C311.062 707.25 135.3 744.422 135.3 790.275C135.3 836.128 311.062 873.3 527.875 873.3Z" fill="#1C1364"/>
<path opacity="0.3" d="M527.875 873.3C744.688 873.3 920.45 836.128 920.45 790.275C920.45 744.422 744.688 707.25 527.875 707.25C311.062 707.25 135.3 744.422 135.3 790.275C135.3 836.128 311.062 873.3 527.875 873.3Z" fill="white"/>
<path d="M80.0524 233.987C79.5741 232.257 79.4652 230.446 79.7325 228.672C79.9999 226.897 80.6377 225.199 81.6044 223.687C82.5711 222.175 83.8451 220.883 85.3437 219.896C86.8422 218.909 88.5317 218.248 90.3024 217.956C101.024 216.5 114.185 230.891 118.367 239.604C118.715 240.362 123 252.785 122.795 252.785C122.59 252.785 103.791 253.216 96.1449 249.813C89.4414 246.922 81.8359 241.408 80.0524 233.987ZM355.408 200.9C353.83 208.362 346.368 214.081 339.849 217.156C333.33 220.231 317.852 220.764 314.06 220.826C312.01 223.265 309.816 225.91 307.459 228.862C303.359 234.11 298.808 240.075 294.298 246.881C293.088 248.706 291.858 250.694 290.628 252.621C293.375 249.813 297.168 246.02 297.578 245.692C305.142 239.686 323.264 232.49 332.264 238.476C333.732 239.509 334.967 240.84 335.888 242.382C336.808 243.923 337.394 245.641 337.606 247.424C337.819 249.207 337.654 251.015 337.122 252.729C336.59 254.444 335.703 256.028 334.519 257.377C329.66 263.281 320.415 264.921 313.199 264.634C305.983 264.347 291.571 257.48 288.496 255.942C285.852 260.227 283.228 264.696 280.768 269.513C276.188 278.198 272.394 287.274 269.431 296.635L269.985 296.901C272.178 294.011 276.955 288.045 277.406 287.615C284.253 280.788 301.493 271.666 311.108 276.606C312.663 277.478 314.019 278.664 315.09 280.09C316.16 281.516 316.921 283.149 317.325 284.885C317.728 286.622 317.764 288.423 317.432 290.175C317.099 291.926 316.404 293.589 315.392 295.056C311.292 301.473 302.211 304.117 295.015 304.609C286.815 305.204 269.575 298.726 268.919 298.459C266.258 307.836 264.204 317.375 262.769 327.016C261.662 334.15 260.821 341.366 260.042 348.725C261.539 346.675 267.812 338.824 268.242 338.311C275.089 331.505 292.33 322.362 301.924 327.323C303.498 328.19 304.872 329.378 305.956 330.811C307.041 332.243 307.811 333.889 308.217 335.639C308.623 337.389 308.656 339.205 308.314 340.969C307.971 342.733 307.261 344.405 306.229 345.876C302.129 352.272 293.047 354.916 285.852 355.408C277.754 355.982 261.252 349.853 259.899 349.258C259.55 352.579 259.202 355.88 258.874 359.221C257.808 370.066 256.824 380.972 255.471 391.693C254.999 395.404 254.425 399.053 253.851 402.702C256.188 399.668 260.534 394.235 260.965 393.805C267.812 386.999 285.052 377.856 294.667 382.817C296.224 383.686 297.583 384.872 298.655 386.297C299.727 387.722 300.49 389.356 300.893 391.093C301.297 392.831 301.332 394.634 300.998 396.386C300.664 398.138 299.966 399.8 298.951 401.267C294.851 407.663 285.77 410.307 278.574 410.82C271.379 411.332 257.398 406.474 253.482 405.039C252.478 411.189 251.432 417.113 249.956 422.956C249.3 425.477 248.808 428.081 248.029 430.459L245.979 437.613C244.339 442.451 242.843 446.941 241.203 451.41C240.383 453.665 239.583 455.776 238.763 457.97C240.67 454.526 243.786 449.155 244.114 448.683C249.854 440.914 265.495 429.29 275.745 432.734C277.433 433.349 278.972 434.313 280.262 435.563C281.552 436.813 282.564 438.321 283.231 439.989C283.899 441.657 284.207 443.447 284.136 445.241C284.065 447.036 283.615 448.796 282.818 450.405C279.661 457.375 271.153 461.352 264.101 462.931C256.352 464.694 239.706 461.311 237.677 460.881C235.627 466.231 233.577 471.397 231.65 476.215C225.5 491.446 219.657 503.91 215.496 512.582L214.819 513.976H245.139L234.663 718.156C234.377 725.704 231.171 732.847 225.721 738.078C220.272 743.31 213.005 746.221 205.451 746.2C197.97 746.205 190.773 743.335 185.348 738.184C179.923 733.034 176.684 725.996 176.3 718.525L165.824 514.345H198.378C198.214 512.93 198.05 511.434 197.866 509.753C196.779 500.323 195.016 486.834 192.187 470.803C191.388 466.17 190.465 461.27 189.44 456.248C187.39 456.514 170.539 458.646 162.934 456.248C156.046 454.198 147.846 449.524 145.222 442.349C144.549 440.684 144.235 438.897 144.298 437.103C144.362 435.309 144.803 433.548 145.592 431.935C146.381 430.323 147.5 428.894 148.877 427.743C150.255 426.591 151.859 425.743 153.586 425.252C164.061 422.566 178.801 435.358 183.946 443.517C184.274 444.05 187.452 450.672 189.01 454.095C188.395 451.061 187.8 448.048 187.103 444.891C186.119 440.36 185.053 435.604 183.844 430.971C183.188 428.593 182.511 426.195 181.794 423.776C181.076 421.357 180.256 419.061 179.498 416.642C178.309 413.157 176.894 409.61 175.398 406.064C170.847 407.335 157.399 410.799 150.49 409.795C143.582 408.79 134.541 405.449 130.872 398.766C129.952 397.222 129.368 395.501 129.158 393.716C128.947 391.931 129.116 390.122 129.651 388.406C130.187 386.691 131.078 385.107 132.267 383.759C133.456 382.411 134.915 381.329 136.55 380.582C146.493 376.339 162.995 386.732 169.35 394.051C169.555 394.276 170.744 395.957 172.118 397.966C170.642 394.563 169.186 391.14 167.587 387.716C163.036 378.04 158.096 368.303 153.237 358.545C152.212 356.495 151.187 354.445 150.203 352.395C146.37 353.481 131.753 357.376 124.599 356.331C117.444 355.285 108.65 351.985 104.98 345.281C104.076 343.738 103.505 342.022 103.305 340.244C103.105 338.466 103.281 336.666 103.82 334.96C104.359 333.254 105.25 331.681 106.435 330.34C107.62 329 109.073 327.924 110.7 327.18C120.642 322.957 137.145 333.33 143.5 340.669C143.725 340.915 145.14 342.924 146.677 345.199C144.094 339.849 141.573 334.498 139.236 329.086C135.2 319.85 131.776 310.359 128.986 300.673C127.653 301.063 110.7 305.983 102.643 304.773C95.5094 303.748 86.7149 300.427 83.0454 293.744C82.125 292.202 81.5398 290.482 81.3281 288.698C81.1164 286.914 81.2829 285.105 81.8167 283.39C82.3504 281.675 83.2396 280.091 84.4261 278.742C85.6127 277.393 87.0701 276.309 88.7034 275.561C98.6664 271.338 115.169 281.711 121.503 289.029C121.954 289.562 126.956 296.86 128.658 299.546C128.649 299.43 128.649 299.313 128.658 299.197C126.151 289.612 124.504 279.822 123.738 269.944C122.984 261.13 122.738 252.28 123 243.437C123.205 235.237 123.881 227.734 124.537 221.113C124.927 217.525 125.337 214.245 125.767 211.191L125.583 211.314C125.398 211.437 121.79 198.809 121.647 197.989C120.048 188.456 122.59 169.125 132.184 164.143C133.803 163.363 135.568 162.932 137.365 162.879C139.161 162.825 140.949 163.15 142.612 163.833C144.274 164.515 145.775 165.54 147.016 166.84C148.257 168.14 149.21 169.687 149.814 171.38C152.602 178.493 149.527 187.37 145.714 193.54C141.901 199.711 129.314 208.669 126.239 210.822C125.87 213.999 125.501 217.402 125.173 221.072C124.66 227.693 124.148 235.176 124.127 243.355C124.127 245.549 124.127 247.886 124.23 250.161C124.968 246.307 126.054 241.059 126.28 240.547C129.252 231.363 140.404 215.373 151.228 215.393C153.024 215.446 154.788 215.875 156.406 216.655C158.025 217.434 159.461 218.545 160.621 219.917C161.781 221.288 162.64 222.888 163.141 224.613C163.642 226.338 163.774 228.149 163.528 229.928C162.749 237.533 155.923 243.991 149.752 247.742C143.582 251.494 127.694 253.81 124.291 254.2C124.455 259.243 124.722 264.45 125.337 269.78C126.309 279.545 128.148 289.204 130.831 298.644H131.446C131.692 295.015 132.389 287.41 132.512 286.774C134.562 277.324 143.787 260.124 154.549 259.038C156.34 258.893 158.14 259.127 159.834 259.725C161.528 260.322 163.077 261.27 164.38 262.505C165.684 263.741 166.712 265.237 167.399 266.897C168.086 268.556 168.415 270.342 168.366 272.137C168.366 279.763 162.36 286.959 156.64 291.346C150.039 296.409 132.163 300.468 131.487 300.612C134.407 309.921 137.934 319.029 142.044 327.877C145.058 334.437 148.358 340.976 151.741 347.495C151.864 344.933 152.766 334.949 152.909 334.232C154.959 324.781 164.184 307.582 174.947 306.475C176.736 306.334 178.536 306.57 180.228 307.168C181.92 307.767 183.468 308.715 184.771 309.95C186.073 311.185 187.102 312.68 187.79 314.338C188.478 315.996 188.81 317.78 188.764 319.574C188.764 327.221 182.737 334.396 177.017 338.783C170.58 343.723 153.483 347.7 152.028 348.028C153.565 350.98 155.103 353.953 156.661 356.905C161.765 366.56 166.911 376.195 171.749 385.871C173.409 389.233 174.926 392.595 176.464 395.957C176.73 392.124 177.386 385.195 177.489 384.6C179.539 375.15 188.784 357.95 199.526 356.843C201.317 356.699 203.117 356.933 204.811 357.53C206.505 358.128 208.054 359.075 209.357 360.311C210.661 361.547 211.689 363.043 212.376 364.702C213.063 366.362 213.392 368.148 213.343 369.943C213.343 377.589 207.337 384.764 201.617 389.151C195.898 393.538 181.548 397.208 177.509 398.192C180.031 403.85 182.45 409.385 184.5 415.043C185.34 417.503 186.345 419.942 187.021 422.341L189.194 429.495C190.486 434.436 191.716 439.007 192.823 443.64C193.397 445.977 193.868 448.191 194.401 450.446C194.094 446.551 193.725 440.34 193.745 439.766C194.258 430.131 200.879 411.783 211.334 409.016C213.083 408.602 214.899 408.561 216.664 408.895C218.429 409.23 220.104 409.933 221.58 410.958C223.056 411.983 224.299 413.307 225.228 414.844C226.158 416.382 226.754 418.098 226.976 419.881C227.12 420.817 227.182 421.763 227.16 422.71C231.37 430.083 233.621 438.41 233.7 446.9C233.7 447.515 232.695 454.792 232.101 458.503C233.269 455.633 234.417 452.783 235.565 449.79C237.267 445.465 238.907 440.852 240.547 436.383L242.843 429.27C243.663 426.871 244.155 424.493 244.893 422.054C245.836 418.487 246.615 414.735 247.394 411.025C242.904 409.549 229.764 405.039 224.557 400.385C219.35 395.732 213.671 387.962 214.307 380.357C214.395 378.563 214.859 376.809 215.669 375.206C216.479 373.603 217.616 372.189 219.008 371.054C220.4 369.92 222.014 369.09 223.747 368.62C225.48 368.149 227.292 368.048 229.067 368.323C239.706 370.373 247.742 388.065 248.972 397.638C248.972 397.946 249.075 399.996 249.116 402.435C249.772 398.786 250.448 395.117 250.981 391.386C252.539 380.808 253.769 369.963 255.081 359.119C255.348 356.843 255.655 354.588 255.922 352.333C252.129 351.124 237.861 346.368 232.408 341.489C226.955 336.61 221.523 329.066 222.158 321.46C222.24 319.665 222.7 317.906 223.508 316.301C224.316 314.695 225.453 313.278 226.847 312.142C228.24 311.006 229.857 310.177 231.593 309.709C233.328 309.241 235.143 309.145 236.918 309.427C247.558 311.477 255.573 329.168 256.824 338.742C256.824 339.07 256.824 341.53 256.967 344.277C257.746 338.373 258.607 332.53 259.653 326.729C261.354 316.753 263.73 306.904 266.766 297.25C265.413 296.84 248.583 291.592 242.515 286.18C237.123 281.362 231.609 273.757 232.265 266.151C232.347 264.356 232.806 262.597 233.614 260.992C234.422 259.386 235.56 257.969 236.953 256.833C238.346 255.697 239.964 254.868 241.699 254.4C243.435 253.932 245.25 253.836 247.025 254.118C257.644 256.168 265.68 273.859 266.93 283.433C266.93 284.109 267.156 292.965 267.094 296.143C267.094 296.02 267.094 295.897 267.197 295.794C270.4 286.417 274.427 277.341 279.23 268.673C283.496 260.892 288.205 253.363 293.334 246.123C298.029 239.378 302.723 233.515 306.946 228.349C309.242 225.561 311.395 223.06 313.424 220.744H313.199C312.994 220.744 316.95 208.198 317.299 207.439C321.235 198.624 334.006 183.885 344.748 185.033C346.537 185.277 348.255 185.897 349.787 186.852C351.319 187.807 352.632 189.075 353.639 190.574C354.646 192.073 355.324 193.768 355.629 195.548C355.934 197.327 355.859 199.151 355.408 200.9ZM231.404 460.43C229.559 459.548 215.393 452.537 209.858 446.531C205.068 449.14 200.125 451.461 195.057 453.48C196.308 459.056 197.497 464.489 198.501 469.593C201.699 485.747 203.77 499.318 205.082 508.851C205.348 510.901 205.594 512.684 205.799 514.345H206.517L208.895 509.732C213.179 501.266 219.145 489.048 225.664 474.083C227.55 469.778 229.477 465.186 231.404 460.43ZM288.066 253.995C288.23 253.995 291.51 241.387 291.633 240.547C292.965 230.994 289.911 211.724 280.173 207.009C278.533 206.274 276.756 205.892 274.958 205.888C273.16 205.885 271.381 206.259 269.738 206.988C268.094 207.717 266.623 208.784 265.418 210.119C264.214 211.454 263.305 213.028 262.748 214.737C260.145 221.912 263.466 230.707 267.381 236.754C271.973 243.95 288.045 253.995 288.066 253.995Z" fill="#1C1364"/>
<path opacity="0.3" d="M80.0524 233.987C79.5741 232.257 79.4652 230.446 79.7325 228.672C79.9999 226.897 80.6377 225.199 81.6044 223.687C82.5711 222.175 83.8451 220.883 85.3437 219.896C86.8422 218.909 88.5317 218.248 90.3024 217.956C101.024 216.5 114.185 230.891 118.367 239.604C118.715 240.362 123 252.785 122.795 252.785C122.59 252.785 103.791 253.216 96.1449 249.813C89.4414 246.922 81.8359 241.408 80.0524 233.987ZM355.408 200.9C353.83 208.362 346.368 214.081 339.849 217.156C333.33 220.231 317.852 220.764 314.06 220.826C312.01 223.265 309.816 225.91 307.459 228.862C303.359 234.11 298.808 240.075 294.298 246.881C293.088 248.706 291.858 250.694 290.628 252.621C293.375 249.813 297.168 246.02 297.578 245.692C305.142 239.686 323.264 232.49 332.264 238.476C333.732 239.509 334.967 240.84 335.888 242.382C336.808 243.923 337.394 245.641 337.606 247.424C337.819 249.207 337.654 251.015 337.122 252.729C336.59 254.444 335.703 256.028 334.519 257.377C329.66 263.281 320.415 264.921 313.199 264.634C305.983 264.347 291.571 257.48 288.496 255.942C285.852 260.227 283.228 264.696 280.768 269.513C276.188 278.198 272.394 287.274 269.431 296.635L269.985 296.901C272.178 294.011 276.955 288.045 277.406 287.615C284.253 280.788 301.493 271.666 311.108 276.606C312.663 277.478 314.019 278.664 315.09 280.09C316.16 281.516 316.921 283.149 317.325 284.885C317.728 286.622 317.764 288.423 317.432 290.175C317.099 291.926 316.404 293.589 315.392 295.056C311.292 301.473 302.211 304.117 295.015 304.609C286.815 305.204 269.575 298.726 268.919 298.459C266.258 307.836 264.204 317.375 262.769 327.016C261.662 334.15 260.821 341.366 260.042 348.725C261.539 346.675 267.812 338.824 268.242 338.311C275.089 331.505 292.33 322.362 301.924 327.323C303.498 328.19 304.872 329.378 305.956 330.811C307.041 332.243 307.811 333.889 308.217 335.639C308.623 337.389 308.656 339.205 308.314 340.969C307.971 342.733 307.261 344.405 306.229 345.876C302.129 352.272 293.047 354.916 285.852 355.408C277.754 355.982 261.252 349.853 259.899 349.258C259.55 352.579 259.202 355.88 258.874 359.221C257.808 370.066 256.824 380.972 255.471 391.693C254.999 395.404 254.425 399.053 253.851 402.702C256.188 399.668 260.534 394.235 260.965 393.805C267.812 386.999 285.052 377.856 294.667 382.817C296.224 383.686 297.583 384.872 298.655 386.297C299.727 387.722 300.49 389.356 300.893 391.093C301.297 392.831 301.332 394.634 300.998 396.386C300.664 398.138 299.966 399.8 298.951 401.267C294.851 407.663 285.77 410.307 278.574 410.82C271.379 411.332 257.398 406.474 253.482 405.039C252.478 411.189 251.432 417.113 249.956 422.956C249.3 425.477 248.808 428.081 248.029 430.459L245.979 437.613C244.339 442.451 242.843 446.941 241.203 451.41C240.383 453.665 239.583 455.776 238.763 457.97C240.67 454.526 243.786 449.155 244.114 448.683C249.854 440.914 265.495 429.29 275.745 432.734C277.433 433.349 278.972 434.313 280.262 435.563C281.552 436.813 282.564 438.321 283.231 439.989C283.899 441.657 284.207 443.447 284.136 445.241C284.065 447.036 283.615 448.796 282.818 450.405C279.661 457.375 271.153 461.352 264.101 462.931C256.352 464.694 239.706 461.311 237.677 460.881C235.627 466.231 233.577 471.397 231.65 476.215C225.5 491.446 219.657 503.91 215.496 512.582L214.819 513.976H245.139L234.663 718.156C234.377 725.704 231.171 732.847 225.721 738.078C220.272 743.31 213.005 746.221 205.451 746.2C197.97 746.205 190.773 743.335 185.348 738.184C179.923 733.034 176.684 725.996 176.3 718.525L165.824 514.345H198.378C198.214 512.93 198.05 511.434 197.866 509.753C196.779 500.323 195.016 486.834 192.187 470.803C191.388 466.17 190.465 461.27 189.44 456.248C187.39 456.514 170.539 458.646 162.934 456.248C156.046 454.198 147.846 449.524 145.222 442.349C144.549 440.684 144.235 438.897 144.298 437.103C144.362 435.309 144.803 433.548 145.592 431.935C146.381 430.323 147.5 428.894 148.877 427.743C150.255 426.591 151.859 425.743 153.586 425.252C164.061 422.566 178.801 435.358 183.946 443.517C184.274 444.05 187.452 450.672 189.01 454.095C188.395 451.061 187.8 448.048 187.103 444.891C186.119 440.36 185.053 435.604 183.844 430.971C183.188 428.593 182.511 426.195 181.794 423.776C181.076 421.357 180.256 419.061 179.498 416.642C178.309 413.157 176.894 409.61 175.398 406.064C170.847 407.335 157.399 410.799 150.49 409.795C143.582 408.79 134.541 405.449 130.872 398.766C129.952 397.222 129.368 395.501 129.158 393.716C128.947 391.931 129.116 390.122 129.651 388.406C130.187 386.691 131.078 385.107 132.267 383.759C133.456 382.411 134.915 381.329 136.55 380.582C146.493 376.339 162.995 386.732 169.35 394.051C169.555 394.276 170.744 395.957 172.118 397.966C170.642 394.563 169.186 391.14 167.587 387.716C163.036 378.04 158.096 368.303 153.237 358.545C152.212 356.495 151.187 354.445 150.203 352.395C146.37 353.481 131.753 357.376 124.599 356.331C117.444 355.285 108.65 351.985 104.98 345.281C104.076 343.738 103.505 342.022 103.305 340.244C103.105 338.466 103.281 336.666 103.82 334.96C104.359 333.254 105.25 331.681 106.435 330.34C107.62 329 109.073 327.924 110.7 327.18C120.642 322.957 137.145 333.33 143.5 340.669C143.725 340.915 145.14 342.924 146.677 345.199C144.094 339.849 141.573 334.498 139.236 329.086C135.2 319.85 131.776 310.359 128.986 300.673C127.653 301.063 110.7 305.983 102.643 304.773C95.5094 303.748 86.7149 300.427 83.0454 293.744C82.125 292.202 81.5398 290.482 81.3281 288.698C81.1164 286.914 81.2829 285.105 81.8167 283.39C82.3504 281.675 83.2396 280.091 84.4261 278.742C85.6127 277.393 87.0701 276.309 88.7034 275.561C98.6664 271.338 115.169 281.711 121.503 289.029C121.954 289.562 126.956 296.86 128.658 299.546C128.649 299.43 128.649 299.313 128.658 299.197C126.151 289.612 124.504 279.822 123.738 269.944C122.984 261.13 122.738 252.28 123 243.437C123.205 235.237 123.881 227.734 124.537 221.113C124.927 217.525 125.337 214.245 125.767 211.191L125.583 211.314C125.398 211.437 121.79 198.809 121.647 197.989C120.048 188.456 122.59 169.125 132.184 164.143C133.803 163.363 135.568 162.932 137.365 162.879C139.161 162.825 140.949 163.15 142.612 163.833C144.274 164.515 145.775 165.54 147.016 166.84C148.257 168.14 149.21 169.687 149.814 171.38C152.602 178.493 149.527 187.37 145.714 193.54C141.901 199.711 129.314 208.669 126.239 210.822C125.87 213.999 125.501 217.402 125.173 221.072C124.66 227.693 124.148 235.176 124.127 243.355C124.127 245.549 124.127 247.886 124.23 250.161C124.968 246.307 126.054 241.059 126.28 240.547C129.252 231.363 140.404 215.373 151.228 215.393C153.024 215.446 154.788 215.875 156.406 216.655C158.025 217.434 159.461 218.545 160.621 219.917C161.781 221.288 162.64 222.888 163.141 224.613C163.642 226.338 163.774 228.149 163.528 229.928C162.749 237.533 155.923 243.991 149.752 247.742C143.582 251.494 127.694 253.81 124.291 254.2C124.455 259.243 124.722 264.45 125.337 269.78C126.309 279.545 128.148 289.204 130.831 298.644H131.446C131.692 295.015 132.389 287.41 132.512 286.774C134.562 277.324 143.787 260.124 154.549 259.038C156.34 258.893 158.14 259.127 159.834 259.725C161.528 260.322 163.077 261.27 164.38 262.505C165.684 263.741 166.712 265.237 167.399 266.897C168.086 268.556 168.415 270.342 168.366 272.137C168.366 279.763 162.36 286.959 156.64 291.346C150.039 296.409 132.163 300.468 131.487 300.612C134.407 309.921 137.934 319.029 142.044 327.877C145.058 334.437 148.358 340.976 151.741 347.495C151.864 344.933 152.766 334.949 152.909 334.232C154.959 324.781 164.184 307.582 174.947 306.475C176.736 306.334 178.536 306.57 180.228 307.168C181.92 307.767 183.468 308.715 184.771 309.95C186.073 311.185 187.102 312.68 187.79 314.338C188.478 315.996 188.81 317.78 188.764 319.574C188.764 327.221 182.737 334.396 177.017 338.783C170.58 343.723 153.483 347.7 152.028 348.028C153.565 350.98 155.103 353.953 156.661 356.905C161.765 366.56 166.911 376.195 171.749 385.871C173.409 389.233 174.926 392.595 176.464 395.957C176.73 392.124 177.386 385.195 177.489 384.6C179.539 375.15 188.784 357.95 199.526 356.843C201.317 356.699 203.117 356.933 204.811 357.53C206.505 358.128 208.054 359.075 209.357 360.311C210.661 361.547 211.689 363.043 212.376 364.702C213.063 366.362 213.392 368.148 213.343 369.943C213.343 377.589 207.337 384.764 201.617 389.151C195.898 393.538 181.548 397.208 177.509 398.192C180.031 403.85 182.45 409.385 184.5 415.043C185.34 417.503 186.345 419.942 187.021 422.341L189.194 429.495C190.486 434.436 191.716 439.007 192.823 443.64C193.397 445.977 193.868 448.191 194.401 450.446C194.094 446.551 193.725 440.34 193.745 439.766C194.258 430.131 200.879 411.783 211.334 409.016C213.083 408.602 214.899 408.561 216.664 408.895C218.429 409.23 220.104 409.933 221.58 410.958C223.056 411.983 224.299 413.307 225.228 414.844C226.158 416.382 226.754 418.098 226.976 419.881C227.12 420.817 227.182 421.763 227.16 422.71C231.37 430.083 233.621 438.41 233.7 446.9C233.7 447.515 232.695 454.792 232.101 458.503C233.269 455.633 234.417 452.783 235.565 449.79C237.267 445.465 238.907 440.852 240.547 436.383L242.843 429.27C243.663 426.871 244.155 424.493 244.893 422.054C245.836 418.487 246.615 414.735 247.394 411.025C242.904 409.549 229.764 405.039 224.557 400.385C219.35 395.732 213.671 387.962 214.307 380.357C214.395 378.563 214.859 376.809 215.669 375.206C216.479 373.603 217.616 372.189 219.008 371.054C220.4 369.92 222.014 369.09 223.747 368.62C225.48 368.149 227.292 368.048 229.067 368.323C239.706 370.373 247.742 388.065 248.972 397.638C248.972 397.946 249.075 399.996 249.116 402.435C249.772 398.786 250.448 395.117 250.981 391.386C252.539 380.808 253.769 369.963 255.081 359.119C255.348 356.843 255.655 354.588 255.922 352.333C252.129 351.124 237.861 346.368 232.408 341.489C226.955 336.61 221.523 329.066 222.158 321.46C222.24 319.665 222.7 317.906 223.508 316.301C224.316 314.695 225.453 313.278 226.847 312.142C228.24 311.006 229.857 310.177 231.593 309.709C233.328 309.241 235.143 309.145 236.918 309.427C247.558 311.477 255.573 329.168 256.824 338.742C256.824 339.07 256.824 341.53 256.967 344.277C257.746 338.373 258.607 332.53 259.653 326.729C261.354 316.753 263.73 306.904 266.766 297.25C265.413 296.84 248.583 291.592 242.515 286.18C237.123 281.362 231.609 273.757 232.265 266.151C232.347 264.356 232.806 262.597 233.614 260.992C234.422 259.386 235.56 257.969 236.953 256.833C238.346 255.697 239.964 254.868 241.699 254.4C243.435 253.932 245.25 253.836 247.025 254.118C257.644 256.168 265.68 273.859 266.93 283.433C266.93 284.109 267.156 292.965 267.094 296.143C267.094 296.02 267.094 295.897 267.197 295.794C270.4 286.417 274.427 277.341 279.23 268.673C283.496 260.892 288.205 253.363 293.334 246.123C298.029 239.378 302.723 233.515 306.946 228.349C309.242 225.561 311.395 223.06 313.424 220.744H313.199C312.994 220.744 316.95 208.198 317.299 207.439C321.235 198.624 334.006 183.885 344.748 185.033C346.537 185.277 348.255 185.897 349.787 186.852C351.319 187.807 352.632 189.075 353.639 190.574C354.646 192.073 355.324 193.768 355.629 195.548C355.934 197.327 355.859 199.151 355.408 200.9ZM231.404 460.43C229.559 459.548 215.393 452.537 209.858 446.531C205.068 449.14 200.125 451.461 195.057 453.48C196.308 459.056 197.497 464.489 198.501 469.593C201.699 485.747 203.77 499.318 205.082 508.851C205.348 510.901 205.594 512.684 205.799 514.345H206.517L208.895 509.732C213.179 501.266 219.145 489.048 225.664 474.083C227.55 469.778 229.477 465.186 231.404 460.43ZM288.066 253.995C288.23 253.995 291.51 241.387 291.633 240.547C292.965 230.994 289.911 211.724 280.173 207.009C278.533 206.274 276.756 205.892 274.958 205.888C273.16 205.885 271.381 206.259 269.738 206.988C268.094 207.717 266.623 208.784 265.418 210.119C264.214 211.454 263.305 213.028 262.748 214.737C260.145 221.912 263.466 230.707 267.381 236.754C271.973 243.95 288.045 253.995 288.066 253.995Z" fill="white"/>
<path d="M868.4 326.483C868.4 326.483 848.352 341.817 845.584 353.625C842.817 365.433 846.383 377.999 848.741 385.482C851.098 392.964 851.488 429.147 829.471 445.26C807.454 461.373 797.614 477.506 799.972 497.576C802.329 517.645 832.218 539.662 857.002 544.726C881.787 549.789 916.78 538.432 930.536 508.933C944.291 479.433 925.821 446.9 915.591 428.45C905.362 410 906.161 392.657 917.641 391.878C929.121 391.099 934.943 393.928 935.353 377.712C935.763 361.497 931.807 336.425 910.958 323.838C890.11 311.251 868.4 326.483 868.4 326.483Z" fill="#2E353A" stroke="#2E353A" stroke-linecap="round" stroke-linejoin="round"/>
<path d="M819.036 524.308C821.086 525.681 839.536 533.205 853.189 512.008C866.842 490.811 848.249 471.274 851.836 452.558" stroke="white" stroke-width="0.5" stroke-miterlimit="10"/>
<path d="M890.827 350.878C890.827 350.878 884.431 330.214 898.289 336.917C913.152 344.092 924.939 377.917 919.814 385.605" stroke="white" stroke-width="0.5" stroke-miterlimit="10"/>
<path d="M887.014 348.192C887.014 348.192 879.327 333.33 884.452 326.667C889.577 320.005 901.364 327.692 907.514 332.305" stroke="white" stroke-width="0.5" stroke-miterlimit="10"/>
<path d="M904.439 388.68C904.439 388.68 906.489 397.905 900.339 416.355C894.189 434.805 882.914 455.817 894.189 475.292C905.464 494.767 914.177 508.092 901.364 527.567" stroke="white" stroke-width="0.5" stroke-miterlimit="10"/>
<path d="M904.439 399.442C904.885 411.458 904.026 423.487 901.877 435.317C898.289 455.817 909.564 469.142 921.352 481.955C933.14 494.767 930.065 505.53 925.965 517.317" stroke="white" stroke-width="0.5" stroke-miterlimit="10"/>
<path d="M886.502 351.267C886.502 351.267 862.414 353.318 855.239 350.242C848.064 347.167 849.602 344.605 849.602 344.605" stroke="white" stroke-width="0.5" stroke-miterlimit="10"/>
<path d="M889.7 433.144C889.7 433.144 892.836 465.001 896.854 483.431C900.872 501.86 907.268 525.128 905.669 531.544C904.07 537.961 868.769 592.47 868.769 592.47L858.355 585.254L880.003 520.31L861.779 459.425C861.779 459.425 878.466 434.969 889.7 433.144Z" fill="white" stroke="#2E353A" stroke-linecap="round" stroke-linejoin="round"/>
<path d="M886.891 427.958C881.766 422.054 870.758 406.72 870.758 406.72L853.456 386.22L829.471 353.194C826.314 348.869 815.695 350.427 785.027 350.837C754.359 351.247 661.268 333.535 661.268 333.535L658.132 354.035C658.132 354.035 743.33 372.485 764.957 374.535C786.585 376.585 806.654 379.25 806.654 379.25C803.7 385.135 801.072 391.178 798.782 397.351C796.425 404.424 768.893 442.185 768.893 442.185C768.893 442.185 768.217 442.595 767.048 443.374C766.741 450.221 767.397 464.755 777.626 472.422C785.539 478.347 797.122 480.848 805.486 481.893C805.629 481.422 805.752 481.012 805.855 480.725C807.044 477.568 815.695 472.853 820.41 472.525C825.125 472.197 839.68 472.914 848.351 472.135C857.023 471.356 861.717 459.548 861.717 459.548C861.717 459.548 880.823 440.893 889.618 433.267C889.073 431.333 888.146 429.528 886.891 427.958Z" fill="white" stroke="#2E353A" stroke-linecap="round" stroke-linejoin="round"/>
<path d="M817.54 384.006L806.654 379.188L814.567 391.775" stroke="#2E353A" stroke-width="0.75" stroke-linecap="round" stroke-linejoin="round"/>
<path d="M790.09 455.633C798.283 460.716 807.976 462.822 817.54 461.598" stroke="#2E353A" stroke-width="0.75" stroke-linecap="round" stroke-linejoin="round"/>
<path d="M781.05 441.303C781.05 441.303 782.834 448.478 794.191 453.255" stroke="#2E353A" stroke-width="0.75" stroke-linecap="round" stroke-linejoin="round"/>
<path d="M879.942 520.31C879.942 520.31 887.383 517.112 893.349 525.476" stroke="#2E353A" stroke-width="0.75" stroke-linecap="round" stroke-linejoin="round"/>
<path d="M882.012 464.591L861.717 459.425L879.614 473.55" stroke="#2E353A" stroke-width="0.75" stroke-linecap="round" stroke-linejoin="round"/>
<path d="M826.498 360.8C826.498 360.8 816.351 378.696 804.42 378.102C788.204 377.282 742.325 363.752 742.325 358.996C742.325 354.24 754.871 352.436 754.871 352.436" stroke="#2E353A" stroke-width="0.75" stroke-linecap="round" stroke-linejoin="round"/>
<path d="M861.717 375.642C861.717 375.642 853.517 373.592 847.552 377.22C841.586 380.849 825.924 414.981 825.924 414.981C825.924 414.981 827.093 416.56 831.828 416.56C836.564 416.56 837.732 422.853 837.732 428.737C837.732 434.62 837.322 437.388 839.29 436.937C841.258 436.486 853.066 432.222 855.424 433.8C857.781 435.379 852.267 443.23 853.374 444.05C854.481 444.87 864.382 434.989 867.539 424.37C870.696 413.751 873.833 398.028 873.033 391.734C872.234 385.441 867.15 377.2 861.717 375.642Z" fill="#1C1364" stroke="#2E353A" stroke-linecap="round" stroke-linejoin="round"/>
<path d="M868.4 408.298C864.069 413.131 859.477 417.723 854.645 422.054C845.584 430.254 838.122 436.219 838.511 432.304C838.901 428.388 847.941 407.13 850.299 395.404C852.656 383.678 857.002 375.724 861.717 375.724C866.432 375.724 876.662 399.75 868.4 408.298Z" fill="white" stroke="#2E353A" stroke-linecap="round" stroke-linejoin="round"/>
<path d="M863.685 357.561C864 358.518 864.513 359.399 865.191 360.144C865.869 360.89 866.698 361.483 867.621 361.886C870.368 362.665 890.827 350.878 890.827 350.878C890.827 350.878 905.382 381.935 903.004 386.65C900.626 391.365 893.574 397.29 885.702 402.784C877.83 408.278 863.296 412.624 857.781 409.467C852.267 406.31 856.203 374.084 856.203 374.084C856.203 374.084 851.877 368.959 856.592 360.697C861.307 352.436 863.685 357.561 863.685 357.561Z" fill="white" stroke="#2E353A" stroke-linecap="round" stroke-linejoin="round"/>
<path d="M896.629 389.643C896.629 389.643 896.977 387.204 892.426 387.204C887.875 387.204 879.88 395.568 879.88 395.568" stroke="#2E353A" stroke-width="0.75" stroke-linecap="round" stroke-linejoin="round"/>
<path d="M876.744 396.265L874.304 393.825" stroke="#2E353A" stroke-width="0.75" stroke-linecap="round" stroke-linejoin="round"/>
<path d="M873.3 400.816C873.3 400.816 867.027 399.77 865.981 391.734" stroke="#2E353A" stroke-width="0.75" stroke-linecap="round" stroke-linejoin="round"/>
<path d="M887.814 376.974C887.814 376.974 886.256 369.328 879.614 367.852" stroke="#2E353A" stroke-width="0.75" stroke-linecap="round" stroke-linejoin="round"/>
<path d="M879.922 381.074C878.323 382.325 876.559 382.735 875.965 381.976C875.37 381.218 876.17 379.598 877.749 378.348C879.327 377.097 881.111 376.687 881.705 377.446C882.299 378.204 881.5 379.824 879.922 381.074Z" fill="#2E353A"/>
<path d="M889.802 393.989C888.49 395.014 887.035 395.363 886.543 394.727C886.051 394.092 886.707 392.677 888.019 391.714C889.331 390.75 890.786 390.361 891.278 390.976C891.77 391.591 891.114 392.944 889.802 393.989Z" fill="#2E353A"/>
<path d="M851.529 728.713L871.639 756.655C871.639 756.655 871.639 761.78 864.464 761.78C857.289 761.78 853.189 761.78 849.089 756.655C844.989 751.53 844.989 748.455 840.889 746.405C836.789 744.355 832.689 744.355 834.739 733.08C836.789 721.805 851.529 728.713 851.529 728.713Z" fill="white" stroke="#2E353A" stroke-linecap="round" stroke-linejoin="round"/>
<path d="M871.557 757.29C868.372 758.82 864.799 759.349 861.307 758.807C854.05 757.495 849.643 750.238 846.957 747.122C844.272 744.006 840.992 744.027 837.896 741.423C836.424 740.165 835.139 738.701 834.083 737.077C833.653 744.375 837.199 744.621 840.725 746.405C844.825 748.455 844.825 751.53 848.925 756.655C853.025 761.78 857.125 761.78 864.3 761.78C870.061 761.78 871.25 758.664 871.557 757.29Z" fill="white" stroke="#2E353A" stroke-linecap="round" stroke-linejoin="round"/>
<path d="M850.381 725.167C846.281 712.867 840.438 639.231 837.404 615.923C831.254 568.527 803.907 507.006 803.907 507.006L805.486 481.832C797.122 480.786 785.539 478.285 777.626 472.361C767.376 464.694 766.741 450.159 767.048 443.312C761.862 446.654 746.548 456.719 733.49 467.297C717.377 480.274 706.348 526.297 703.211 540.831C700.075 555.366 696.528 598.231 696.528 598.231C696.528 598.231 668.197 609.24 656.799 624.881C645.401 640.523 610.777 676.008 610.777 676.008L613.934 687.816C613.934 687.816 624.553 680.354 633.593 673.261C642.634 666.168 713.051 626.849 717.766 624.061C722.481 621.273 728.016 615.861 734.289 600.076C736.585 594.316 739.824 584.886 743.022 575.23L753.949 541.2L764.465 532.242C774.838 560.286 798.946 614.344 802.37 622.073C806.47 631.339 809.586 672.544 820.922 698.312C832.259 724.081 835.272 736.442 835.272 736.442C835.272 736.442 854.501 737.528 850.381 725.167Z" fill="#2E353A" stroke="#2E353A" stroke-linecap="round" stroke-linejoin="round"/>
<path d="M804.809 486.69L808.725 509.548" stroke="white" stroke-width="0.5" stroke-miterlimit="10"/>
<path d="M250.469 310.144L191.265 813.009C191.185 813.733 191.309 814.466 191.624 815.123C191.939 815.78 192.432 816.335 193.047 816.726C193.662 817.116 194.374 817.327 195.103 817.333C195.832 817.339 196.547 817.141 197.169 816.761L235.217 793.35C237.475 791.95 240.189 791.482 242.785 792.044C245.382 792.606 247.659 794.155 249.136 796.363L296.942 867.437L316.889 568.465L250.469 310.144Z" fill="#1C1364" stroke="#2E353A" stroke-linecap="round" stroke-linejoin="round"/>
<path d="M250.1 322.793L196.595 800.443C196.479 801.474 196.667 802.516 197.135 803.442C197.603 804.368 198.332 805.137 199.231 805.655C200.129 806.173 201.16 806.417 202.196 806.358C203.231 806.299 204.227 805.939 205.061 805.322L232.88 784.822C234.327 783.752 235.977 782.988 237.729 782.578C239.481 782.168 241.298 782.12 243.069 782.436C244.841 782.753 246.529 783.428 248.03 784.42C249.532 785.411 250.815 786.699 251.801 788.204L284.355 837.896C284.708 838.448 285.236 838.866 285.854 839.084C286.472 839.301 287.145 839.305 287.765 839.095C288.386 838.885 288.918 838.473 289.278 837.925C289.637 837.377 289.802 836.725 289.747 836.072L251.74 322.813C251.7 322.627 251.599 322.459 251.451 322.338C251.303 322.217 251.119 322.149 250.928 322.147C250.737 322.144 250.551 322.207 250.401 322.324C250.25 322.442 250.144 322.607 250.1 322.793Z" fill="#1C1364" stroke="#2E353A" stroke-linecap="round" stroke-linejoin="round"/>
<path opacity="0.6" d="M250.838 315.864L196.554 800.402C196.438 801.433 196.626 802.475 197.094 803.401C197.562 804.327 198.291 805.096 199.19 805.614C200.088 806.132 201.119 806.376 202.155 806.317C203.19 806.258 204.186 805.898 205.02 805.281L232.839 784.781C234.286 783.711 235.936 782.947 237.688 782.537C239.44 782.127 241.257 782.079 243.028 782.395C244.8 782.712 246.488 783.387 247.989 784.379C249.491 785.371 250.774 786.658 251.76 788.163L284.314 837.855C284.667 838.408 285.195 838.826 285.813 839.043C286.431 839.26 287.104 839.264 287.725 839.054C288.345 838.844 288.877 838.432 289.237 837.884C289.596 837.336 289.761 836.684 289.706 836.031L251.227 315.864C251.214 315.823 251.188 315.787 251.153 315.762C251.118 315.737 251.076 315.723 251.033 315.723C250.99 315.723 250.947 315.737 250.913 315.762C250.878 315.787 250.851 315.823 250.838 315.864Z" fill="black"/>
<path d="M240.936 782.157C243.09 782.195 245.202 782.758 247.088 783.797C248.975 784.837 250.579 786.322 251.76 788.122L284.314 837.814C284.667 838.367 285.195 838.785 285.813 839.002C286.431 839.219 287.104 839.223 287.724 839.013C288.345 838.803 288.877 838.391 289.237 837.843C289.596 837.295 289.761 836.643 289.706 835.99L285.052 773.178L240.239 781.952C240.478 781.999 240.711 782.067 240.936 782.157Z" fill="#1C1364" stroke="#2E353A" stroke-linecap="round" stroke-linejoin="round"/>
<path opacity="0.3" d="M240.936 782.157C243.09 782.195 245.202 782.758 247.088 783.797C248.975 784.837 250.579 786.322 251.76 788.122L284.314 837.814C284.667 838.367 285.195 838.785 285.813 839.002C286.431 839.219 287.104 839.223 287.724 839.013C288.345 838.803 288.877 838.391 289.237 837.843C289.596 837.295 289.761 836.643 289.706 835.99L285.052 773.178L240.239 781.952C240.478 781.999 240.711 782.067 240.936 782.157Z" fill="black"/>
<path d="M251.678 309.837L296.922 867.437L824.489 766.905L700.505 332.038L251.678 309.837Z" fill="#2E353A" stroke="#2E353A" stroke-linecap="round" stroke-linejoin="round"/>
<path d="M276.135 321.87L307.213 837.958L803.313 747.758L698.742 346.798L276.135 321.87Z" fill="#FD5D3F" stroke="#2E353A" stroke-linecap="round" stroke-linejoin="round"/>
<path d="M306.454 575.845L330.05 820.471L780.804 738.512L738.923 554.648L306.454 575.845Z" fill="white" stroke="#2E353A" stroke-linecap="round" stroke-linejoin="round"/>
<path d="M393.456 808.294L385.974 729.718" stroke="#2E353A" stroke-linecap="round" stroke-linejoin="round"/>
<path d="M462.439 796.138L455.223 730.64" stroke="#2E353A" stroke-linecap="round" stroke-linejoin="round"/>
<path d="M530.068 783.038L521.643 730.64" stroke="#2E353A" stroke-linecap="round" stroke-linejoin="round"/>
<path d="M599.748 771.087L589.723 708.623" stroke="#2E353A" stroke-linecap="round" stroke-linejoin="round"/>
<path d="M661.125 760.017L652.576 699.05" stroke="#2E353A" stroke-linecap="round" stroke-linejoin="round"/>
<path d="M719.98 749.131L707.25 675.823" stroke="#2E353A" stroke-linecap="round" stroke-linejoin="round"/>
<path d="M858.294 585.254C858.294 585.254 852.021 591.568 851.611 594.848C851.201 598.128 854.481 608.009 854.481 608.009L864.362 609.649L868.708 592.47L858.294 585.254Z" fill="white" stroke="#2E353A" stroke-linecap="round" stroke-linejoin="round"/>
<g style="mix-blend-mode:multiply" opacity="0.49">
<path d="M278.636 464.448C278.636 464.448 289.05 614.323 298.623 668.976C308.197 723.629 325.95 805.424 325.95 805.424C325.95 805.424 633.45 757.823 785.15 693.576L772.85 634.823L278.636 464.448Z" fill="#1C1364"/>
</g>
<path d="M264.737 316.253L696.61 339.521C696.61 339.521 738.656 465.493 780.496 536.628C822.337 607.763 891.34 603.13 891.34 603.13C891.34 603.13 733.08 689.661 609.813 735.724C481.524 783.633 370.271 792.243 370.271 792.243C370.271 792.243 268.939 653.827 264.737 316.253Z" fill="#FD5D3F" stroke="#2E353A" stroke-linecap="round" stroke-linejoin="round"/>
<path d="M314.183 293.826C306.167 293.826 300.366 300.94 298.541 312.092L306.741 312.543C308.012 306.106 310.534 302.026 314.162 302.026C318.385 302.026 323.08 308.812 323.08 318.57C323.08 328.328 318.385 335.134 314.162 335.134C313.075 335.134 312.032 335.566 311.263 336.335C310.494 337.104 310.062 338.146 310.062 339.234C310.062 340.321 310.494 341.364 311.263 342.133C312.032 342.902 313.075 343.334 314.162 343.334C323.756 343.334 331.28 332.448 331.28 318.57C331.28 304.691 323.777 293.826 314.183 293.826Z" fill="white" stroke="#2E353A" stroke-miterlimit="10"/>
<path d="M325.95 325.212C325.557 326.658 325.05 328.07 324.433 329.435" stroke="#2E353A" stroke-width="0.75" stroke-linecap="round" stroke-linejoin="round"/>
<path d="M302.6 308.402C302.6 308.402 305.675 297.291 314.757 297.906C321.891 298.398 327.774 308.996 326.79 320.333" stroke="#2E353A" stroke-width="0.75" stroke-linecap="round" stroke-linejoin="round"/>
<path d="M385.4 297.414C377.384 297.414 371.583 304.527 369.758 315.679L377.958 316.13C379.229 309.693 381.751 305.614 385.379 305.614C389.602 305.614 394.297 312.399 394.297 322.157C394.297 331.915 389.602 338.721 385.379 338.721C384.292 338.721 383.249 339.153 382.48 339.922C381.711 340.691 381.279 341.734 381.279 342.821C381.279 343.909 381.711 344.952 382.48 345.72C383.249 346.489 384.292 346.921 385.379 346.921C394.973 346.921 402.497 336.036 402.497 322.157C402.497 308.279 395.014 297.414 385.4 297.414Z" fill="white" stroke="#2E353A" stroke-miterlimit="10"/>
<path d="M397.187 328.799C396.795 330.245 396.287 331.657 395.67 333.022" stroke="#2E353A" stroke-width="0.75" stroke-linecap="round" stroke-linejoin="round"/>
<path d="M373.838 311.989C373.838 311.989 376.913 300.878 385.994 301.493C393.128 301.985 399.012 312.584 398.028 323.92" stroke="#2E353A" stroke-width="0.75" stroke-linecap="round" stroke-linejoin="round"/>
<path d="M456.658 301.001C448.642 301.001 442.841 308.115 441.016 319.267L449.216 319.718C450.487 313.281 453.009 309.201 456.637 309.201C460.86 309.201 465.555 315.987 465.555 325.745C465.555 335.503 460.86 342.309 456.637 342.309C455.55 342.309 454.507 342.741 453.738 343.51C452.969 344.279 452.537 345.322 452.537 346.409C452.537 347.496 452.969 348.539 453.738 349.308C454.507 350.077 455.55 350.509 456.637 350.509C466.231 350.509 473.755 339.623 473.755 325.745C473.755 311.866 466.252 301.001 456.658 301.001Z" fill="white" stroke="#2E353A" stroke-miterlimit="10"/>
<path d="M468.425 332.387C468.032 333.833 467.525 335.245 466.908 336.61" stroke="#2E353A" stroke-width="0.75" stroke-linecap="round" stroke-linejoin="round"/>
<path d="M445.075 315.577C445.075 315.577 448.15 304.466 457.232 305.081C464.366 305.573 470.249 316.171 469.265 327.508" stroke="#2E353A" stroke-width="0.75" stroke-linecap="round" stroke-linejoin="round"/>
<path d="M527.895 304.589C519.88 304.589 514.078 311.702 512.254 322.854L520.454 323.305C521.725 316.868 524.246 312.789 527.875 312.789C532.098 312.789 536.792 319.574 536.792 329.332C536.792 339.09 532.098 345.896 527.875 345.896C526.787 345.896 525.745 346.328 524.976 347.097C524.207 347.866 523.775 348.909 523.775 349.996C523.775 351.084 524.207 352.127 524.976 352.896C525.745 353.664 526.787 354.096 527.875 354.096C537.469 354.096 544.992 343.211 544.992 329.332C544.992 315.454 537.489 304.589 527.895 304.589Z" fill="white" stroke="#2E353A" stroke-miterlimit="10"/>
<path d="M539.662 335.974C539.27 337.42 538.762 338.832 538.145 340.197" stroke="#2E353A" stroke-width="0.75" stroke-linecap="round" stroke-linejoin="round"/>
<path d="M516.313 319.164C516.313 319.164 519.388 308.053 528.469 308.668C535.603 309.16 541.487 319.759 540.503 331.095" stroke="#2E353A" stroke-width="0.75" stroke-linecap="round" stroke-linejoin="round"/>
<path d="M600.424 307.766C592.409 307.766 586.607 314.88 584.803 326.052L593.003 326.503C594.295 320.066 596.816 315.966 600.424 315.966C604.647 315.966 609.362 322.772 609.362 332.53C609.362 342.288 604.647 349.074 600.424 349.074C599.337 349.074 598.294 349.506 597.525 350.275C596.756 351.044 596.324 352.087 596.324 353.174C596.324 354.261 596.756 355.304 597.525 356.073C598.294 356.842 599.337 357.274 600.424 357.274C610.039 357.274 617.562 346.409 617.562 332.53C617.562 318.652 610.039 307.766 600.424 307.766Z" fill="white" stroke="#2E353A" stroke-miterlimit="10"/>
<path d="M612.191 339.172C611.802 340.612 611.295 342.018 610.674 343.375" stroke="#2E353A" stroke-width="0.75" stroke-linecap="round" stroke-linejoin="round"/>
<path d="M588.842 322.362C588.842 322.362 591.937 311.231 600.998 311.846C608.153 312.338 614.016 322.957 613.052 334.293" stroke="#2E353A" stroke-width="0.75" stroke-linecap="round" stroke-linejoin="round"/>
<path d="M670.104 311.6C662.088 311.6 656.287 318.713 654.483 329.865L662.683 330.337C663.974 323.9 666.496 319.8 670.104 319.8C674.327 319.8 679.042 326.606 679.042 336.343C679.042 346.081 674.327 352.907 670.104 352.907C669.016 352.907 667.974 353.339 667.205 354.108C666.436 354.877 666.004 355.92 666.004 357.007C666.004 358.095 666.436 359.138 667.205 359.907C667.974 360.675 669.016 361.107 670.104 361.107C679.718 361.107 687.242 350.222 687.242 336.343C687.242 322.465 679.718 311.6 670.104 311.6Z" fill="white" stroke="#2E353A" stroke-miterlimit="10"/>
<path d="M681.871 342.883C681.485 344.331 680.977 345.743 680.354 347.106" stroke="#2E353A" stroke-width="0.75" stroke-linecap="round" stroke-linejoin="round"/>
<path d="M658.521 326.093C658.521 326.093 661.617 314.962 670.678 315.577C677.832 316.069 683.695 326.667 682.732 338.004" stroke="#2E353A" stroke-width="0.75" stroke-linecap="round" stroke-linejoin="round"/>
<path d="M868.708 592.45C868.708 592.45 872.808 598.067 872.808 600.465C872.808 602.864 867.191 606.882 867.191 612.478C867.191 618.075 859.975 616.578 859.175 612.478C858.376 608.378 860.774 602.864 860.774 602.864C860.774 602.864 857.433 600.814 856.674 593.598C855.916 586.382 862.414 588.432 862.414 588.432L868.708 592.45Z" fill="white" stroke="#2E353A" stroke-linecap="round" stroke-linejoin="round"/>
<path d="M766.208 536.956C736.503 486.444 705.302 406.679 694.212 377.323L308.258 361.681C308.012 646.939 394.358 764.793 394.358 764.793C394.358 764.793 492.656 757.188 606.021 714.835C714.958 674.142 844.887 605.836 844.887 605.836C844.887 605.836 803.169 599.83 766.208 536.956Z" fill="white" stroke="#2E353A" stroke-linecap="round" stroke-linejoin="round"/>
<path d="M694.212 377.323L308.258 361.681C308.258 389.746 309.058 416.15 310.534 441.016L718.115 437.203C707.557 412.05 699.05 390.012 694.212 377.323Z" fill="#2E353A" stroke="#2E353A" stroke-linecap="round" stroke-linejoin="round"/>
<path d="M701.038 462.357L719.283 461.721" stroke="#2E353A" stroke-width="3" stroke-linecap="round" stroke-linejoin="round"/>
<path d="M647.41 464.181L687.365 462.808" stroke="#2E353A" stroke-width="3" stroke-linecap="round" stroke-linejoin="round"/>
<path d="M582.487 466.375L633.839 464.632" stroke="#2E353A" stroke-width="3" stroke-linecap="round" stroke-linejoin="round"/>
<path d="M516.436 468.609L571.15 466.764" stroke="#2E353A" stroke-width="3" stroke-linecap="round" stroke-linejoin="round"/>
<path d="M452.578 470.782L502.742 469.081" stroke="#2E353A" stroke-width="3" stroke-linecap="round" stroke-linejoin="round"/>
<path d="M385.297 473.078L435.502 471.356" stroke="#2E353A" stroke-width="3" stroke-linecap="round" stroke-linejoin="round"/>
<path d="M326.073 475.087L372.792 473.488" stroke="#2E353A" stroke-width="3" stroke-linecap="round" stroke-linejoin="round"/>
<path d="M318.467 519.06L743.084 493.189" stroke="#2E353A" stroke-linecap="round" stroke-linejoin="round"/>
<path d="M385.564 515.411C385.564 515.411 392.534 628.325 466.969 753.662" stroke="#2E353A" stroke-linecap="round" stroke-linejoin="round"/>
<path d="M454.075 510.88C454.075 510.88 461.927 640.03 543.537 734.597" stroke="#2E353A" stroke-linecap="round" stroke-linejoin="round"/>
<path d="M516.108 507.067C516.108 507.067 520.208 625.967 611.945 711.411" stroke="#2E353A" stroke-linecap="round" stroke-linejoin="round"/>
<path d="M580.416 504.3C580.416 504.3 590.543 636.484 679.329 683.039" stroke="#2E353A" stroke-linecap="round" stroke-linejoin="round"/>
<path d="M647.8 498.99C647.8 498.99 654.934 598.969 745.749 653.724" stroke="#2E353A" stroke-linecap="round" stroke-linejoin="round"/>
<path d="M700.854 495.751C700.854 495.751 725.29 598.251 793.657 631.441" stroke="#2E353A" stroke-linecap="round" stroke-linejoin="round"/>
<path d="M327.774 577.3L761.472 529.597" stroke="#2E353A" stroke-linecap="round" stroke-linejoin="round"/>
<path d="M339.09 628.325C339.09 628.325 431.689 624.696 781.644 560.203" stroke="#2E353A" stroke-linecap="round" stroke-linejoin="round"/>
<path d="M355.429 682.342C355.429 682.342 445.629 692.592 799.008 580.068" stroke="#2E353A" stroke-linecap="round" stroke-linejoin="round"/>
<path d="M374.945 729.472C374.945 729.472 450.139 754.379 819.508 596.222" stroke="#2E353A" stroke-linecap="round" stroke-linejoin="round"/>
<path d="M474.964 417.482L335.933 415.617C334.807 415.6 333.725 415.175 332.888 414.421C332.051 413.667 331.516 412.635 331.382 411.517L330.193 400.283C330.124 399.636 330.192 398.982 330.394 398.364C330.596 397.746 330.927 397.178 331.365 396.697C331.803 396.217 332.338 395.835 332.935 395.576C333.531 395.318 334.176 395.189 334.826 395.199L472.176 397.577C473.191 397.595 474.172 397.945 474.969 398.575C475.765 399.205 476.332 400.078 476.584 401.062L479.372 411.742C479.546 412.418 479.564 413.124 479.425 413.808C479.286 414.491 478.993 415.134 478.568 415.687C478.143 416.24 477.598 416.69 476.973 417.001C476.349 417.312 475.662 417.476 474.964 417.482Z" fill="white"/>
</svg>
