<svg width="920" height="920" viewBox="0 0 920 920" fill="none" xmlns="http://www.w3.org/2000/svg">
<path d="M465.391 889.438C705.947 889.438 900.956 784.387 900.956 654.801C900.956 525.215 705.947 420.164 465.391 420.164C224.835 420.164 29.8262 525.215 29.8262 654.801C29.8262 784.387 224.835 889.438 465.391 889.438Z" fill="#F0F0F0"/>
<path d="M464.011 743.802C531.832 743.802 586.812 712.061 586.812 672.906C586.812 633.752 531.832 602.011 464.011 602.011C396.189 602.011 341.209 633.752 341.209 672.906C341.209 712.061 396.189 743.802 464.011 743.802Z" fill="#E0E0E0"/>
<path d="M222.069 781.466C296.557 781.466 356.941 746.603 356.941 703.597C356.941 660.592 296.557 625.729 222.069 625.729C147.582 625.729 87.1973 660.592 87.1973 703.597C87.1973 746.603 147.582 781.466 222.069 781.466Z" fill="#E0E0E0"/>
<path d="M691.821 788.55C766.309 788.55 826.693 753.687 826.693 710.681C826.693 667.676 766.309 632.813 691.821 632.813C617.333 632.813 556.949 667.676 556.949 710.681C556.949 753.687 617.333 788.55 691.821 788.55Z" fill="#E0E0E0"/>
<path d="M762.423 622.03C762.423 622.03 757.841 578.165 769.911 545.707C781.982 513.25 803.179 490.029 826.179 483.147C849.179 476.266 873.54 499.891 851.718 520.113C829.895 540.334 788.679 565.064 780.16 624.809L762.423 622.03Z" fill="#1C1364"/>
<path opacity="0.15" d="M762.423 622.03C762.423 622.03 757.841 578.165 769.911 545.707C781.982 513.25 803.179 490.029 826.179 483.147C849.179 476.266 873.54 499.891 851.718 520.113C829.895 540.334 788.679 565.064 780.16 624.809L762.423 622.03Z" fill="black"/>
<path d="M767.059 612.242H766.783C766.433 612.191 766.116 612.005 765.902 611.722C765.689 611.44 765.595 611.084 765.642 610.733C775.137 541.365 817.052 502.725 837.881 491.998C838.196 491.837 838.561 491.807 838.898 491.916C839.064 491.97 839.219 492.056 839.352 492.169C839.485 492.283 839.595 492.421 839.675 492.577C839.755 492.733 839.803 492.903 839.817 493.078C839.831 493.252 839.81 493.428 839.757 493.594C839.703 493.761 839.617 493.915 839.503 494.049C839.39 494.182 839.251 494.292 839.095 494.371C818.69 504.878 777.639 542.818 768.292 611.101C768.25 611.404 768.104 611.684 767.879 611.892C767.655 612.1 767.365 612.223 767.059 612.242Z" fill="white"/>
<path d="M773.923 653.954C774.479 648.503 774.068 642.997 772.708 637.689C771.383 632.003 767.961 626.649 767.685 620.687C767.464 615.94 770.427 610.567 773.794 607.366C777.161 604.164 781.853 601.735 784.19 597.558C786.527 593.382 786.03 588.009 787.189 583.243C788.446 577.947 791.714 573.347 796.302 570.418C800.89 567.489 806.438 566.459 811.771 567.548C816.739 568.578 821.119 571.338 825.663 573.583C830.14 576.081 835.296 577.086 840.383 576.454C845.961 575.383 851.616 574.767 857.293 574.614C866.953 574.614 879.097 577.907 882.409 588.119C883.355 590.62 883.446 593.363 882.667 595.921L882.556 596.234C879.759 603.152 870.946 604.569 865.279 607.954C863.733 608.893 861.139 610.199 860.55 612.076C859.961 613.953 861.58 616.529 862.39 618.258C864.451 622.73 867.431 627.035 867.707 632.095C868.075 639.326 862.04 646.282 855.95 649.354C849.963 652.068 843.384 653.214 836.832 652.685C833.594 652.538 830.061 652.262 827.393 654.12C826.304 655.026 825.415 656.148 824.782 657.414C824.148 658.681 823.785 660.066 823.713 661.48C823.363 664.277 823.621 667.129 823.363 669.944C822.796 674.378 821.048 678.578 818.304 682.105C815.559 685.633 811.918 688.36 807.76 690C800.804 692.64 793.105 692.548 786.214 689.742C780.547 687.516 775.689 680.708 774.585 674.783C773.432 667.901 773.209 660.896 773.923 653.954Z" fill="#1C1364"/>
<path d="M776.26 670.478H776.168C776.029 670.457 775.895 670.41 775.774 670.338C775.654 670.266 775.549 670.171 775.465 670.058C775.381 669.945 775.32 669.817 775.286 669.68C775.252 669.544 775.245 669.402 775.266 669.263C784.613 602.545 851.571 584.899 867.634 584.108C867.916 584.098 868.191 584.198 868.4 584.387C868.61 584.576 868.738 584.839 868.757 585.12C868.767 585.261 868.748 585.402 868.702 585.536C868.656 585.669 868.584 585.792 868.489 585.897C868.395 586.001 868.28 586.086 868.152 586.145C868.024 586.205 867.886 586.238 867.745 586.242C852.013 587.015 786.527 604.275 777.382 669.558C777.35 669.826 777.215 670.072 777.006 670.243C776.797 670.415 776.529 670.499 776.26 670.478Z" fill="white"/>
<path d="M847.928 628.507C847.707 628.498 847.495 628.421 847.321 628.286C847.137 628.139 827.688 613.125 799.389 620.926C799.254 620.965 799.114 620.977 798.975 620.961C798.836 620.945 798.702 620.902 798.581 620.833C798.459 620.765 798.352 620.672 798.266 620.562C798.181 620.452 798.118 620.325 798.082 620.19C798.009 619.915 798.046 619.621 798.188 619.373C798.329 619.125 798.562 618.943 798.837 618.866C807.203 616.421 816.006 615.851 824.619 617.197C833.231 618.542 841.441 621.769 848.664 626.649C848.883 626.829 849.023 627.087 849.054 627.369C849.085 627.651 849.004 627.934 848.829 628.158C848.718 628.284 848.578 628.382 848.421 628.442C848.264 628.503 848.095 628.525 847.928 628.507Z" fill="white"/>
<path d="M148.212 601.772C151.175 584.973 150.678 555.993 138.239 525.283C124.936 492.421 104.457 468.703 83.8306 471.923C64.6026 474.922 64.9338 500.48 88.541 531.76C105.101 553.693 121.127 580.796 126.003 609.758L136.252 647.68L148.212 601.772Z" fill="#1C1364"/>
<path d="M148.212 601.772C151.175 584.973 150.678 555.993 138.239 525.283C124.936 492.421 104.457 468.703 83.8306 471.923C64.6026 474.922 64.9338 500.48 88.541 531.76C105.101 553.693 121.127 580.796 126.003 609.758L136.252 647.68L148.212 601.772Z" fill="#1C1364"/>
<g opacity="0.15">
<path opacity="0.15" d="M148.212 601.772C151.175 584.973 150.678 555.993 138.239 525.283C124.936 492.421 104.457 468.703 83.8306 471.923C64.6026 474.922 64.9338 500.48 88.541 531.76C105.101 553.693 121.127 580.796 126.003 609.758L136.252 647.68L148.212 601.772Z" fill="black"/>
</g>
<path d="M143.262 613.879C143.023 613.817 142.809 613.683 142.648 613.496C142.486 613.308 142.386 613.076 142.361 612.83C137.687 562.893 115.202 507.84 90.1599 484.546C90.0391 484.438 89.9406 484.308 89.8701 484.162C89.7997 484.017 89.7585 483.859 89.7492 483.697C89.7398 483.536 89.7623 483.374 89.8154 483.221C89.8685 483.068 89.9511 482.928 90.0587 482.807C90.1662 482.686 90.2965 482.587 90.442 482.517C90.5876 482.447 90.7456 482.405 90.9071 482.396C91.0686 482.387 91.2303 482.409 91.3831 482.462C91.5358 482.515 91.6767 482.598 91.7975 482.706C117.318 506.258 140.116 562.065 144.845 612.518C144.875 612.837 144.779 613.156 144.575 613.404C144.372 613.652 144.078 613.81 143.759 613.842C143.596 613.88 143.429 613.892 143.262 613.879Z" fill="white"/>
<path d="M140.263 656.42C129.725 663.281 117.566 667.247 105.009 667.92C83.2968 669.429 74.7592 658.37 74.7592 658.37C74.7592 658.37 84.9528 639.032 97.5936 634.45C97.5936 634.45 76.6176 636.824 59.1008 646.41C59.1008 646.41 46.0184 645.472 42.5408 625.048C42.5408 625.048 51.3544 613.732 77.9056 609.518C77.9056 609.518 62.4496 604.164 39.1552 607.973C37.3152 608.488 32.3656 582.047 31.2064 569.958C30.0472 557.87 34.8864 558.403 44.3256 556.747C53.7648 555.091 85.56 556.306 90.9144 561.918C96.2688 567.53 97.6856 585.249 97.6856 585.249C97.6856 585.249 104.567 573.436 103.206 562.709C111.68 562.506 120.088 564.243 127.788 567.787C130.088 568.854 131.321 586.629 124.531 600.171C131.639 593.102 136.777 584.298 139.435 574.632C152.094 584.108 155.075 595.369 155.995 605.452C157.026 617.338 155.222 642.16 140.263 656.42Z" fill="#1C1364"/>
<path d="M140.153 657.616C139.928 657.6 139.711 657.518 139.532 657.381C139.352 657.244 139.216 657.057 139.141 656.843C125.01 619.436 64.4556 572.074 41.842 565.579C41.6884 565.535 41.5451 565.461 41.4202 565.361C41.2954 565.261 41.1916 565.137 41.1146 564.997C41.0377 564.857 40.9892 564.703 40.9719 564.544C40.9547 564.385 40.969 564.224 41.014 564.07C41.108 563.767 41.3154 563.512 41.593 563.357C41.8707 563.203 42.1972 563.162 42.5044 563.242C65.486 569.866 127.052 617.982 141.404 655.997C141.512 656.297 141.496 656.627 141.362 656.917C141.228 657.206 140.985 657.431 140.687 657.542C140.518 657.613 140.334 657.638 140.153 657.616Z" fill="white"/>
<path d="M356.445 281.52L280.655 247.885L278.815 206.485C293.535 205.602 298.19 208.803 304.814 212.907C314.511 218.887 347.87 236.054 363.584 243.432L381.45 193.752C386.594 193.088 391.649 191.854 396.52 190.072C401.819 187.68 407.725 190.808 407.725 190.808C407.725 190.808 391.92 267.352 385.958 281.52C382.554 289.561 369.509 287.224 356.445 281.52Z" fill="#FFA8A7"/>
<path d="M278.833 206.393C278.833 206.393 288.659 203.394 301.943 210.073C315.228 216.752 345.404 233.128 345.404 233.128C345.404 233.128 336.204 258.281 325.403 271.676L287.279 255.41L278.833 206.393Z" fill="#455A64"/>
<path d="M397.569 533.177C398.029 510.987 402.371 495.715 402.887 489.569C402.887 489.569 401.249 357.623 401.249 336.223L513.747 331.642C513.747 331.642 510.067 470.102 510.067 488.428C510.067 506.755 498.401 598.828 494.96 635.058C488.447 643.559 480.829 644.147 470.599 635.831C470.599 635.831 469.752 630.771 468.427 614.063C466.882 594.946 463.827 550.436 463.643 531.705C463.423 508.631 463.239 498.456 463.901 487.343C464.692 474.628 461.638 388.847 461.638 388.847C461.638 388.847 447.543 470.672 444.029 498.456C440.018 530.307 427.138 623.576 427.101 642.951C427.101 646.429 427.101 650.459 427.101 654.819C427.101 665.307 426.807 668.086 428.481 672.152C431.425 679.255 406.272 683.707 405.113 678.666L402.408 657.819V657.211V644C402.519 624.22 396.907 565.34 397.569 533.177Z" fill="#B16668"/>
<path d="M544.64 668.951C545.32 670.992 545.195 673.217 544.29 675.17C543.426 677.01 533.931 682.346 521.125 681.481C511.635 680.835 502.493 677.658 494.647 672.281C489.753 669.043 484.674 668.435 478.345 668.086C472.015 667.736 463.625 664.553 462.282 661.591C460.938 658.628 462.484 653.513 462.484 653.513L544.64 668.951Z" fill="#263238"/>
<path d="M493.01 629.004L494.022 628.783C494.574 628.634 495.151 628.603 495.715 628.691C496.336 628.883 496.887 629.255 497.298 629.759C498.552 631.36 499.649 633.079 500.573 634.892C503.259 639.271 508.89 642.896 515.035 646.208C519.23 648.453 523.334 650.201 527.639 652.151C531.945 654.102 537.888 655.335 541.347 657.671C546.37 661.057 547.014 669.576 541.347 672.943C536.416 675.832 523.407 678.979 509.791 675.115C502.431 673.017 494.114 665.087 484.381 664.314C478.18 663.835 466.459 662.087 462.466 657.377C460.994 655.298 462.963 648.674 464.582 642.97C466.422 636.732 467.674 626.943 469.734 627.495C469.8 628.617 469.923 629.735 470.102 630.844C470.323 631.801 471.354 632.684 471.942 633.42L474.334 636.18C475.298 637.459 476.504 638.535 477.886 639.345C480.333 640.596 483.258 640.063 485.945 639.492C486.074 639.492 484.841 634.598 484.712 634.119C484.582 633.741 484.55 633.336 484.62 632.942C484.78 632.558 485.066 632.241 485.43 632.04C487.715 630.507 490.298 629.473 493.01 629.004Z" fill="#455A64"/>
<path d="M452.99 705.235C453.744 705.953 453.523 710.755 452.677 712.135C451.831 713.515 446.642 717.931 437.331 718.612C428.426 719.238 420.477 718.042 415.251 714.73C410.026 711.418 407.505 707.756 407.008 702.678C406.511 697.599 407.008 692.723 404.671 688.822C402.445 685.142 398.875 681.168 398.103 679.199C396.428 674.967 398.103 668.877 398.103 668.877L452.99 705.235Z" fill="#263238"/>
<path d="M428.72 660.983C428.796 662.905 429.143 664.807 429.751 666.632C431.135 670.557 432.989 674.301 435.271 677.782C436.378 679.611 437.607 681.363 438.951 683.026C441.637 686.228 444.986 688.841 447.838 691.914C450.886 694.809 452.837 698.671 453.358 702.843C453.744 709.817 446.163 712.19 440.331 713.239C434.021 714.341 427.545 714.014 421.379 712.282C418.141 711.435 415.216 709.672 412.954 707.205C410.693 704.738 409.191 701.671 408.627 698.372C408.296 696.44 408.425 694.453 408.186 692.502C407.421 688.047 405.555 683.854 402.758 680.303C401.139 678.237 399.745 676.004 398.599 673.642C396.759 669.337 398.231 664.442 399.409 660.174C400.403 656.494 401.543 652.243 402.85 652.593C402.85 654.525 402.85 654.727 404.23 656.034C406.07 657.69 406.07 660.174 407.91 661.554C407.31 659.947 406.878 658.282 406.622 656.586C406.506 655.904 406.644 655.204 407.008 654.617C407.626 654.072 408.364 653.681 409.161 653.476C411.908 652.54 414.744 651.893 417.625 651.544C420.366 651.084 423.164 651.084 425.905 651.544C426.717 651.687 427.453 652.11 427.984 652.74C428.464 653.445 428.721 654.279 428.72 655.132C428.72 656.254 428.573 659.143 428.72 660.983Z" fill="#455A64"/>
<path d="M436.08 679.254C433.486 677.304 427.671 677.267 424.488 677.617C421.249 677.889 418.132 678.985 415.435 680.8C415.035 681.08 414.549 681.211 414.062 681.171C413.574 681.13 413.117 680.921 412.767 680.579C412.562 680.384 412.403 680.145 412.301 679.881C412.198 679.617 412.155 679.333 412.174 679.051C412.194 678.768 412.275 678.493 412.412 678.245C412.55 677.997 412.74 677.783 412.97 677.617C415.946 675.454 419.474 674.178 423.145 673.937C430.983 673.385 433.283 674.728 433.283 674.728C433.283 674.728 436.816 676.936 436.08 679.254Z" fill="#F5F5F5"/>
<path d="M442.023 686.32C438.766 684.388 432.345 684.664 429.143 685.014C425.967 685.333 422.932 686.488 420.348 688.363C419.952 688.652 419.466 688.79 418.977 688.753C418.488 688.716 418.028 688.506 417.68 688.16C417.478 687.963 417.321 687.724 417.221 687.46C417.12 687.196 417.078 686.914 417.097 686.632C417.117 686.351 417.197 686.076 417.332 685.829C417.468 685.581 417.656 685.366 417.882 685.198C420.902 682.902 424.502 681.493 428.278 681.131C436.117 680.579 438.159 682.18 438.159 682.18C439.076 682.53 439.901 683.085 440.571 683.803C441.24 684.52 441.737 685.381 442.023 686.32Z" fill="#F5F5F5"/>
<path d="M419.999 666.338C423.297 665.767 426.686 666.052 429.843 667.166C431.223 667.938 432.124 670.128 431.241 670.68C428.479 669.559 425.481 669.148 422.519 669.484C419.58 669.768 416.711 670.552 414.037 671.802C413.375 672.097 412.565 672.52 411.884 672.906C411.664 673.032 411.42 673.111 411.168 673.138C410.916 673.166 410.661 673.14 410.419 673.064C410.177 672.988 409.954 672.863 409.763 672.697C409.571 672.53 409.417 672.326 409.308 672.097C409.12 671.708 409.085 671.263 409.212 670.85C409.338 670.437 409.615 670.087 409.989 669.87C413.033 667.987 416.447 666.782 419.999 666.338Z" fill="#F5F5F5"/>
<path d="M509.257 642.841C508.811 641.986 508.159 641.257 507.358 640.72C506.558 640.183 505.635 639.856 504.675 639.768C501.86 639.253 496.874 641.332 493.783 643.871C493.488 644.11 493.256 644.417 493.108 644.766C492.96 645.115 492.899 645.495 492.932 645.873C492.965 646.251 493.09 646.615 493.296 646.933C493.502 647.251 493.783 647.514 494.114 647.699C494.531 647.931 495.011 648.027 495.486 647.974C495.96 647.922 496.407 647.722 496.763 647.404C500.173 644.312 504.657 642.674 509.257 642.841Z" fill="#F5F5F5"/>
<path d="M517.997 647.68C517.383 646.813 516.569 646.106 515.625 645.619C514.68 645.132 513.632 644.88 512.569 644.883C512.569 644.883 505.209 645.104 500.646 649.336C500.369 649.569 500.153 649.866 500.015 650.2C499.877 650.534 499.82 650.896 499.851 651.257C499.882 651.617 499.998 651.965 500.191 652.271C500.384 652.577 500.647 652.833 500.959 653.016C501.359 653.239 501.82 653.331 502.276 653.278C502.731 653.225 503.159 653.03 503.498 652.722C505.382 650.848 507.663 649.422 510.173 648.549C512.683 647.676 515.357 647.379 517.997 647.68Z" fill="#F5F5F5"/>
<path d="M527.639 652.151C526.94 651.345 526.075 650.701 525.103 650.262C524.131 649.824 523.075 649.602 522.008 649.612C517.824 649.867 513.829 651.445 510.6 654.12C510.324 654.353 510.108 654.65 509.969 654.984C509.831 655.318 509.775 655.68 509.805 656.041C509.836 656.401 509.953 656.749 510.145 657.055C510.338 657.361 510.601 657.617 510.913 657.8C511.314 658.023 511.775 658.115 512.23 658.062C512.686 658.009 513.113 657.814 513.452 657.506C515.234 655.567 517.446 654.073 519.909 653.143C522.373 652.213 525.02 651.873 527.639 652.151Z" fill="#F5F5F5"/>
<path d="M445.813 504.639L457.074 430.063L461.84 489.974C462.226 494.868 460.975 513.011 461.288 527.988C461.601 542.966 468.114 610.347 468.114 610.347C468.114 610.347 480.865 619.068 497.83 610.347C498.29 608.967 507.325 532.294 508.134 522.45C509.146 510.269 510.913 499.247 511.317 488.87C511.722 478.492 512.458 457.038 512.293 440.662C512.127 424.286 513.691 331.642 513.691 331.642L398.949 331.991L397.513 487.361C396.814 490.839 392.895 523.443 393.925 539.764C394.956 556.085 401.874 631.948 401.874 631.948C401.874 631.948 412.215 638.554 427.781 631.948C427.781 631.948 437.423 554.668 440.201 540.095C442.98 525.523 444.82 511.189 445.813 504.639Z" fill="#37474F"/>
<path d="M457.075 430.063L460.552 398.434C471.585 397.201 482.157 393.326 491.372 387.136C491.372 387.136 489.532 391.184 479.909 397.495C476.016 400.033 471.742 401.934 467.25 403.126L463.68 428.297L461.84 488.87L457.075 430.063Z" fill="#263238"/>
<path d="M486.68 170.163C501.547 170.163 508.227 172.978 515.476 181.81C522.726 190.642 557.189 237.01 557.189 237.01C557.189 237.01 581.551 213.845 593.989 202.326C601.754 194.341 609.371 186.521 617.707 184.129C626.41 181.626 622.067 197.818 625.527 199.143L615.241 214.121C615.241 214.121 577.282 264.647 564.015 272.486C559.415 275.209 554.558 281.06 541.733 270.646C524.897 256.938 494.353 222.53 494.353 222.53L486.68 170.163Z" fill="#B16668"/>
<path d="M480.645 170.145C494.371 167.827 503.075 166.962 515.476 180.007C527.878 193.053 551.871 229.871 551.871 229.871C551.871 229.871 550.455 248.768 526.111 256.165L488.483 229.871L480.645 170.145Z" fill="#455A64"/>
<path d="M397.569 347.76C413.007 359.003 483 371.459 515.476 347.76C515.476 347.76 514.722 257.03 512.183 209.006C512.054 206.835 511.907 204.719 511.686 202.658C511.686 201.977 511.52 201.296 511.447 200.615C511.088 197.749 510.541 194.909 509.809 192.115C509.68 191.655 509.533 191.195 509.386 190.735C509.088 189.697 508.732 188.677 508.319 187.68C508.116 187.147 507.895 186.613 507.656 186.098C507.443 185.607 507.203 185.128 506.939 184.663C506.91 184.574 506.873 184.487 506.828 184.405C506.589 183.945 506.313 183.485 506.055 183.043C505.798 182.602 505.467 182.087 505.117 181.59C504.767 181.093 504.491 180.688 504.179 180.283C503.866 179.879 503.424 179.363 503.019 178.922C502.644 178.488 502.245 178.077 501.823 177.689L500.977 176.898C500.712 176.639 500.429 176.399 500.131 176.18C499.763 175.867 499.358 175.573 498.971 175.297C497.701 174.408 496.36 173.627 494.96 172.96C494.566 172.754 494.16 172.57 493.746 172.408C493.654 172.408 493.525 172.408 493.47 172.279L492.016 171.727C491.185 171.407 490.337 171.131 489.477 170.899C488.612 170.66 487.637 170.439 486.772 170.219C485.907 169.998 484.564 170.219 483.313 170.219H480.737C479.835 170.219 478.897 170.219 477.977 170.219C465.833 170.752 453.008 168.379 439.024 170.071C438.104 170.2 408.848 173.475 402.095 175.923C395.803 178.223 390.135 189.41 388.737 195.611C384.56 213.863 402.96 273.13 402.96 273.13L397.569 347.76Z" fill="#1C1364"/>
<path d="M434.921 173.494C434.259 175.757 438.601 182.565 445.612 185.711C452.622 188.858 462.945 190.311 469.532 188.048C476.119 185.785 484.068 177.579 477.131 170.274C465.226 170.66 452.659 168.434 438.988 170.108C438.933 170.09 435.602 171.231 434.921 173.494Z" fill="#455A64"/>
<path opacity="0.3" d="M512.514 215.979C500.738 220.082 481.4 223.339 457.075 224.756C434.652 225.87 412.174 224.636 390.007 221.076C392.675 236.569 397.367 254.196 400.348 264.445C442.87 273.111 491.52 266.285 513.986 259.164C513.581 243.414 513.14 228.822 512.514 215.979Z" fill="black"/>
<path d="M438.307 106.352L434.001 111.062L431.793 86.7377C430.047 86.5343 428.278 86.7318 426.62 87.3153C424.962 87.8988 423.459 88.8529 422.225 90.1049C418.122 94.3001 420.385 107.456 425.537 120.336C425.537 120.336 430.523 143.778 432.529 147.623C433.854 150.004 436.05 151.778 438.656 152.573L438.307 106.352Z" fill="#263238"/>
<path d="M437.755 121.44C435.915 122.563 433.173 118.938 430.855 116.509C428.536 114.08 420.937 110.75 417.147 118.717C413.356 126.684 420.495 137.595 426.475 139.472C436.761 142.711 438.307 136.105 438.307 136.105L439.006 173.972C449.788 193.476 486.275 183.485 472.604 170.55V160.927C477.774 161.304 482.964 161.304 488.134 160.927C495.715 159.767 498.824 154.523 501.124 146.317C504.804 133.161 506.203 122.526 503.075 96.6369C499.652 68.2641 466.643 67.9697 448.813 79.1753C430.983 90.3809 437.755 121.44 437.755 121.44Z" fill="#B16668"/>
<path d="M433.338 71.2265C439.59 68.5554 446.119 66.5868 452.805 65.3569C467.213 62.2289 481.877 59.3585 495.015 52.7161C496.546 51.7186 498.34 51.1998 500.167 51.2257C503.645 51.6857 505.153 55.8809 505.301 59.3769C505.43 62.6202 505.007 65.8618 504.049 68.9633C505.099 67.9633 506.5 67.4163 507.949 67.4404C509.398 67.4645 510.78 68.0578 511.796 69.0921C512.758 70.1799 513.458 71.4732 513.844 72.8731C514.23 74.273 514.291 75.7426 514.022 77.1697C513.176 83.6097 508.245 88.9825 502.412 91.8897C496.425 94.4943 489.951 95.7867 483.423 95.6801C474.34 95.9246 465.255 95.2154 456.32 93.5641C454.174 93.0305 451.952 92.8687 449.751 93.0857C448.652 93.2142 447.612 93.6477 446.747 94.3371C445.882 95.0265 445.227 95.9442 444.857 96.9865C443.9 100.574 442.906 124.936 437.92 125.12C437 125.12 433.449 118.993 431.13 116.803C428.223 114.062 425.297 93.1777 424.782 89.3137C424.717 89.0143 424.578 88.736 424.377 88.5041C421.102 83.9041 424.948 76.1761 428.996 73.6553C430.394 72.7604 431.844 71.9493 433.338 71.2265Z" fill="#263238"/>
<path d="M426.162 88.7433C425.578 89.4296 424.863 89.9939 424.061 90.4041C423.258 90.8144 422.382 91.0624 421.483 91.1342C420.584 91.2059 419.68 91.1 418.823 90.8224C417.965 90.5447 417.17 90.1009 416.484 89.5161C415.798 88.9314 415.233 88.2172 414.823 87.4143C414.413 86.6115 414.165 85.7357 414.093 84.837C414.021 83.9383 414.127 83.0342 414.405 82.1764C414.683 81.3187 415.126 80.524 415.711 79.8377L426.162 88.7433Z" fill="#263238"/>
<path d="M472.568 160.908C472.568 160.908 455.658 159.289 449.752 156.143C446.283 154.332 443.442 151.517 441.601 148.065C442.489 151.522 444.066 154.764 446.237 157.596C450.561 163.116 472.586 166.115 472.586 166.115L472.568 160.908Z" fill="#9A4A4D"/>
<path d="M467.36 117.19C467.331 117.852 467.108 118.492 466.719 119.029C466.33 119.566 465.792 119.977 465.171 120.211C464.55 120.444 463.875 120.491 463.228 120.344C462.581 120.197 461.992 119.864 461.533 119.385C461.074 118.906 460.766 118.303 460.647 117.651C460.528 116.998 460.603 116.325 460.863 115.715C461.123 115.105 461.556 114.585 462.109 114.219C462.663 113.853 463.311 113.657 463.974 113.657C464.429 113.666 464.876 113.765 465.292 113.948C465.709 114.131 466.084 114.394 466.399 114.722C466.713 115.05 466.96 115.437 467.125 115.86C467.29 116.284 467.37 116.735 467.36 117.19Z" fill="#263238"/>
<path d="M463.809 104.402L456.559 108.394C456.041 107.402 455.928 106.247 456.243 105.173C456.559 104.099 457.279 103.189 458.252 102.635C458.731 102.376 459.257 102.216 459.799 102.165C460.34 102.114 460.887 102.172 461.406 102.337C461.925 102.502 462.405 102.77 462.818 103.125C463.231 103.479 463.568 103.914 463.809 104.402Z" fill="#263238"/>
<path d="M468.925 140.595L478.401 144.127C478.188 144.758 477.852 145.34 477.41 145.838C476.969 146.336 476.432 146.741 475.831 147.027C475.23 147.314 474.578 147.477 473.913 147.507C473.248 147.536 472.584 147.432 471.961 147.2C470.708 146.694 469.696 145.728 469.131 144.5C468.567 143.272 468.493 141.875 468.925 140.595Z" fill="#9A4A4D"/>
<path d="M497.297 107.217L490.691 102.138C490.996 101.686 491.39 101.302 491.848 101.007C492.307 100.713 492.821 100.516 493.359 100.428C493.897 100.341 494.447 100.364 494.975 100.496C495.504 100.629 496 100.868 496.432 101.2C497.327 101.896 497.917 102.912 498.079 104.034C498.24 105.156 497.96 106.297 497.297 107.217Z" fill="#263238"/>
<path d="M495.255 116.215C495.267 116.669 495.189 117.121 495.025 117.544C494.86 117.967 494.614 118.354 494.298 118.681C493.983 119.008 493.606 119.269 493.189 119.449C492.772 119.629 492.323 119.724 491.869 119.729C491.169 119.755 490.478 119.571 489.883 119.2C489.288 118.83 488.818 118.291 488.532 117.651C488.246 117.012 488.158 116.301 488.279 115.611C488.399 114.921 488.724 114.283 489.209 113.779C489.695 113.274 490.321 112.926 491.006 112.78C491.691 112.634 492.404 112.695 493.054 112.957C493.704 113.219 494.26 113.669 494.652 114.249C495.045 114.83 495.254 115.514 495.255 116.215Z" fill="#263238"/>
<path d="M478.915 113.804L480.037 134.173L490.673 130.548L478.915 113.804Z" fill="#9A4A4D"/>
<path d="M418.269 172.776C395.674 173.843 388.995 177.395 381.469 193.605C375.949 205.455 348.349 278.65 343.289 291.751C338.855 303.435 338.266 309.433 347.944 317.419C357.623 325.404 367.375 332.838 377.384 340.216C383.475 344.724 388.939 349.619 395.085 354.035C404.763 360.971 414.221 368.755 424.525 374.587C436.853 381.598 459.135 390.816 470.875 377.973C473.193 375.434 475.346 372.453 474.076 368.773C473.093 366.406 471.317 364.454 469.053 363.253C466.804 362.061 464.451 361.075 462.024 360.309C456.59 358.355 451.353 355.891 446.384 352.949C450.671 351.587 455.363 351.919 459.724 351.109C460.957 350.885 462.071 350.234 462.871 349.269C463.277 348.795 463.501 348.191 463.501 347.567C463.501 346.942 463.277 346.339 462.871 345.865C462.332 345.46 461.698 345.2 461.031 345.111C454.897 343.737 448.696 342.565 442.428 341.596C436.635 340.927 430.906 339.789 425.298 338.192C416.263 335.248 410.578 328.606 404.138 322C397.091 314.769 390.375 307.28 383.898 299.515L414 228.694C414 228.694 429.548 188.067 418.269 172.776Z" fill="#B16668"/>
<path d="M421.489 172.298C412.823 172.776 399.409 173.807 393.135 177.818C385.867 182.473 383.125 186.061 375.912 203.725C368.7 221.389 354.513 258.355 354.513 258.355C359.379 264.668 365.73 269.68 373.001 272.945C380.272 276.21 388.238 277.626 396.189 277.067L420.109 221.867C420.109 221.867 431.241 192.575 421.489 172.298Z" fill="#455A64"/>
<path d="M455.952 371.68C453.1 359.996 463.753 350.005 472.401 344.08C485.741 334.88 497.573 329.36 511.317 321.117C523.829 313.573 562.138 286.911 562.138 286.911C562.138 286.911 581.955 255.723 595.516 231.858C612.333 202.326 625.563 183.448 653.715 186.834L653.457 222.456C653.457 222.456 593.363 304.115 589.665 308.513C585.966 312.91 584.476 314.879 578.128 317.713C560.924 325.662 539.157 335.598 521.861 346.38C516.92 349.408 513.057 353.914 510.821 359.26C508.962 363.541 506.562 367.567 503.681 371.238C502.276 373.033 500.765 374.741 499.155 376.354C498.069 377.421 496.064 379.611 494.426 379.445C494.037 379.385 493.667 379.233 493.348 379.003C493.028 378.773 492.767 378.47 492.586 378.12C492.226 377.401 492.043 376.606 492.053 375.802C491.942 370.889 495.549 366.602 496.045 361.689C496.045 361.247 495.475 361.468 495.383 361.045C495.291 360.622 487.71 365.019 487.048 365.461C484.348 367.338 481.756 369.366 479.283 371.533C476.781 373.686 474.297 375.894 471.739 377.973C470.546 379.134 469.043 379.926 467.411 380.252C465.779 380.579 464.087 380.426 462.539 379.813C460.9 379.04 459.457 377.907 458.317 376.499C457.176 375.091 456.368 373.444 455.952 371.68Z" fill="#FFBDA7"/>
<path d="M657.321 186.502C648.324 184.662 626.281 184.902 616.308 198.297C605.783 212.41 573.233 265.88 573.233 265.88C573.233 265.88 581.55 283.728 605.893 289.8L647.68 232.87L657.321 186.502Z" fill="#455A64"/>
<path d="M733.534 740.582C734.27 743.47 735.797 751.622 750.996 751.622C766.194 751.622 774.916 745.384 777.878 737.674C780.841 729.965 779.148 724.224 778.872 717.434C778.596 710.645 783.601 706.394 784.705 702.714C786.342 697.36 781.871 689.982 781.871 689.982L733.534 740.582Z" fill="#263238"/>
<path d="M587.438 690.957C587.032 692.164 586.885 693.443 587.006 694.711C587.126 695.979 587.512 697.207 588.137 698.317C589.241 699.807 599.435 707.204 612.057 705.677C621.29 704.776 630.173 701.678 637.964 696.642C645.324 692.3 650.384 691.674 657.873 691.693C665.362 691.711 670.477 690.313 671.103 688.418C672.189 685.124 672.262 683.008 670.68 683.063L587.438 690.957Z" fill="#263238"/>
<path d="M764.318 564.88C762.367 548.885 756.995 533.497 748.567 519.763C748.567 519.763 741.207 411.203 734.951 354.163H622.564C622.564 354.163 625.913 502.081 627.716 523.774C629.096 540.334 640.449 644.147 640.467 644.35L642.105 661.664C650.918 666.098 657.837 665.436 665.344 660.045L666.945 644.718C666.945 644.718 676.145 578.901 676.715 563.206C677.35 549.803 675.866 536.383 672.318 523.443L685.952 449.714C685.952 449.714 696.845 501.823 703.009 531.006C710.056 564.438 750.849 673.918 750.849 673.955L753.443 683.063C752.873 692.999 776.774 686.228 776.517 678.408C776.48 678.426 768.826 598.865 764.318 564.88Z" fill="#FFBDA7"/>
<path d="M698.574 532.459C692.429 503.277 685.952 449.659 685.952 449.659L677.377 524.566C646.576 537.887 625.361 525.099 625.361 525.099C619.841 469.605 622.564 354.108 622.564 354.108H734.951C741.17 411.148 752.229 518.475 752.229 518.475C752.229 518.475 743.47 536.986 698.574 532.459Z" fill="#37474F"/>
<path d="M685.952 449.733L678.334 414.662C678.334 414.662 661.332 410.78 649.188 401.046C649.188 401.046 653.641 412.234 672.262 420.79L680.045 453.652L677.966 519.45L685.952 449.733Z" fill="#263238"/>
<path d="M753.48 683.082L752.56 680.064C751.566 681.058 751.713 681.904 751.676 684.609C751.676 686.743 751.676 688.804 751.4 691.638C751.042 695.338 750.364 699.001 749.376 702.586C747.408 710.903 745.2 714.251 739.348 724.537C737.95 726.966 734.601 731.032 733.608 733.737C732.614 736.442 732.32 741.097 735.448 742.937C744.335 748.199 758.043 746.764 766.728 742.679C769.98 741.197 772.739 738.812 774.676 735.808C776.614 732.804 777.648 729.307 777.657 725.733C777.657 723.617 777.216 721.519 777.124 719.403C777.194 714.524 778.458 709.735 780.804 705.456C782.14 702.981 783.213 700.372 784.005 697.673C785.183 692.76 782.864 687.811 780.932 683.395C779.276 679.586 777.344 674.489 776.038 675.078L776.553 678.427C775.192 680.487 771.033 682.971 765.9 683.947C762.624 684.609 753.848 685.584 753.48 683.082Z" fill="#455A64"/>
<path d="M641.167 651.838C640.007 651.838 638.83 652.74 636.769 655.758C633.935 659.896 630.277 663.404 626.023 666.062C618.387 671.434 606.299 676.862 593.879 681.518C587.107 684.038 585.819 688.878 588.046 693.312C591.56 696.808 603.502 704.996 623.116 699.016C635.279 695.336 639.566 689.08 648.269 687.976C654.415 687.185 665.087 688.878 671.361 683.799C673.348 679.052 671.747 674.268 671.122 667.681C670.496 661.094 668.38 650.55 666.301 650.974L665.933 654.451C664.259 662.087 646.705 662.823 641.737 657.837L641.167 651.838Z" fill="#455A64"/>
<path d="M688.565 184.902C708.069 186.116 733.516 185.877 734.712 205.859C736.552 236.514 730.645 312.046 730.645 312.046L736.957 364.909C722.66 380.181 657.634 388.166 621.129 365.774C621.129 365.774 619.049 251.086 621.92 233.735C627.072 202.455 642.325 187.57 653.715 186.686L688.565 184.902Z" fill="#1C1364"/>
<path d="M697.36 194.709C701.85 190.182 703.248 185.84 700.047 185.509C696.127 185.233 692.19 185.067 688.491 184.828L660.891 186.245C660.891 186.245 654.617 192.574 656.475 197.855C658.334 203.136 664.387 205.767 671.821 205.473C681.346 205.048 690.405 201.23 697.36 194.709Z" fill="#455A64"/>
<path opacity="0.3" d="M621.552 236.606C620.871 243.855 620.54 258.17 620.448 274.749C656.015 286.838 707.461 280.361 733.056 275.871C733.829 262.421 734.565 251.528 734.896 237.747C694.379 246.56 648.25 243.285 621.552 236.606Z" fill="black"/>
<path d="M715.337 187.533C727.867 187.533 737.619 188.324 746.378 199.088C752.505 206.595 798.026 262.642 803.417 271.97C808.809 281.299 809.177 284.961 801.191 296.663C794.567 306.36 757.657 361.063 745.715 373.446C733.773 385.83 717.821 387.909 709.927 384.597C702.033 381.285 691.913 373.373 711.491 364.357C725.217 358.101 733.111 351.679 734.712 345.497L733.7 336.665H741.06L767.041 283.36L721.574 234.563C721.574 234.563 706.008 207.386 715.337 187.533Z" fill="#FFBDA7"/>
<path d="M711.068 186.742C711.068 186.742 727.886 186.447 734.215 188.674C740.545 190.9 745.771 196.034 754.695 207.074C763.619 218.114 788.238 249.541 788.238 249.541C788.238 249.541 785.478 270.609 758.798 276.644L719.845 238.188C719.845 238.188 703.947 222.07 711.068 186.742Z" fill="#455A64"/>
<path d="M674.394 137.963C688.283 127.793 691.299 108.29 681.13 94.4C670.96 80.5104 651.457 77.4945 637.567 87.6639C623.677 97.8333 620.661 117.337 630.831 131.227C641 145.116 660.504 148.132 674.394 137.963Z" fill="#263238"/>
<path d="M710.239 134.154C710.239 134.154 705.529 157.964 703.56 161.92C702.231 164.35 700.006 166.165 697.359 166.98V150.291L710.239 134.154Z" fill="#263238"/>
<path d="M703.339 100.28C705.101 100.042 706.894 100.211 708.581 100.772C710.268 101.333 711.805 102.273 713.073 103.518C717.305 107.714 715.189 121.054 710.203 134.154L700.727 135.387L703.339 100.28Z" fill="#263238"/>
<path d="M697.856 135.442C699.788 136.565 702.456 132.848 704.775 130.346C707.093 127.843 714.711 124.366 718.667 132.388C722.623 140.41 715.576 151.524 709.559 153.511C699.2 156.952 697.525 150.291 697.525 150.291L697.36 188.931C684.682 205.749 648.71 204.902 663.412 187.33L663.264 175.886C663.264 175.886 653.844 177.468 649.244 176.824C641.552 175.757 636.64 169.795 634.192 161.534C630.255 148.286 628.672 137.614 631.414 111.302C634.45 82.5425 667.828 81.7145 686.044 92.7913C704.26 103.868 697.856 135.442 697.856 135.442Z" fill="#FFBDA7"/>
<path d="M697.911 138.662C698.868 138.662 702.42 132.554 704.775 130.346C708.013 127.31 703.34 100.28 703.34 100.28C704.439 97.8765 704.789 95.1981 704.346 92.5928C703.903 89.9874 702.687 87.5754 700.856 85.6703C696.274 80.7759 689.816 74.8327 669.576 77.5559C655.021 79.5063 639.234 84.3087 626.317 78.2183C625.202 82.3964 625.354 86.8114 626.753 90.9031C628.152 94.9948 630.735 98.5787 634.174 101.2C634.174 101.2 638.866 104.107 651.084 105.414C663.301 106.72 682.364 104.641 684.884 104.236C688.417 103.702 689.227 107.125 691.288 116.454C693.091 124.734 694.691 138.644 697.911 138.662Z" fill="#263238"/>
<path d="M703.358 102.378L714.784 96.0112C714.406 95.2409 713.875 94.5554 713.224 93.9961C712.572 93.4369 711.814 93.0155 710.996 92.7576C710.177 92.4996 709.315 92.4103 708.46 92.4951C707.606 92.58 706.778 92.8372 706.026 93.2512C704.492 94.1369 703.359 95.5797 702.862 97.2795C702.365 98.9793 702.543 100.805 703.358 102.378Z" fill="#263238"/>
<path d="M665.748 132.333C665.799 132.999 666.043 133.635 666.45 134.164C666.858 134.693 667.412 135.091 668.043 135.31C668.674 135.528 669.355 135.556 670.003 135.392C670.65 135.228 671.235 134.878 671.686 134.385C672.137 133.893 672.434 133.279 672.54 132.619C672.646 131.96 672.557 131.284 672.284 130.675C672.011 130.065 671.565 129.549 671.002 129.19C670.439 128.831 669.783 128.644 669.116 128.653C668.65 128.664 668.191 128.77 667.767 128.963C667.343 129.156 666.963 129.432 666.648 129.776C666.334 130.12 666.092 130.523 665.937 130.963C665.783 131.402 665.718 131.868 665.748 132.333Z" fill="#263238"/>
<path d="M667.718 119.876L675.078 123.795C675.581 122.779 675.671 121.607 675.328 120.526C674.985 119.445 674.235 118.539 673.238 117.999C672.753 117.755 672.224 117.61 671.683 117.572C671.141 117.534 670.598 117.605 670.084 117.779C669.57 117.954 669.096 118.229 668.69 118.589C668.283 118.949 667.953 119.387 667.718 119.876Z" fill="#263238"/>
<path d="M633.567 123.28L640.173 118.018C639.853 117.57 639.446 117.193 638.975 116.909C638.505 116.625 637.981 116.44 637.436 116.366C636.892 116.292 636.338 116.33 635.808 116.478C635.279 116.626 634.786 116.881 634.358 117.226C633.472 117.939 632.896 118.967 632.748 120.094C632.601 121.222 632.894 122.363 633.567 123.28Z" fill="#263238"/>
<path d="M636.75 132.333C636.8 132.999 637.044 133.635 637.452 134.164C637.859 134.693 638.413 135.091 639.044 135.31C639.675 135.528 640.357 135.556 641.004 135.392C641.651 135.228 642.236 134.878 642.687 134.385C643.138 133.893 643.435 133.279 643.541 132.619C643.647 131.96 643.558 131.284 643.285 130.675C643.012 130.065 642.566 129.549 642.003 129.19C641.44 128.831 640.785 128.644 640.117 128.653C639.652 128.667 639.195 128.774 638.772 128.968C638.349 129.162 637.97 129.438 637.656 129.781C637.342 130.124 637.1 130.527 636.944 130.965C636.788 131.404 636.722 131.869 636.75 132.333Z" fill="#263238"/>
<path d="M663.265 175.978C663.265 175.978 680.064 172.684 685.971 169.556C689.082 167.755 691.45 164.904 692.65 161.515C692.331 164.871 691.054 168.065 688.97 170.715C684.646 176.235 663.357 181.093 663.357 181.093L663.265 175.978Z" fill="#F0997A"/>
<path d="M666.871 155.627L657.432 159.178C657.637 159.814 657.967 160.401 658.405 160.905C658.842 161.409 659.376 161.819 659.976 162.111C660.576 162.404 661.229 162.572 661.895 162.605C662.561 162.639 663.228 162.537 663.854 162.306C665.123 161.8 666.147 160.821 666.71 159.576C667.273 158.33 667.331 156.915 666.871 155.627Z" fill="#F0997A"/>
<path d="M656.88 128.855L655.757 149.224L645.122 145.599L656.88 128.855Z" fill="#F0997A"/>
<path d="M269.725 188.766L267.756 188.968C261.286 189.66 254.743 189.07 248.501 187.232C242.26 185.394 236.441 182.344 231.378 178.257C226.315 174.17 222.107 169.125 218.994 163.411C215.882 157.697 213.925 151.426 213.237 144.955C211.923 132.353 215.663 119.744 223.635 109.896C231.607 100.047 243.16 93.7634 255.759 92.4233L261.279 91.8345C273.853 90.513 286.439 94.2226 296.286 102.153C306.133 110.083 312.44 121.588 313.83 134.154C314.529 140.638 313.942 147.195 312.102 153.451C310.262 159.707 307.207 165.539 303.109 170.612C299.012 175.685 293.955 179.9 288.226 183.015C282.497 186.13 276.21 188.084 269.725 188.766Z" fill="#263238"/>
<path d="M244.26 95.0728C257.282 89.795 270.624 85.3455 284.207 81.7512C289.58 80.1974 295.202 79.6914 300.767 80.2608C303.537 80.5744 306.202 81.5081 308.562 82.9925C310.922 84.4769 312.918 86.4739 314.401 88.8352C317.713 94.7968 316.241 102.58 312.083 108.026C315.733 109.134 318.947 111.354 321.274 114.376C323.602 117.399 324.927 121.073 325.065 124.885C325.203 128.697 324.146 132.457 322.043 135.64C319.94 138.823 316.895 141.269 313.334 142.637C308.532 144.167 303.432 144.514 298.467 143.649C287.992 142.607 277.841 139.433 268.64 134.32C259.41 129.157 252.068 121.184 247.683 111.559" fill="#263238"/>
<path d="M294.124 668.693C288.917 662.768 288.052 657.156 289.064 646.429C290.076 635.702 301.024 542.34 303.784 518.972C308.495 479.706 310.132 367.632 307.575 340.234L202.4 345.754C194.286 364.614 188.067 387.927 188.287 424.874C188.453 452.971 185.803 529.129 185.803 529.129C185.803 529.129 172.703 539.985 162.969 561.862C154.376 581.182 143.299 648.342 143.299 648.342C142.434 651.265 141.351 654.119 140.061 656.88C137.69 659.604 136.275 663.029 136.031 666.632C135.723 678.296 136.654 689.959 138.81 701.426C139.932 707.369 143.52 711.252 149.335 713.754C150.627 714.318 152.028 714.588 153.438 714.545C154.168 714.557 154.878 714.309 155.443 713.846C156.474 712.871 155.627 710.497 155.443 709.301C155.192 707.386 155.069 705.456 155.075 703.524C155.075 699.734 155.296 695.097 155.646 691.325C156.368 682.837 157.959 674.446 160.393 666.282L162.546 661.48C162.546 661.48 210.515 570.805 224.039 548.761C234.784 531.447 243.395 463.422 251.639 426.328L261.611 515.77C258.298 524.955 255.768 534.403 254.049 544.014C251.712 560.574 261.685 625.6 264.574 648.729C265.117 653.009 265.055 657.345 264.39 661.609C265.365 671.637 272.78 674.912 280.379 680.763C284.17 683.67 300.84 694.416 311.015 696.753C319.295 698.593 322.552 695.52 323.785 693.201C313.024 686.152 303.076 677.932 294.124 668.693Z" fill="#FFA8A7"/>
<path d="M126.61 669.852C125.713 670.384 124.939 671.1 124.34 671.953C123.74 672.806 123.329 673.777 123.133 674.802C122.415 678.334 123.335 683.045 124.513 687.682C125.69 692.318 125.525 702.199 125.065 709.394C124.581 716.219 126.537 722.994 130.585 728.511C134.375 733.442 141.091 737.122 149.813 737.435C158.534 737.748 163.079 736.57 166.373 734.841C169.666 733.111 171.083 724.279 165.637 722.237C160.19 720.194 141.496 716.717 137.466 699.402C135.072 689.145 131.426 679.22 126.61 669.852Z" fill="#263238"/>
<path d="M140.061 656.88C140.728 658.903 141.051 661.024 141.018 663.154C141.342 664.917 141.545 666.7 141.625 668.49C141.625 670.073 141.901 671.968 143.355 672.575C143.949 672.752 144.582 672.752 145.176 672.575C145.771 672.399 146.301 672.054 146.703 671.581C147.48 670.615 148.205 669.608 148.875 668.564C149.672 667.525 150.691 666.676 151.857 666.08C153.024 665.484 154.309 665.156 155.618 665.119C156.928 665.082 158.229 665.337 159.427 665.866C160.626 666.395 161.691 667.185 162.546 668.177L161.902 669.649C156.794 682.2 155.676 696.02 158.7 709.228C159.24 711.795 160.642 714.101 162.675 715.76C164.413 717.116 166.049 718.598 167.569 720.194C168.329 721.002 168.906 721.964 169.258 723.015C169.611 724.067 169.731 725.182 169.611 726.285C169.249 727.935 168.285 729.392 166.907 730.37C165.541 731.334 164.024 732.062 162.417 732.522C154.695 735.072 146.291 734.578 138.92 731.142C135.81 729.499 133.145 727.125 131.155 724.224C126.997 716.514 127.678 709.283 127.788 702.733C128.046 688.27 125.948 680.745 124.881 673.477C123.703 664.608 137.356 655.408 140.061 656.88Z" fill="#455A64"/>
<path d="M260.231 682.769C259.716 686.173 259.366 687.682 263.543 690.828C267.72 693.974 274.178 696.201 279.183 698.188C284.188 700.175 291.235 705.824 294.271 708.658C297.307 711.491 309.102 716.588 318.706 716.275C328.311 715.962 333.886 713.791 336.205 711.73C338.523 709.67 340.934 702.402 334.788 700.396C328.642 698.39 260.231 682.769 260.231 682.769Z" fill="#263238"/>
<path d="M264.592 658.72C264.28 658.791 263.992 658.942 263.757 659.158C263.521 659.374 263.346 659.648 263.249 659.953C262.365 662.658 262.329 665.767 261.685 668.546C260.709 672.906 259.605 679.162 260.231 682.695C260.857 686.228 265.512 689.761 274.362 692.521C279.68 694.195 289.082 699.071 293.425 703.174C298.669 708.198 309.985 712.558 317.786 713C326.876 713.515 336.425 711.326 338.781 704.849C339.774 702.107 339.259 697.857 327.741 691.969C327.741 691.969 318.964 687.258 315.67 685.087C309.871 681.403 304.426 677.19 299.405 672.502C297.585 670.745 295.911 668.844 294.4 666.816C293.608 665.873 292.9 664.864 292.284 663.798C291.601 661.84 291.15 659.808 290.941 657.745C290.859 657.09 290.633 656.461 290.278 655.905C289.796 655.334 289.156 654.918 288.438 654.709C286.708 654.061 284.841 653.862 283.013 654.131C281.185 654.4 279.455 655.128 277.984 656.248C276.514 657.367 275.352 658.841 274.606 660.531C273.859 662.222 273.554 664.074 273.718 665.914C273.093 666.227 272.32 665.638 272.117 664.958C272.016 664.257 271.961 663.55 271.952 662.842C271.796 662.089 271.445 661.391 270.935 660.816C270.425 660.242 269.773 659.811 269.045 659.566C267.663 658.889 266.125 658.597 264.592 658.72Z" fill="#455A64"/>
<path d="M246.671 454.48C247.996 444.47 251.252 430.854 251.252 430.854L254.012 454.112L259.937 514.519C257.888 520.146 256.156 525.884 254.748 531.705C251.749 543.37 252.08 562.985 253.92 575.865C255.76 588.745 259.698 611.818 259.698 611.818C278.466 622.251 293.168 612.444 293.168 612.444C293.168 612.444 297.528 586.463 302.055 549.001C306.581 511.538 308.679 474.389 309.746 443.201C309.746 443.201 314.585 365.608 302.828 312.763C287.096 323.233 241.151 324.208 223.027 309.083C223.027 309.083 215.28 321.154 198.371 348.11C185.086 369.27 187.92 403.898 186.944 432.75C185.436 477.278 184.368 527.565 184.368 527.565C178.317 533.966 172.872 540.914 168.103 548.32C159.639 561.2 154.708 590.125 154.708 590.125C154.708 590.125 162.454 607.77 190.422 609.261C190.422 609.261 218.905 560.464 226.026 549.406C233.147 538.347 245.346 464.471 246.671 454.48Z" fill="#37474F"/>
<path d="M251.252 430.854L262.494 391.81C262.494 391.81 282.109 390.227 297.638 379.445C297.638 379.445 294.124 393.742 267.076 397.256L254.454 435.546V459.246L251.252 430.854Z" fill="#263238"/>
<path d="M315.064 243.414C305.275 227.369 285.311 211.802 278.834 206.393L240.36 205.657C232.797 205.859 221.702 206.54 221.702 206.54C213.588 210.606 213.716 220.561 213.201 229.945C212.612 240.249 212.447 244.775 214.839 261.869L219.439 283.71L220.138 287.058C220.267 287.629 220.377 288.218 220.506 288.898C222.272 297.269 220.966 305.995 216.826 313.481C207.626 330.041 196.825 342.498 193.513 356.537C198.562 355.271 203.204 352.738 207 349.177C212.815 343.896 216.311 341.467 221.021 335.174C221.021 335.174 221.224 344.742 230.387 357.53C232.736 360.81 235.445 363.816 238.464 366.491C255.135 381.211 306.287 388.755 309.139 344.062C309.139 344.062 304.226 315.689 303.527 306.176C305.183 298.025 309.838 283.949 310.022 280.802C322 270.48 322.203 255.098 315.064 243.414Z" fill="#1C1364"/>
<path d="M240.709 213.44C244.389 217.893 253.386 227.81 261.795 229.522C271.676 231.527 281.851 230.681 284.372 224.59C286.893 218.5 282.054 211.14 277.601 206.411L240.359 205.694H237.654C237.526 206.374 236.55 208.27 240.709 213.44Z" fill="#455A64"/>
<path opacity="0.3" d="M213.734 253.331C214.028 255.797 214.378 258.612 214.838 261.869L219.438 283.71L220.137 287.058C220.266 287.629 220.376 288.218 220.505 288.898C221.032 291.626 221.267 294.401 221.204 297.178C258.851 309.838 289.284 303.287 305.715 297.178C307.555 290.168 309.855 282.9 309.984 280.747C314.094 277.353 317.12 272.829 318.686 267.734C320.253 262.639 320.291 257.197 318.798 252.08C310.039 256.588 297.086 259.293 283.691 260.544C260.124 262.77 236.35 260.319 213.734 253.331Z" fill="black"/>
<path opacity="0.1" d="M291.474 278.502C291.474 278.502 278.594 289.34 263.157 284.538C258.846 283.342 254.916 281.057 251.745 277.902C248.574 274.747 246.269 270.828 245.051 266.524C245.051 266.524 244.094 283.949 263.451 289.156C282.182 294.161 291.474 278.502 291.474 278.502Z" fill="black"/>
<path d="M409.584 344.706C409.226 344.281 408.753 343.968 408.222 343.804C388.976 336.205 367.448 343.086 350.686 341.007L350.943 346.748C358.91 351.661 368.754 352.581 378.083 351.845C387.412 351.109 396.575 348.919 405.904 348.073C406.921 348.087 407.923 347.833 408.811 347.337C409.25 347.078 409.574 346.663 409.718 346.174C409.861 345.685 409.813 345.16 409.584 344.706Z" fill="#F28F8F"/>
<path d="M274.436 348.79C269.633 347.686 260.452 343.804 257.195 339.48C251.344 331.697 202.492 257.526 199.493 237.139C197.082 220.726 204.792 206.227 221.701 206.54C232.594 214.452 243.322 244.646 243.322 244.646L281.962 315.578C295.596 321.945 343.307 337.658 351.716 340.234C360.125 342.81 377.273 340.934 388.718 344.577C400.163 348.22 429.088 360.235 423.255 365.663C418.784 369.785 413.963 373.87 405.922 374.458C396.042 375.158 394.882 371.257 384.965 371.018C375.047 370.778 366.786 373.759 356.334 369.693C349.729 367.117 349.434 365.608 340.234 363.382C331.034 361.155 280.655 350.207 274.436 348.79Z" fill="#FFA8A7"/>
<path d="M226.54 206.246C218.003 204.774 206.3 206.043 199.124 217.01C191.948 227.976 198.26 243.193 202.804 253.368C207.349 263.543 222.235 287.04 222.235 287.04C222.235 287.04 254.49 284.703 260.58 268.53C260.58 268.474 240.911 226.467 226.54 206.246Z" fill="#455A64"/>
<path d="M297.086 114.853C302.422 118.33 308.568 132.406 306.617 161.239C304.961 185.674 296.773 191.36 292.707 192.924C288.64 194.488 281.023 193.09 273.608 191.526L272.945 206.246C272.945 206.246 282.145 213.955 281.17 220.653C280.195 227.35 265.144 229.209 255.778 222.198C250.544 218.441 245.915 213.905 242.052 208.748L243.744 170.697C243.744 170.697 238.629 175.959 230.625 170.108C228.994 168.922 227.637 167.399 226.645 165.643C225.653 163.887 225.049 161.938 224.875 159.929C224.7 157.92 224.959 155.896 225.634 153.995C226.308 152.095 227.383 150.361 228.785 148.911C233.79 144.256 242.806 147.2 244.425 154.008C244.425 154.008 255.06 153.824 270.792 144.808C287.904 135.13 292.376 124.936 297.086 114.853Z" fill="#FFA8A7"/>
<path d="M275.191 153.088C275.169 153.69 274.971 154.272 274.621 154.762C274.271 155.252 273.785 155.629 273.223 155.845C272.661 156.062 272.048 156.108 271.46 155.979C270.872 155.849 270.335 155.55 269.915 155.118C269.496 154.686 269.212 154.14 269.1 153.549C268.988 152.957 269.053 152.346 269.286 151.79C269.518 151.235 269.909 150.76 270.409 150.425C270.909 150.09 271.497 149.909 272.099 149.905C272.512 149.907 272.921 149.992 273.301 150.154C273.681 150.316 274.025 150.552 274.313 150.848C274.6 151.144 274.826 151.495 274.977 151.88C275.128 152.264 275.2 152.675 275.191 153.088Z" fill="#263238"/>
<path d="M277.84 174.524L286.562 177.726C286.377 178.311 286.076 178.853 285.677 179.32C285.279 179.786 284.79 180.168 284.24 180.441C283.69 180.714 283.091 180.873 282.478 180.91C281.865 180.946 281.252 180.858 280.674 180.651C279.502 180.193 278.553 179.299 278.025 178.157C277.497 177.015 277.431 175.714 277.84 174.524Z" fill="#F28F8F"/>
<path d="M302.496 145.36L296.461 140.76C296.744 140.358 297.105 140.018 297.522 139.758C297.94 139.498 298.404 139.325 298.89 139.247C299.375 139.17 299.871 139.191 300.348 139.309C300.825 139.426 301.274 139.638 301.668 139.932C302.474 140.559 303.009 141.471 303.163 142.481C303.317 143.491 303.079 144.521 302.496 145.36Z" fill="#263238"/>
<path d="M300.73 152.591C300.742 153.003 300.673 153.412 300.525 153.797C300.378 154.181 300.156 154.532 299.872 154.83C299.587 155.128 299.247 155.366 298.87 155.532C298.493 155.697 298.087 155.786 297.675 155.793C297.037 155.822 296.404 155.66 295.858 155.326C295.313 154.993 294.88 154.504 294.615 153.922C294.35 153.34 294.265 152.692 294.371 152.062C294.478 151.431 294.77 150.847 295.212 150.385C295.653 149.922 296.223 149.602 296.848 149.466C297.472 149.33 298.123 149.385 298.717 149.622C299.311 149.859 299.82 150.269 300.178 150.798C300.537 151.327 300.729 151.952 300.73 152.591Z" fill="#263238"/>
<path d="M285.789 150.162L285.439 168.691L295.32 166.115L285.789 150.162Z" fill="#F28F8F"/>
<path d="M273.608 191.525C265.788 190.127 249.799 184.773 247.572 178.259C248.436 181.539 250.286 184.474 252.871 186.668C257.527 191.029 273.387 196.42 273.387 196.42L273.608 191.525Z" fill="#F28F8F"/>
<path d="M380.99 192.17C380.273 178.351 384.192 174.303 389.123 170.991C394.054 167.679 412.289 162.951 416.061 164.275C419.833 165.6 439.594 175.315 438.656 184.902C437.718 194.488 428.72 196.88 418.766 194.599C408.811 192.317 391.699 181.056 388.038 182.657C384.376 184.258 380.99 192.17 380.99 192.17Z" fill="#FFA8A7"/>
<path d="M609.666 205.546C613.217 203.946 618.48 206.264 626.576 204.59C634.672 202.915 640.081 199.585 644.828 199.198C649.576 198.812 651.581 197.358 646.76 194.69C641.94 192.022 633.531 193.145 631.856 192.501C634.424 190.856 637.229 189.615 640.173 188.821C647.079 187.598 654.044 186.732 661.039 186.226C661.425 186.226 663.983 182.086 652.041 180.43C640.1 178.774 622.601 181.332 616.051 184.81C609.5 188.287 609.666 205.546 609.666 205.546Z" fill="#B16668"/>
<path d="M141.036 169.041C141.078 169.758 140.909 170.472 140.549 171.095C140.19 171.717 139.656 172.221 139.014 172.543C138.372 172.866 137.65 172.993 136.936 172.91C136.222 172.827 135.548 172.536 134.998 172.075C134.447 171.613 134.044 171 133.837 170.312C133.631 169.623 133.63 168.89 133.836 168.201C134.042 167.513 134.445 166.899 134.995 166.437C135.545 165.975 136.219 165.684 136.933 165.6C137.431 165.541 137.935 165.585 138.416 165.729C138.896 165.873 139.342 166.113 139.727 166.435C140.111 166.757 140.425 167.155 140.65 167.603C140.876 168.051 141.007 168.54 141.036 169.041Z" fill="#1C1364"/>
<path d="M149.371 138.626L155.075 143.299L162.14 141.238C162.29 141.192 162.45 141.189 162.602 141.23C162.753 141.271 162.89 141.354 162.996 141.47C163.102 141.585 163.173 141.729 163.201 141.883C163.229 142.038 163.212 142.197 163.152 142.342L160.484 149.206L164.624 155.296C164.716 155.424 164.769 155.576 164.777 155.733C164.785 155.89 164.749 156.046 164.672 156.183C164.594 156.32 164.48 156.432 164.341 156.507C164.202 156.581 164.045 156.614 163.888 156.602L156.528 156.198L152.02 162.012C151.923 162.132 151.795 162.224 151.65 162.277C151.504 162.33 151.347 162.341 151.195 162.311C151.043 162.281 150.903 162.209 150.789 162.105C150.675 162 150.592 161.866 150.548 161.718L148.672 154.56L141.68 152.094C141.534 152.04 141.407 151.947 141.311 151.826C141.215 151.704 141.154 151.559 141.135 151.405C141.116 151.251 141.14 151.095 141.203 150.954C141.267 150.813 141.368 150.692 141.496 150.604L147.696 146.611L147.936 139.251C147.922 139.079 147.962 138.908 148.051 138.76C148.14 138.612 148.272 138.495 148.43 138.427C148.588 138.358 148.764 138.34 148.932 138.376C149.101 138.411 149.254 138.499 149.371 138.626Z" fill="#1C1364"/>
<path d="M806.416 171.617C807.556 171.708 808.618 172.23 809.385 173.077C810.153 173.924 810.568 175.032 810.547 176.175C810.526 177.318 810.07 178.41 809.271 179.228C808.473 180.046 807.393 180.529 806.251 180.578C805.638 180.604 805.027 180.504 804.455 180.286C803.883 180.067 803.361 179.733 802.923 179.305C802.484 178.877 802.138 178.364 801.905 177.797C801.672 177.23 801.558 176.622 801.57 176.009C801.581 175.396 801.718 174.793 801.971 174.235C802.224 173.677 802.59 173.177 803.044 172.765C803.498 172.354 804.031 172.04 804.611 171.842C805.191 171.645 805.805 171.568 806.416 171.617Z" fill="#1C1364"/>
<path d="M758.172 151.671L767.188 142.839L765.035 130.419C764.987 130.155 765.015 129.882 765.114 129.632C765.213 129.382 765.381 129.165 765.598 129.006C765.815 128.847 766.072 128.752 766.34 128.732C766.608 128.711 766.876 128.767 767.115 128.892L778.32 134.743L789.471 128.855C789.708 128.727 789.976 128.668 790.245 128.685C790.515 128.702 790.773 128.794 790.992 128.952C791.211 129.109 791.382 129.325 791.483 129.575C791.585 129.825 791.615 130.098 791.568 130.364L789.36 142.802L798.56 151.598C798.752 151.784 798.887 152.021 798.951 152.28C799.016 152.54 799.006 152.812 798.924 153.067C798.842 153.321 798.69 153.548 798.486 153.72C798.282 153.893 798.033 154.006 797.769 154.045L785.294 155.885L779.774 167.201C779.655 167.441 779.472 167.644 779.244 167.786C779.017 167.928 778.754 168.003 778.486 168.003C778.218 168.003 777.955 167.928 777.727 167.786C777.499 167.644 777.316 167.441 777.198 167.201L771.678 155.885L759.184 154.045C758.915 154.031 758.656 153.942 758.435 153.789C758.215 153.635 758.042 153.422 757.936 153.174C757.831 152.927 757.797 152.655 757.839 152.389C757.88 152.123 757.996 151.874 758.172 151.671Z" fill="#1C1364"/>
<path d="M833.133 325.551L835.838 331.55L842.315 332.746C842.45 332.773 842.575 332.837 842.677 332.931C842.778 333.025 842.852 333.145 842.89 333.278C842.928 333.411 842.929 333.552 842.892 333.685C842.856 333.818 842.783 333.939 842.683 334.034L837.807 338.45L838.671 344.963C838.695 345.102 838.678 345.245 838.623 345.374C838.568 345.504 838.477 345.615 838.361 345.694C838.245 345.773 838.108 345.818 837.968 345.822C837.827 345.826 837.688 345.79 837.568 345.718L831.845 342.443L825.92 345.295C825.795 345.358 825.654 345.385 825.514 345.371C825.374 345.357 825.241 345.303 825.131 345.216C825.021 345.129 824.938 345.012 824.892 344.879C824.846 344.746 824.839 344.603 824.871 344.467L826.215 338.027L821.67 333.279C821.573 333.178 821.507 333.051 821.478 332.914C821.449 332.777 821.459 332.634 821.507 332.502C821.555 332.37 821.638 332.254 821.748 332.167C821.858 332.08 821.991 332.026 822.13 332.01L828.662 331.292L831.79 325.515C831.856 325.393 831.955 325.291 832.076 325.222C832.196 325.153 832.334 325.118 832.473 325.122C832.612 325.126 832.747 325.168 832.863 325.244C832.98 325.319 833.073 325.426 833.133 325.551Z" fill="#1C1364"/>
<path d="M111.173 280.434L121.44 287.647L133.253 283.213C133.51 283.119 133.788 283.101 134.055 283.16C134.321 283.219 134.566 283.353 134.759 283.546C134.952 283.74 135.087 283.984 135.146 284.251C135.205 284.518 135.186 284.796 135.093 285.053L131.413 297.142L139.288 307.004C139.457 307.213 139.563 307.464 139.596 307.731C139.629 307.997 139.586 308.267 139.473 308.511C139.36 308.754 139.181 308.961 138.956 309.107C138.732 309.254 138.471 309.335 138.202 309.341L125.58 309.58L118.625 320.123C118.477 320.347 118.269 320.526 118.024 320.638C117.78 320.749 117.509 320.79 117.243 320.756C116.976 320.721 116.725 320.613 116.517 320.442C116.309 320.272 116.153 320.047 116.067 319.792L111.946 307.869L99.7647 304.52C99.5044 304.449 99.2692 304.307 99.0861 304.109C98.903 303.911 98.7793 303.665 98.7294 303.4C98.6795 303.135 98.7052 302.862 98.8037 302.61C98.9022 302.359 99.0695 302.141 99.2863 301.981L109.351 294.363L108.781 281.759C108.721 281.461 108.758 281.151 108.886 280.875C109.014 280.599 109.227 280.371 109.493 280.223C109.759 280.076 110.065 280.017 110.367 280.055C110.669 280.093 110.951 280.226 111.173 280.434Z" fill="#1C1364"/>
<path d="M815.856 349.876C815.968 350.564 815.802 351.268 815.395 351.834C814.988 352.4 814.373 352.781 813.685 352.894C812.995 353 812.291 352.829 811.726 352.419C811.161 352.009 810.78 351.393 810.667 350.704C810.561 350.016 810.732 349.314 811.143 348.752C811.553 348.19 812.17 347.814 812.857 347.705C813.197 347.647 813.545 347.658 813.88 347.736C814.216 347.815 814.533 347.959 814.812 348.161C815.091 348.363 815.327 348.619 815.507 348.914C815.686 349.208 815.805 349.535 815.856 349.876Z" fill="#1C1364"/>
<path d="M149.04 292.303C149.136 292.887 149.058 293.486 148.814 294.025C148.57 294.565 148.173 295.02 147.671 295.334C147.169 295.648 146.586 295.806 145.994 295.789C145.402 295.772 144.829 295.58 144.346 295.238C143.863 294.895 143.492 294.418 143.28 293.865C143.069 293.312 143.025 292.71 143.155 292.132C143.285 291.555 143.583 291.029 144.011 290.62C144.44 290.212 144.979 289.939 145.562 289.837C145.953 289.768 146.353 289.778 146.74 289.865C147.126 289.952 147.492 290.115 147.815 290.344C148.139 290.574 148.414 290.865 148.624 291.201C148.834 291.537 148.975 291.911 149.04 292.303Z" fill="#1C1364"/>
</svg>
