<svg width="1063" height="1063" viewBox="0 0 1063 1063" fill="none" xmlns="http://www.w3.org/2000/svg">
<path d="M520.849 1019.67C785.093 1019.67 999.305 895.999 999.305 743.441C999.305 590.883 785.093 467.21 520.849 467.21C256.605 467.21 42.3926 590.883 42.3926 743.441C42.3926 895.999 256.605 1019.67 520.849 1019.67Z" fill="#F5F5F5"/>
<path d="M602.742 895.322C651.329 895.322 690.716 872.583 690.716 844.532C690.716 816.481 651.329 793.742 602.742 793.742C554.156 793.742 514.769 816.481 514.769 844.532C514.769 872.583 554.156 895.322 602.742 895.322Z" fill="#E0E0E0"/>
<path d="M831.607 865.239C880.193 865.239 919.58 842.5 919.58 814.449C919.58 786.399 880.193 763.659 831.607 763.659C783.02 763.659 743.633 786.399 743.633 814.449C743.633 842.5 783.02 865.239 831.607 865.239Z" fill="#E0E0E0"/>
<path d="M350.407 971.476C398.994 971.476 438.381 948.736 438.381 920.685C438.381 892.635 398.994 869.895 350.407 869.895C301.821 869.895 262.434 892.635 262.434 920.685C262.434 948.736 301.821 971.476 350.407 971.476Z" fill="#E0E0E0"/>
<path d="M206.222 753.667C206.222 753.667 203.926 699.964 181.412 670.073C158.897 640.181 131.302 635.886 117.632 644.305C107.64 650.428 108.979 668.627 126.263 680.447C143.548 692.268 176.862 722.564 182.071 742.314L206.222 753.667Z" fill="#37474F"/>
<path d="M191.34 745.843C190.976 745.816 190.636 745.647 190.394 745.373C190.151 745.099 190.026 744.742 190.043 744.376C192.361 695.648 149.649 665.268 138.02 659.804C137.686 659.647 137.428 659.365 137.301 659.019C137.173 658.672 137.187 658.29 137.34 657.954C137.501 657.619 137.787 657.36 138.137 657.233C138.486 657.106 138.872 657.121 139.211 657.274C151.138 662.929 195.21 694.245 192.828 744.44C192.806 744.809 192.64 745.154 192.366 745.4C192.091 745.647 191.73 745.776 191.362 745.758L191.34 745.843Z" fill="white"/>
<path d="M195.592 736.702C192.523 736.66 189.571 735.512 187.28 733.47C184.665 730.6 184.877 726.199 183.665 722.5C181.688 716.42 175.693 712.295 169.443 710.998C163.105 710.01 156.627 710.445 150.479 712.274C137.935 715.357 125.881 707.639 113.316 708.553C108.783 708.699 104.374 710.073 100.56 712.529C98.6792 713.773 97.1381 715.467 96.0765 717.456C95.0148 719.446 94.466 721.669 94.4797 723.924C94.9107 727.657 96.7697 731.078 99.6672 733.47C102.573 735.856 105.774 737.857 109.192 739.423L120.226 745.057C122.133 745.904 123.892 747.052 125.434 748.458C126.892 750.02 127.992 751.882 128.656 753.912C129.321 755.943 129.534 758.094 129.282 760.215C128.432 764.467 125.03 767.699 123.946 771.866C122.607 777.329 125.945 783.176 130.749 786.131C135.74 788.833 141.437 789.945 147.077 789.32C152.711 789.001 158.281 787.874 163.915 787.768C167.727 787.496 171.536 788.33 174.885 790.171C178.667 792.909 181.392 796.865 182.602 801.375C183.333 804.267 184.494 807.034 186.047 809.581C187.961 812.001 190.54 813.811 193.466 814.79C199.127 816.874 205.345 816.874 211.006 814.79C215.662 813.004 217.937 807.753 219.68 803.203C221.422 798.44 222.251 793.391 222.125 788.321C221.857 775.289 218.912 762.451 213.472 750.606C210.857 745.163 207.094 739.721 201.311 737.85C199.438 737.316 197.526 736.932 195.592 736.702Z" fill="#455A64"/>
<path d="M207.668 795.124C207.411 795.125 207.16 795.045 206.95 794.897C206.741 794.748 206.583 794.538 206.499 794.295C193.381 756.686 131.323 723.967 108.703 720.204C108.542 720.177 108.388 720.119 108.25 720.033C108.112 719.947 107.992 719.835 107.897 719.703C107.803 719.571 107.735 719.421 107.698 719.262C107.661 719.104 107.656 718.94 107.682 718.779C107.709 718.619 107.767 718.465 107.852 718.327C107.938 718.189 108.051 718.069 108.183 717.974C108.315 717.879 108.465 717.811 108.623 717.775C108.782 717.738 108.946 717.732 109.107 717.759C132.237 721.586 195.528 755.028 209.029 793.466C209.085 793.62 209.111 793.785 209.103 793.95C209.095 794.114 209.054 794.276 208.983 794.425C208.911 794.573 208.811 794.706 208.687 794.815C208.564 794.924 208.42 795.008 208.263 795.06C208.072 795.126 207.869 795.148 207.668 795.124Z" fill="white"/>
<path d="M151.882 774.502C151.644 774.482 151.418 774.394 151.229 774.248C151.041 774.102 150.898 773.905 150.82 773.68C150.741 773.455 150.729 773.212 150.786 772.981C150.842 772.749 150.964 772.539 151.138 772.376C161.285 765.356 173.285 761.502 185.621 761.299C185.923 761.339 186.2 761.487 186.401 761.715C186.602 761.944 186.713 762.238 186.713 762.543C186.713 762.847 186.602 763.141 186.401 763.37C186.2 763.599 185.923 763.747 185.621 763.787C173.821 764.072 162.355 767.764 152.605 774.417C152.377 774.514 152.126 774.544 151.882 774.502Z" fill="white"/>
<path d="M208.347 824.208C207.01 823.299 205.906 822.088 205.123 820.674C204.34 819.259 203.901 817.681 203.84 816.065V373.028C203.933 371.363 204.416 369.742 205.251 368.298C206.085 366.854 207.248 365.627 208.645 364.715L729.855 63.7801C731.24 62.9084 732.837 62.4313 734.473 62.4C736.11 62.3687 737.723 62.7844 739.141 63.6025C740.558 64.4206 741.725 65.6099 742.517 67.0423C743.308 68.4748 743.694 70.096 743.632 71.7313V514.79C743.539 516.455 743.056 518.075 742.221 519.519C741.387 520.963 740.224 522.191 738.827 523.102L217.617 824.038C216.192 824.788 214.612 825.194 213.002 825.223C211.393 825.253 209.799 824.905 208.347 824.208Z" fill="#1C1364"/>
<path d="M216.703 824.442H216.512C216.366 824.529 216.209 824.593 216.044 824.633H215.683C215.469 824.707 215.248 824.757 215.024 824.782C214.881 824.839 214.73 824.875 214.577 824.888L213.854 824.994C211.957 825.251 210.027 824.917 208.327 824.038C206.992 823.133 205.889 821.926 205.11 820.515C204.33 819.103 203.895 817.528 203.841 815.916V429.813L212.855 435.022V821.253C212.855 823.379 213.939 824.697 215.513 824.697C215.724 824.729 215.939 824.729 216.15 824.697C216.347 824.64 216.533 824.554 216.703 824.442Z" fill="#1C1364"/>
<path opacity="0.81" d="M216.703 824.442H216.512C216.366 824.529 216.209 824.593 216.044 824.633H215.683C215.469 824.707 215.248 824.757 215.024 824.782C214.881 824.839 214.73 824.875 214.577 824.888L213.854 824.994C211.957 825.251 210.027 824.917 208.327 824.038C206.992 823.133 205.889 821.926 205.11 820.515C204.33 819.103 203.895 817.528 203.841 815.916V429.813L212.855 435.022V821.253C212.855 823.379 213.939 824.697 215.513 824.697C215.724 824.729 215.939 824.729 216.15 824.697C216.347 824.64 216.533 824.554 216.703 824.442Z" fill="#E0E0E0"/>
<path d="M212.834 435.022L203.819 429.813V515.598L212.834 520.849V435.022Z" fill="#1C1364"/>
<path opacity="0.15" d="M212.834 435.022L203.819 429.813V515.598L212.834 520.849V435.022Z" fill="black"/>
<path d="M214.216 373.496C213.365 374.927 212.889 376.551 212.834 378.215V435.022L203.819 429.813V373.028C203.809 372.837 203.809 372.645 203.819 372.454C203.861 372.054 203.925 371.656 204.011 371.263C204.276 370.223 204.676 369.223 205.201 368.287L214.216 373.496Z" fill="#263238"/>
<path d="M743.632 71.7526V97.3921L361.568 317.965C358.932 319.495 356.785 318.241 356.785 315.201V305.485C356.785 302.445 354.659 301.233 351.98 302.721L235.624 369.924C234.227 370.836 233.065 372.063 232.23 373.507C231.395 374.951 230.912 376.571 230.819 378.237V387.931C230.729 389.595 230.249 391.214 229.418 392.658C228.588 394.102 227.429 395.33 226.036 396.244L212.833 403.94V378.428C212.924 376.765 213.404 375.146 214.234 373.702C215.065 372.258 216.224 371.029 217.617 370.115L738.848 68.9888C741.485 67.4581 743.632 68.6911 743.632 71.7526Z" fill="#FD5D3F"/>
<path d="M743.653 514.811C743.557 516.473 743.073 518.089 742.238 519.529C741.404 520.969 740.242 522.193 738.848 523.102L217.617 824.038C214.981 825.547 212.833 824.314 212.833 821.253V403.94L226.036 396.329C228.672 394.798 232.967 371.54 235.624 370.009L350.024 303.954C352.682 302.424 358.932 319.602 361.568 318.071L743.632 97.3922V514.811H743.653Z" fill="#1C1364"/>
<path opacity="0.9" d="M743.653 514.811C743.557 516.473 743.073 518.089 742.238 519.529C741.404 520.969 740.242 522.193 738.848 523.102L217.617 824.038C214.981 825.547 212.833 824.314 212.833 821.253V403.94L226.036 396.329C228.672 394.798 232.967 371.54 235.624 370.009L350.024 303.954C352.682 302.424 358.932 319.602 361.568 318.071L743.632 97.3922V514.811H743.653Z" fill="white"/>
<g opacity="0.4">
<path opacity="0.4" d="M741.506 101.07V514.811C741.403 516.087 741.012 517.324 740.365 518.428C739.717 519.532 738.828 520.476 737.764 521.189L216.554 822.188C216.232 822.405 215.857 822.53 215.47 822.55C214.981 822.55 214.959 821.487 214.959 821.253V405.067L227.099 398.051C228.97 396.967 230.16 393.246 232.839 383.679C233.812 379.558 235.149 375.531 236.836 371.646L350.301 306.144C351.659 307.995 352.881 309.942 353.957 311.969C357.04 317.369 358.741 320.176 361.207 320.176C361.704 320.174 362.194 320.05 362.631 319.814L741.506 101.07ZM743.632 97.3922L361.568 317.965C361.45 317.994 361.326 317.994 361.207 317.965C358.528 317.965 353.086 303.657 350.386 303.657C350.267 303.626 350.143 303.626 350.024 303.657L235.624 369.924C232.967 371.455 228.672 394.713 226.036 396.244L212.833 403.94V821.253C212.833 823.379 213.918 824.676 215.47 824.676C216.221 824.644 216.952 824.425 217.596 824.038L738.848 523.103C740.242 522.193 741.404 520.969 742.238 519.529C743.073 518.089 743.557 516.473 743.653 514.811V97.3922H743.632Z" fill="#1C1364"/>
</g>
<path d="M212.833 435.022V520.849L743.632 214.428V128.581L212.833 435.022Z" fill="#1C1364"/>
<path d="M743.632 97.3922V128.581L212.833 435.022V403.94L222.677 398.243C225.313 396.712 226.206 394.373 227.46 389.93L230.819 378.322C231.861 374.282 232.945 371.54 235.624 370.009L350.024 303.954C352.682 302.424 354.765 302.254 356.785 305.591L360.888 313.032C362.376 315.647 363.142 317.178 365.778 315.647L743.632 97.3922Z" fill="#F0F0F0"/>
<path d="M721.139 87.8251C724.477 85.9117 727.177 87.4637 727.177 91.3117C727.063 93.4071 726.457 95.4461 725.408 97.2634C724.359 99.0808 722.897 100.625 721.139 101.772C717.823 103.685 715.123 102.133 715.123 98.285C715.237 96.1924 715.841 94.1558 716.886 92.3391C717.931 90.5224 719.388 88.9763 721.139 87.8251Z" fill="#1C1364"/>
<path d="M699.454 100.347C702.77 98.434 705.47 99.986 705.47 103.834C705.356 105.927 704.752 107.963 703.707 109.78C702.662 111.597 701.205 113.143 699.454 114.294C696.116 116.207 693.416 114.655 693.416 110.807C693.53 108.712 694.136 106.673 695.185 104.856C696.234 103.038 697.696 101.494 699.454 100.347Z" fill="#1C1364"/>
<path d="M677.705 112.869C681.021 110.956 683.743 112.508 683.743 116.356C683.624 118.45 683.016 120.487 681.968 122.304C680.919 124.12 679.459 125.666 677.705 126.816C674.367 128.751 671.667 127.177 671.667 123.329C671.781 121.234 672.387 119.195 673.436 117.378C674.485 115.56 675.947 114.016 677.705 112.869Z" fill="#1C1364"/>
<path opacity="0.5" d="M234.816 406.066L227.29 410.318L230.16 404.812C230.274 404.603 230.333 404.369 230.333 404.131C230.333 403.894 230.274 403.66 230.16 403.451C229.948 403.196 229.565 403.451 229.31 403.855L225.228 411.721C225.219 411.82 225.219 411.92 225.228 412.019C225.219 412.153 225.219 412.288 225.228 412.423C225.215 412.543 225.215 412.664 225.228 412.784C225.218 412.84 225.218 412.898 225.228 412.954L229.31 416.101C229.371 416.138 229.441 416.158 229.512 416.158C229.583 416.158 229.653 416.138 229.714 416.101C229.909 415.942 230.062 415.737 230.16 415.506C230.373 414.995 230.352 414.421 230.16 414.23L227.29 412.104L234.816 407.852C235.013 407.699 235.172 407.502 235.279 407.277C235.386 407.052 235.439 406.804 235.433 406.555C235.433 406.066 235.156 405.896 234.816 406.066Z" fill="#455A64"/>
<path opacity="0.5" d="M241.109 402.452L248.635 398.2L245.765 396.074C245.51 395.883 245.489 395.308 245.765 394.798C246.042 394.288 246.36 394.012 246.616 394.203L250.698 397.349C250.751 397.388 250.795 397.439 250.825 397.498C250.847 397.611 250.847 397.726 250.825 397.838C250.847 397.972 250.847 398.109 250.825 398.242C250.825 398.242 250.825 398.242 250.825 398.349C250.792 398.452 250.749 398.551 250.698 398.646L246.616 406.427C246.527 406.618 246.387 406.78 246.212 406.895C246.152 406.954 246.072 406.986 245.988 406.986C245.905 406.986 245.825 406.954 245.765 406.895C245.646 406.688 245.583 406.454 245.583 406.215C245.583 405.976 245.646 405.741 245.765 405.535L248.635 400.007L241.109 404.365C240.769 404.557 240.514 404.365 240.514 403.77C240.501 403.519 240.548 403.268 240.651 403.038C240.755 402.809 240.912 402.608 241.109 402.452Z" fill="#455A64"/>
<path opacity="0.5" d="M265.75 380.767C265.75 380.32 265.303 380.384 265.112 380.873L264.07 383.403C262.306 383.212 260.18 384.913 258.734 387.974C256.884 391.907 256.884 396.478 258.734 398.37C259.188 398.795 259.776 399.048 260.397 399.087C261.017 399.126 261.632 398.948 262.136 398.583C263.639 397.574 264.814 396.148 265.516 394.48C265.634 394.28 265.696 394.052 265.696 393.82C265.696 393.589 265.634 393.361 265.516 393.161C265.261 392.928 264.878 393.161 264.644 393.65C263.262 396.584 260.987 397.902 259.606 396.563C258.224 395.224 258.202 391.737 259.606 388.782C260.584 386.656 262.008 385.444 263.262 385.38L262.476 387.272C262.284 387.761 262.476 388.229 262.773 388.016L265.856 386.018C265.974 385.912 266.066 385.78 266.125 385.632C266.184 385.485 266.208 385.326 266.196 385.168L265.75 380.767Z" fill="#455A64"/>
<path opacity="0.5" d="M346.729 318.092L349.472 312.267C349.632 311.993 349.717 311.681 349.717 311.363C349.717 311.046 349.632 310.734 349.472 310.46C349.153 310.162 348.621 310.46 348.302 311.14L345.56 316.944L342.796 314.308C342.477 313.989 341.946 314.308 341.627 314.988C341.466 315.262 341.381 315.574 341.381 315.892C341.381 316.21 341.466 316.521 341.627 316.795L344.369 319.432L341.627 325.278C341.466 325.552 341.381 325.864 341.381 326.182C341.381 326.499 341.466 326.811 341.627 327.085C341.711 327.154 341.816 327.192 341.924 327.192C342.033 327.192 342.138 327.154 342.222 327.085C342.486 326.921 342.688 326.675 342.796 326.384L345.56 320.558L348.302 323.216C348.383 323.283 348.484 323.32 348.589 323.32C348.694 323.32 348.796 323.283 348.876 323.216C349.141 323.048 349.349 322.803 349.472 322.514C349.632 322.24 349.717 321.928 349.717 321.611C349.717 321.293 349.632 320.981 349.472 320.707L346.729 318.092Z" fill="#455A64"/>
<path d="M275.806 387.91V378.216C275.904 376.552 276.392 374.935 277.23 373.494C278.068 372.054 279.234 370.831 280.632 369.924L711.891 121.182C714.548 119.651 716.695 120.885 716.695 123.946V133.513C716.603 135.178 716.12 136.799 715.285 138.243C714.45 139.687 713.288 140.914 711.891 141.826L280.632 390.695C277.953 392.226 275.806 390.972 275.806 387.91Z" fill="white"/>
<path d="M705.322 142.442C705.21 142.465 705.094 142.465 704.982 142.442C704.757 142.33 704.576 142.145 704.468 141.918C704.36 141.69 704.331 141.433 704.386 141.188L704.854 137.17L702.898 135.767C702.759 135.665 702.647 135.53 702.573 135.374C702.499 135.218 702.464 135.046 702.473 134.874C702.474 134.581 702.539 134.292 702.664 134.028C702.789 133.763 702.971 133.53 703.196 133.343L706.002 131.217C706.096 131.132 706.163 131.021 706.193 130.898L707.448 126.774C707.519 126.473 707.675 126.199 707.897 125.984C708.12 125.769 708.399 125.623 708.702 125.562C708.892 125.555 709.079 125.604 709.241 125.702C709.404 125.8 709.534 125.944 709.616 126.114L710.743 128.538L713.294 127.56C713.474 127.483 713.673 127.465 713.863 127.507C714.054 127.549 714.227 127.649 714.357 127.794C714.525 128.05 714.614 128.349 714.614 128.655C714.614 128.961 714.525 129.26 714.357 129.516L712.231 133.343C712.209 133.455 712.209 133.571 712.231 133.683L712.72 137.148C712.75 137.432 712.715 137.718 712.619 137.987C712.524 138.255 712.369 138.499 712.168 138.7C712.054 138.835 711.91 138.941 711.747 139.007C711.584 139.074 711.407 139.1 711.232 139.083L708.702 138.764L706.257 142.038C706.139 142.168 705.995 142.272 705.833 142.341C705.672 142.411 705.498 142.445 705.322 142.442ZM703.706 134.64L705.662 136.043C705.826 136.18 705.951 136.359 706.022 136.561C706.093 136.763 706.108 136.981 706.066 137.191L705.832 140.507L707.958 137.829C708.079 137.656 708.242 137.517 708.432 137.424C708.622 137.331 708.831 137.287 709.042 137.297L711.572 137.616C711.572 137.616 711.679 137.276 711.572 137.106L711.083 133.641C711.049 133.257 711.131 132.872 711.317 132.535L713.443 128.708L711.105 129.601C710.993 129.65 710.873 129.676 710.751 129.678C710.629 129.68 710.509 129.657 710.396 129.611C710.283 129.566 710.18 129.498 710.094 129.413C710.007 129.327 709.939 129.225 709.893 129.112L708.851 126.986L707.597 131.111C707.492 131.49 707.269 131.825 706.959 132.067L704.152 134.193C703.954 134.283 703.796 134.442 703.706 134.64Z" fill="#E0E0E0"/>
<g opacity="0.5">
<path opacity="0.5" d="M722.308 119.864C721.94 119.868 721.581 119.749 721.288 119.526C720.995 119.304 720.784 118.99 720.689 118.634C720.594 118.278 720.62 117.901 720.763 117.562C720.906 117.223 721.158 116.94 721.479 116.76L734.958 108.979C735.146 108.869 735.355 108.797 735.571 108.767C735.787 108.737 736.007 108.75 736.218 108.806C736.43 108.861 736.628 108.957 736.802 109.089C736.976 109.221 737.122 109.386 737.233 109.574C737.343 109.763 737.415 109.971 737.445 110.187C737.474 110.404 737.461 110.624 737.406 110.835C737.351 111.046 737.254 111.244 737.122 111.418C736.991 111.593 736.826 111.739 736.637 111.849L723.137 119.652C722.884 119.794 722.598 119.867 722.308 119.864Z" fill="#455A64"/>
<path opacity="0.5" d="M722.308 127.666C722.016 127.666 721.728 127.589 721.475 127.444C721.221 127.298 721.01 127.089 720.862 126.837C720.752 126.648 720.681 126.438 720.652 126.221C720.624 126.004 720.639 125.783 720.696 125.571C720.753 125.36 720.852 125.162 720.986 124.988C721.121 124.815 721.288 124.67 721.479 124.562L734.958 116.76C735.337 116.586 735.768 116.559 736.166 116.685C736.564 116.811 736.901 117.081 737.111 117.442C737.321 117.804 737.389 118.23 737.301 118.639C737.213 119.047 736.977 119.408 736.637 119.651L723.137 127.433C722.886 127.581 722.6 127.662 722.308 127.666Z" fill="#455A64"/>
<path opacity="0.5" d="M722.308 135.448C722.016 135.447 721.729 135.371 721.475 135.225C721.221 135.08 721.01 134.871 720.862 134.619C720.753 134.431 720.682 134.223 720.654 134.007C720.625 133.792 720.64 133.572 720.698 133.363C720.755 133.153 720.854 132.956 720.988 132.785C721.122 132.614 721.289 132.471 721.479 132.365L734.958 124.563C735.146 124.452 735.354 124.38 735.571 124.351C735.787 124.321 736.007 124.334 736.218 124.389C736.43 124.445 736.628 124.541 736.802 124.673C736.976 124.805 737.122 124.97 737.232 125.158C737.343 125.346 737.415 125.555 737.445 125.771C737.474 125.987 737.461 126.207 737.406 126.419C737.351 126.63 737.254 126.828 737.122 127.002C736.99 127.176 736.826 127.323 736.637 127.433L723.137 135.235C722.884 135.377 722.598 135.451 722.308 135.448Z" fill="#455A64"/>
</g>
<path d="M212.834 403.834V435.022L203.819 429.814V398.646L212.834 403.834Z" fill="#E0E0E0"/>
<path d="M576.443 256.407C576.346 256.464 576.255 256.475 576.17 256.44C576.097 256.399 576.06 256.314 576.06 256.188L576.097 255.977L580.483 239.814C580.568 239.413 580.78 239.114 581.12 238.915L583.104 237.755C583.42 237.571 583.632 237.622 583.741 237.91L588.127 248.944C588.14 248.979 588.146 249.038 588.146 249.123C588.146 249.249 588.109 249.376 588.036 249.503C587.964 249.63 587.879 249.722 587.782 249.778L586.198 250.704C586.04 250.796 585.919 250.825 585.834 250.79C585.749 250.756 585.695 250.696 585.67 250.612L584.815 248.54L579.409 251.7L578.554 254.772C578.457 255.096 578.281 255.333 578.026 255.482L576.443 256.407ZM584.178 246.488L582.103 241.186L580.046 248.903L584.178 246.488ZM594.868 245.846C593.618 246.577 592.648 246.645 591.956 246.052V246.832C591.956 246.972 591.914 247.117 591.829 247.265C591.756 247.406 591.653 247.515 591.519 247.593L590.081 248.434C589.96 248.505 589.857 248.516 589.772 248.467C589.687 248.418 589.645 248.324 589.645 248.183V234.227C589.645 234.072 589.687 233.928 589.772 233.794C589.857 233.646 589.96 233.536 590.081 233.465L591.628 232.561C591.762 232.483 591.865 232.472 591.938 232.527C592.023 232.562 592.065 232.657 592.065 232.811V237.492C592.757 236.16 593.691 235.15 594.868 234.462C596.094 233.745 597.034 233.659 597.689 234.204C598.344 234.748 598.696 235.744 598.745 237.192C598.757 237.353 598.763 237.575 598.763 237.856C598.763 238.151 598.757 238.386 598.745 238.562C598.696 240.109 598.344 241.53 597.689 242.827C597.034 244.123 596.094 245.13 594.868 245.846ZM594.195 243.984C595.505 243.218 596.203 241.875 596.288 239.957C596.3 239.809 596.306 239.594 596.306 239.313C596.306 239.032 596.3 238.825 596.288 238.692C596.203 236.872 595.505 236.345 594.195 237.111C593.515 237.508 592.993 238.066 592.629 238.785C592.278 239.483 592.09 240.19 592.065 240.907L592.047 241.719L592.065 242.53C592.102 243.268 592.29 243.798 592.629 244.119C592.969 244.441 593.491 244.396 594.195 243.984ZM604.975 239.938C603.555 240.768 602.457 240.988 601.68 240.599C600.904 240.195 600.485 239.274 600.424 237.833L600.406 236.916L600.424 235.978C600.485 234.481 600.91 233.073 601.698 231.755C602.487 230.436 603.579 229.369 604.975 228.553C606.37 227.738 607.462 227.528 608.251 227.924C609.039 228.32 609.464 229.232 609.525 230.658C609.537 230.819 609.543 231.125 609.543 231.575C609.543 232.025 609.537 232.337 609.525 232.513C609.464 234.024 609.045 235.436 608.269 236.747C607.492 238.044 606.394 239.108 604.975 239.938ZM604.975 237.851C605.618 237.475 606.115 236.952 606.467 236.283C606.819 235.599 607.013 234.79 607.049 233.855C607.062 233.707 607.068 233.43 607.068 233.022C607.068 232.614 607.062 232.344 607.049 232.21C607.013 231.318 606.819 230.743 606.467 230.485C606.115 230.213 605.618 230.265 604.975 230.64C604.331 231.016 603.834 231.546 603.482 232.23C603.13 232.899 602.936 233.702 602.9 234.636L602.881 235.469L602.9 236.281C602.936 237.173 603.13 237.755 603.482 238.028C603.834 238.286 604.331 238.227 604.975 237.851ZM615.072 234.035C613.956 234.687 613.076 234.78 612.433 234.313C611.79 233.831 611.468 232.86 611.468 231.398V225.474C611.468 225.333 611.511 225.189 611.596 225.041C611.681 224.893 611.784 224.783 611.905 224.712L613.507 223.776C613.64 223.698 613.744 223.687 613.816 223.743C613.901 223.777 613.944 223.872 613.944 224.027V229.824C613.944 231.567 614.605 232.052 615.928 231.279C616.559 230.91 617.056 230.387 617.42 229.711C617.796 229.027 617.984 228.277 617.984 227.462V221.664C617.984 221.524 618.027 221.38 618.112 221.232C618.197 221.084 618.3 220.974 618.421 220.903L620.023 219.967C620.156 219.889 620.259 219.878 620.332 219.933C620.417 219.968 620.459 220.063 620.459 220.217V230.168C620.459 230.309 620.417 230.453 620.332 230.601C620.259 230.742 620.156 230.852 620.023 230.93L618.548 231.792C618.427 231.863 618.324 231.874 618.239 231.825C618.154 231.776 618.112 231.682 618.112 231.541V230.677C617.432 232.128 616.419 233.247 615.072 234.035ZM627.141 226.768C626.037 227.414 625.205 227.569 624.647 227.235C624.101 226.88 623.828 226.056 623.828 224.762V219.977L622.39 220.817C622.269 220.888 622.166 220.899 622.081 220.851C621.996 220.788 621.954 220.686 621.954 220.546V219.344C621.954 219.203 621.996 219.059 622.081 218.911C622.166 218.763 622.269 218.653 622.39 218.583L623.828 217.742V214.242C623.828 214.088 623.871 213.943 623.956 213.809C624.041 213.661 624.144 213.552 624.265 213.481L625.739 212.619C625.873 212.541 625.976 212.53 626.049 212.586C626.134 212.62 626.176 212.715 626.176 212.87V216.369L628.451 215.039C628.585 214.961 628.688 214.95 628.761 215.006C628.846 215.041 628.888 215.135 628.888 215.29V216.492C628.888 216.646 628.846 216.798 628.761 216.946C628.676 217.094 628.573 217.203 628.451 217.274L626.176 218.604V223.179C626.176 223.783 626.267 224.187 626.449 224.39C626.631 224.593 626.935 224.57 627.359 224.322L628.615 223.587C628.736 223.516 628.84 223.505 628.924 223.554C629.009 223.603 629.052 223.697 629.052 223.838V225.145C629.052 225.286 629.009 225.43 628.924 225.578C628.852 225.719 628.748 225.828 628.615 225.906L627.141 226.768ZM638.338 220.433C637.222 221.086 636.342 221.178 635.699 220.711C635.056 220.229 634.735 219.258 634.735 217.796V211.872C634.735 211.731 634.777 211.587 634.862 211.439C634.947 211.291 635.05 211.182 635.171 211.111L636.773 210.174C636.906 210.096 637.01 210.085 637.082 210.141C637.167 210.176 637.21 210.27 637.21 210.425V216.223C637.21 217.965 637.871 218.45 639.194 217.677C639.825 217.308 640.322 216.785 640.686 216.109C641.062 215.425 641.25 214.676 641.25 213.86V208.063C641.25 207.922 641.293 207.778 641.378 207.63C641.463 207.482 641.566 207.372 641.687 207.301L643.289 206.365C643.422 206.287 643.525 206.276 643.598 206.332C643.683 206.366 643.726 206.461 643.726 206.616V216.567C643.726 216.707 643.683 216.852 643.598 217C643.525 217.14 643.422 217.25 643.289 217.328L641.815 218.19C641.693 218.261 641.59 218.272 641.505 218.223C641.42 218.174 641.378 218.08 641.378 217.939V217.075C640.698 218.526 639.685 219.646 638.338 220.433ZM649.715 213.782C648.805 214.314 648.041 214.606 647.422 214.659C646.803 214.697 646.342 214.594 646.039 214.35C645.748 214.084 645.602 213.797 645.602 213.488C645.602 213.347 645.644 213.21 645.729 213.076C645.814 212.942 645.911 212.843 646.021 212.779L647.458 211.939C647.568 211.875 647.659 211.871 647.731 211.927C647.78 211.941 647.907 211.993 648.114 212.083C648.32 212.187 648.563 212.221 648.842 212.184C649.121 212.148 649.43 212.03 649.77 211.831C650.255 211.548 650.656 211.201 650.971 210.792C651.287 210.382 651.444 209.981 651.444 209.588C651.444 209.292 651.372 209.096 651.226 208.998C651.092 208.894 650.844 208.877 650.48 208.95C650.116 209.008 649.576 209.162 648.86 209.412C647.828 209.762 647.064 209.822 646.567 209.593C646.081 209.357 645.839 208.81 645.839 207.952C645.839 207.39 645.984 206.778 646.275 206.116C646.567 205.44 646.997 204.78 647.568 204.138C648.15 203.474 648.842 202.908 649.642 202.44C650.455 201.965 651.159 201.708 651.754 201.669C652.348 201.617 652.797 201.713 653.101 201.957C653.416 202.18 653.574 202.454 653.574 202.777C653.574 202.903 653.531 203.041 653.446 203.189C653.374 203.315 653.283 203.411 653.173 203.475L651.827 204.262C651.729 204.319 651.626 204.33 651.517 204.295C651.432 204.275 651.299 204.219 651.117 204.129C650.935 204.039 650.722 204.008 650.48 204.038C650.237 204.067 649.952 204.177 649.624 204.369C649.175 204.631 648.823 204.95 648.569 205.323C648.326 205.69 648.205 206.056 648.205 206.422C648.205 206.689 648.265 206.871 648.387 206.969C648.508 207.067 648.745 207.09 649.096 207.039C649.448 206.988 649.976 206.834 650.68 206.577C651.845 206.163 652.676 206.092 653.173 206.363C653.683 206.627 653.938 207.167 653.938 207.982C653.938 208.966 653.568 209.984 652.828 211.035C652.087 212.086 651.05 213.002 649.715 213.782Z" fill="#FD5D3F"/>
<path opacity="0.1" d="M235.858 541.088L382.659 456.325V695.649L235.433 780.178L235.858 541.088Z" fill="#1C1364"/>
<path opacity="0.15" d="M415.016 442.059L592.112 339.82C595.684 337.694 598.49 339.31 598.49 343.285C598.357 345.485 597.711 347.623 596.603 349.527C595.496 351.432 593.958 353.052 592.112 354.256L414.995 457.643C411.445 459.769 408.617 458.068 408.617 453.965V453.221C408.737 450.989 409.378 448.817 410.489 446.879C411.601 444.94 413.151 443.29 415.016 442.059Z" fill="#1C1364"/>
<path opacity="0.1" d="M413.167 473.035L706.215 303.848C708.766 302.381 710.828 303.423 710.828 306.165C710.716 307.714 710.239 309.215 709.438 310.545C708.636 311.874 707.532 312.996 706.215 313.819L413.167 483.006C410.637 484.473 408.575 483.431 408.575 480.689C408.686 479.142 409.16 477.644 409.958 476.314C410.756 474.985 411.855 473.861 413.167 473.035Z" fill="#1C1364"/>
<path opacity="0.1" d="M413.167 493.062L706.215 323.875C708.766 322.408 710.828 323.45 710.828 326.192C710.716 327.741 710.239 329.241 709.438 330.571C708.636 331.901 707.532 333.023 706.215 333.846L413.167 503.033C410.637 504.5 408.575 503.458 408.575 500.694C408.69 499.151 409.165 497.657 409.962 496.332C410.76 495.006 411.858 493.886 413.167 493.062Z" fill="#1C1364"/>
<path opacity="0.1" d="M413.167 513.068L706.215 343.881C708.766 342.414 710.828 343.455 710.828 346.219C710.713 347.764 710.235 349.26 709.433 350.586C708.632 351.912 707.529 353.031 706.215 353.851L413.167 522.996C410.637 524.463 408.575 523.421 408.575 520.657C408.699 519.123 409.179 517.638 409.976 516.321C410.773 515.004 411.865 513.89 413.167 513.068Z" fill="#1C1364"/>
<path opacity="0.1" d="M413.167 533.095L706.215 363.908C708.766 362.441 710.828 363.482 710.828 366.225C710.716 367.774 710.239 369.274 709.438 370.604C708.636 371.934 707.532 373.056 706.215 373.878L413.167 543.066C410.637 544.532 408.575 543.491 408.575 540.748C408.686 539.202 409.16 537.703 409.958 536.374C410.756 535.044 411.855 533.921 413.167 533.095Z" fill="#1C1364"/>
<path opacity="0.1" d="M413.167 553.121L617.646 434.065C620.175 432.598 622.238 433.64 622.238 436.404C622.123 437.947 621.648 439.441 620.85 440.767C620.052 442.092 618.955 443.212 617.646 444.036L413.167 563.092C410.637 564.559 408.575 563.518 408.575 560.754C408.69 559.211 409.165 557.717 409.962 556.391C410.76 555.065 411.858 553.946 413.167 553.121Z" fill="#1C1364"/>
<path opacity="0.1" d="M413.167 593.154L706.215 423.967C708.766 422.5 710.828 423.542 710.828 426.284C710.716 427.833 710.239 429.334 709.438 430.664C708.636 431.993 707.532 433.115 706.215 433.938L413.167 603.125C410.637 604.592 408.575 603.55 408.575 600.808C408.686 599.261 409.16 597.763 409.958 596.433C410.756 595.104 411.855 593.98 413.167 593.154Z" fill="#1C1364"/>
<path opacity="0.1" d="M413.167 613.181L706.215 443.994C708.766 442.527 710.828 443.569 710.828 446.311C710.716 447.86 710.239 449.36 709.438 450.69C708.636 452.02 707.532 453.142 706.215 453.965L413.167 623.152C410.637 624.619 408.575 623.577 408.575 620.813C408.69 619.27 409.165 617.776 409.962 616.451C410.76 615.125 411.858 614.005 413.167 613.181Z" fill="#1C1364"/>
<path opacity="0.1" d="M413.167 633.187L706.215 464C708.766 462.533 710.828 463.574 710.828 466.338C710.713 467.883 710.235 469.379 709.433 470.705C708.632 472.031 707.529 473.15 706.215 473.971L413.167 643.179C410.637 644.646 408.575 643.604 408.575 640.84C408.69 639.295 409.165 637.797 409.962 636.468C410.76 635.139 411.857 634.015 413.167 633.187Z" fill="#1C1364"/>
<path opacity="0.1" d="M413.167 653.213L520.87 590.369C523.4 588.902 525.462 589.944 525.462 592.707C525.347 594.25 524.872 595.744 524.074 597.07C523.277 598.396 522.179 599.516 520.87 600.34L413.188 663.184C410.658 664.651 408.596 663.61 408.596 660.867C408.705 659.322 409.176 657.825 409.969 656.496C410.763 655.166 411.859 654.042 413.167 653.213Z" fill="#1C1364"/>
<path d="M804.776 538.303C820.36 487.747 835.518 454.432 820.062 444.121C805.69 446.8 799.248 453.922 796.187 472.886C792.977 492.764 786.301 520.487 782.411 536.475C779.048 549.835 774.236 562.789 768.06 575.104C767.129 576.81 765.622 578.129 763.808 578.825C759.003 580.717 756.707 583.077 752.795 585.968C749.713 588.094 747.459 588.392 747.608 589.306C747.86 590.332 748.505 591.218 749.403 591.774C750.301 592.331 751.382 592.513 752.413 592.282C754.722 591.846 756.971 591.132 759.11 590.156C757.271 594.815 754.408 599 750.733 602.402C743.186 608.78 744.355 615.009 756.452 615.732C760.704 615.987 770.845 612.033 780.178 596.152C783.334 590.232 786.111 584.118 788.491 577.847C794.996 561.562 801.651 548.508 804.776 538.303Z" fill="#FFA8A7"/>
<path d="M822.762 443.526C822.762 443.526 810.771 442.909 803.5 450.924C796.23 458.94 787.768 506.817 787.768 506.817C787.768 506.817 795.719 517.745 816.682 513.195L822.762 443.526Z" fill="#1C1364"/>
<path opacity="0.3" d="M822.762 443.526C822.762 443.526 810.771 442.909 803.5 450.924C796.23 458.94 787.768 506.817 787.768 506.817C787.768 506.817 795.719 517.745 816.682 513.195L822.762 443.526Z" fill="black"/>
<path d="M878.91 783.176H862.816V811.877H878.91V783.176Z" fill="#FFA8A7"/>
<path d="M823.102 781.645L807.008 782.241L806.2 751.86L823.102 751.286V781.645Z" fill="#FFA8A7"/>
<path d="M881.185 534.689C881.185 550.698 878.825 679.534 878.825 679.534C879.186 684.147 883.332 692.651 882.439 710.339C881.227 734.363 879.59 797.505 879.59 797.505C876.828 798.927 873.779 799.701 870.673 799.767C867.568 799.834 864.488 799.191 861.668 797.888C861.668 797.888 846.446 710.403 843.576 686.571C841.046 665.8 836.772 595.812 836.772 595.812L828.056 677.174C829.913 685.931 830.585 694.898 830.054 703.834C829.289 714.847 824.123 772.227 824.123 772.227C821.34 773.867 818.221 774.851 815.001 775.106C811.782 775.36 808.547 774.877 805.541 773.694C805.541 773.694 796.378 687.294 796.187 677.174C795.974 665.651 801.545 534.498 801.545 534.498L881.185 534.689Z" fill="#37474F"/>
<path d="M862.816 803.628V801.226C861.264 801.927 857.693 816.108 851.315 822.231C846.233 827.036 839.303 832.606 837.538 837.984C835.774 843.363 847.19 846.68 851.931 845.808C857.437 844.788 867.004 840.748 869.386 836.985C871.767 833.222 872.915 827.716 874.871 824.973C876.827 822.231 881.249 819.169 882.354 815.98C882.949 814.237 882.354 810.41 881.44 807.179C880.526 803.947 879.888 800.949 878.91 801.226V803.054C876.653 804.926 873.805 805.936 870.874 805.903C868.514 805.967 862.795 805.478 862.816 803.628Z" fill="#263238"/>
<path d="M806.838 777.053C806.009 777.053 805.329 778.307 803.479 780.391C800.747 783.273 797.549 785.673 794.019 787.492C787.981 790.638 776.267 795.464 770.952 797.952C767.656 799.504 767.805 803.671 771.228 806.052C774.651 808.433 782.921 810.134 792.849 807.816C798.249 806.562 805.308 801.438 809.751 801.63C814.194 801.821 822.507 801.864 825.845 799.504C829.183 797.144 827.822 792.105 826.887 787.768C825.866 783.048 824.612 775.671 823.102 775.99V777.627C821.168 780.667 811.175 781.879 806.923 779.753L806.838 777.053Z" fill="#263238"/>
<path d="M836.772 595.833C828.396 593.098 820.74 588.521 814.364 582.439C814.364 582.439 818.616 590.943 831.542 598.724L828.8 671.391L836.772 595.833Z" fill="#263238"/>
<path d="M872.808 447.353C872.808 447.353 885.394 448.522 884.501 472.503L881.716 510.771V568.173C869.874 581.588 817.405 580.589 799.44 567.089C799.44 567.089 801.46 499.206 802.671 473.077C803.543 454.517 807.816 445.163 826.057 443.122L848.487 444.1L872.808 447.353Z" fill="#1C1364"/>
<path opacity="0.3" d="M837.027 459.939L834.136 480.093L827.418 479.966L835.008 481.178L837.027 459.939Z" fill="black"/>
<path d="M853.823 393.31C853.954 399.799 851.504 406.074 847.012 410.758C842.519 415.442 836.351 418.151 829.863 418.29C816.618 418.29 806.477 407.086 805.882 393.331C804.84 368.946 816.618 368.351 829.863 368.351C836.348 368.49 842.512 371.197 847.004 375.876C851.496 380.555 853.948 386.825 853.823 393.31Z" fill="#263238"/>
<path d="M867.408 405.662C867.408 405.662 863.73 423.648 862.263 426.603C861.314 428.406 859.696 429.765 857.756 430.388L858.011 417.738L867.408 405.662Z" fill="#263238"/>
<path d="M862.859 379.895C862.859 379.895 865.495 379.236 868.301 383.615C870.704 387.357 871.256 395.776 867.472 405.662L860.562 406.491L862.859 379.895Z" fill="#263238"/>
<path d="M858.479 406.491C859.861 407.363 861.838 404.578 863.56 402.707C865.282 400.836 870.852 398.306 873.659 404.408C876.465 410.509 871.192 418.886 866.792 420.332C859.202 422.819 858.075 417.738 858.075 417.738L857.48 446.226C847.424 461.81 824.612 461.236 832.818 445.482V436.808C829.44 437.37 826.011 437.555 822.592 437.361C817.022 436.447 813.514 431.876 811.813 425.583C809.092 415.484 808.072 407.342 810.368 387.464C812.919 365.672 837.24 365.481 850.4 374.176C863.56 382.871 858.479 406.491 858.479 406.491Z" fill="#FFA8A7"/>
<path d="M857.607 439.848C855.268 444.635 851.908 448.851 847.764 452.2C844.242 454.802 840.155 456.536 835.837 457.26C839.4 459.674 842.319 462.922 844.341 466.721C846.871 472.248 864.58 457.005 864.41 446.184C864.41 446.184 861.647 435.32 857.82 434.639L857.607 439.848Z" fill="#263238"/>
<path d="M835.837 457.26C835.837 457.26 830.373 454.56 832.818 445.482V436.808L830.416 437.127C827.616 439.855 825.629 443.307 824.675 447.098C824.123 449.585 822.762 462.171 825.164 464.659C827.567 467.146 830.926 457.94 835.837 457.26Z" fill="#263238"/>
<path d="M849.167 382.68C849.788 382.544 850.435 382.581 851.038 382.786C853.164 383.722 853.546 390.142 853.908 391.992C855.12 398.221 856.14 408.787 858.479 408.83C859.18 408.83 861.838 404.259 863.56 402.622C865.962 400.347 862.858 379.81 862.858 379.81C863.492 378.036 863.612 376.12 863.206 374.281C862.8 372.442 861.884 370.755 860.562 369.414C856.31 364.481 849.464 363.376 843.278 363.036C835.986 362.632 828.587 363.184 821.401 361.59C819.144 360.963 816.851 360.473 814.534 360.123C814.437 360.081 814.332 360.06 814.226 360.06C814.12 360.06 814.015 360.081 813.918 360.123C813.684 360.314 813.726 360.676 813.79 360.973C814.24 363.126 815 365.203 816.044 367.139C811.766 366.801 807.542 365.966 803.458 364.651C803.223 364.578 802.97 364.578 802.735 364.651C802.246 364.8 802.161 365.438 802.203 365.948C802.48 371.093 804.925 378.874 809.113 381.893C812.826 384.324 817.136 385.685 821.571 385.826C832.839 386.252 839.77 383.87 849.167 382.68Z" fill="#263238"/>
<path d="M862.859 380.979L871.256 376.281C871 375.702 870.625 375.184 870.157 374.759C869.689 374.333 869.137 374.01 868.537 373.81C867.936 373.61 867.301 373.537 866.671 373.597C866.041 373.656 865.431 373.846 864.878 374.155C863.761 374.844 862.937 375.922 862.565 377.181C862.192 378.44 862.297 379.792 862.859 380.979Z" fill="#263238"/>
<path d="M832.839 436.808C832.839 436.808 845.276 434.193 849.635 431.791C852.217 430.371 854.313 428.208 855.651 425.583C855.003 428.222 853.84 430.707 852.228 432.896C849.061 437.148 832.839 440.252 832.839 440.252V436.808Z" fill="#F28F8F"/>
<path d="M835.837 403.259C835.882 403.739 836.066 404.195 836.365 404.572C836.664 404.949 837.067 405.231 837.523 405.384C837.98 405.537 838.471 405.554 838.937 405.434C839.403 405.313 839.824 405.059 840.149 404.704C840.474 404.348 840.689 403.906 840.767 403.431C840.846 402.956 840.785 402.469 840.592 402.027C840.398 401.586 840.081 401.211 839.679 400.947C839.276 400.682 838.806 400.54 838.324 400.538C837.981 400.549 837.643 400.628 837.331 400.772C837.018 400.916 836.738 401.12 836.506 401.374C836.274 401.628 836.096 401.925 835.981 402.249C835.866 402.573 835.817 402.916 835.837 403.259Z" fill="#263238"/>
<path d="M839.77 392.502L845.106 395.563C845.492 394.827 845.595 393.975 845.395 393.168C845.195 392.361 844.707 391.655 844.022 391.184C843.665 390.955 843.262 390.808 842.842 390.751C842.422 390.694 841.995 390.73 841.59 390.855C841.185 390.981 840.812 391.193 840.498 391.478C840.184 391.762 839.935 392.112 839.77 392.502Z" fill="#263238"/>
<path d="M833.966 421.203L828.269 423.329C828.381 423.721 828.573 424.085 828.832 424.399C829.091 424.714 829.412 424.971 829.775 425.157C830.137 425.342 830.534 425.451 830.941 425.477C831.347 425.503 831.755 425.445 832.138 425.307C832.896 424.969 833.501 424.363 833.839 423.606C834.177 422.848 834.222 421.992 833.966 421.203Z" fill="#F28F8F"/>
<path d="M812.94 394.777L817.808 390.865C817.589 390.522 817.299 390.23 816.958 390.008C816.617 389.786 816.233 389.639 815.831 389.577C815.429 389.514 815.018 389.538 814.626 389.647C814.234 389.755 813.869 389.946 813.556 390.206C812.906 390.757 812.484 391.529 812.37 392.373C812.256 393.217 812.459 394.074 812.94 394.777Z" fill="#263238"/>
<path d="M815.087 402.516C815.073 402.855 815.126 403.194 815.244 403.513C815.361 403.832 815.541 404.125 815.772 404.374C816.004 404.623 816.282 404.824 816.591 404.964C816.901 405.105 817.235 405.183 817.575 405.194C818.291 405.194 818.977 404.91 819.484 404.404C819.99 403.897 820.275 403.211 820.275 402.494C820.275 401.778 819.99 401.092 819.484 400.585C818.977 400.079 818.291 399.794 817.575 399.794C816.887 399.833 816.241 400.139 815.776 400.648C815.311 401.157 815.064 401.827 815.087 402.516Z" fill="#263238"/>
<path d="M828.439 400.432L828.141 416.186L819.19 414.124L828.439 400.432Z" fill="#F28F8F"/>
<path d="M897.3 416.271C900.893 411.508 908.164 422.075 911.523 429.367C914.882 436.659 914.946 440.784 912.182 443.675C909.418 446.566 904.209 444.823 899.001 437.913C893.792 431.004 895.238 419.779 897.3 416.271Z" fill="#1C1364"/>
<path opacity="0.5" d="M897.3 416.271C900.893 411.508 908.164 422.075 911.523 429.367C914.882 436.659 914.946 440.784 912.182 443.675C909.418 446.566 904.209 444.823 899.001 437.913C893.792 431.004 895.238 419.779 897.3 416.271Z" fill="black"/>
<path d="M922.684 417.674C909.928 447.438 892.176 464.212 884.203 483.367C873.765 482.666 865.622 457.43 873.403 446.651C873.403 446.651 903.975 413.55 906.739 400.538C909.205 388.994 912.501 369.945 912.224 360.144C912.115 358.548 911.445 357.042 910.332 355.892C907.122 352.427 907.122 349.663 905.06 345.858C903.465 342.881 901.7 341.776 902.211 341.096C902.872 340.388 903.775 339.956 904.74 339.885C905.706 339.814 906.662 340.11 907.419 340.713C908.895 341.792 910.218 343.065 911.353 344.497C911.745 340.675 911.122 336.818 909.545 333.314C905.995 325.278 906.867 321.196 917.688 324.045C924.491 325.852 928.743 331.507 929.764 347.814C930.236 354.6 930.279 361.41 929.891 368.202C928.701 380.767 927.957 393.863 926.405 404.344C925.735 408.927 924.485 413.407 922.684 417.674Z" fill="#FFA8A7"/>
<path d="M870.215 447.013L897.172 416.186C897.172 416.186 893.962 423.691 900.978 434.639C907.994 445.588 912.161 443.675 912.161 443.675C912.161 443.675 896.237 466.912 891.985 474.693C887.733 482.474 883.29 489.044 883.29 489.044C882.819 489.951 882.088 490.698 881.19 491.186C880.292 491.675 879.269 491.884 878.251 491.786C874.297 491.786 863.816 474.226 870.215 447.013Z" fill="#1C1364"/>
<path opacity="0.3" d="M870.215 447.013L897.172 416.186C897.172 416.186 893.962 423.691 900.978 434.639C907.994 445.588 912.161 443.675 912.161 443.675C912.161 443.675 896.237 466.912 891.985 474.693C887.733 482.474 883.29 489.044 883.29 489.044C882.819 489.951 882.088 490.698 881.19 491.186C880.292 491.675 879.269 491.884 878.251 491.786C874.297 491.786 863.816 474.226 870.215 447.013Z" fill="black"/>
<path d="M651.449 516.299L664.141 533.201L650.493 548.827L632.911 528.268L651.449 516.299Z" fill="#F28F8F"/>
<path d="M609.886 477.861C620.962 478.371 626.235 479.987 632.039 486.918C637.843 493.849 666.841 535.752 666.841 535.752C666.841 535.752 661.718 550.124 650.492 548.891L630.104 527.865L609.886 477.861Z" fill="#455A64"/>
<path d="M555.545 828.906C554.757 833.314 554.331 837.78 554.27 842.257C554.121 850.336 552.633 853.227 552.441 859.861C552.207 867.45 553.526 870.299 556.693 874.551C559.861 878.803 567.855 882.694 571.278 875.487C574.701 868.28 574.254 863.56 573.149 856.098C572.043 848.635 571.873 844.149 571.235 838.282C570.64 833.094 569.96 829.161 569.96 829.161L555.545 828.906Z" fill="#263238"/>
<path d="M578.527 765.36L551.846 764.871C552.25 782.687 555.078 812.323 555.545 829.012C555.545 832.159 555.545 853.44 556.651 859.925C558.437 869.64 569.96 868.322 570.576 862.518C571.193 856.714 569.832 831.84 569.875 829.268C569.768 818.638 574.786 790.617 577.422 771.377C577.549 770.335 578.4 766.168 578.527 765.36Z" fill="#FFBDA7"/>
<path d="M617.709 815.066C617.709 815.066 616.349 815.066 616.115 816.256C615.881 817.447 615.796 819.7 615.243 821.911C614.337 825.377 614.02 828.971 614.308 832.541C614.754 835.029 620.431 838.728 624.321 839.387C628.212 840.046 633.676 843.873 636.716 846.743C641.598 850.773 647.638 853.141 653.958 853.504C660.336 853.504 664.949 851.378 667.075 847.891C669.201 844.404 665.141 844 657.742 839.196L651.981 835.454C640.266 827.8 635.972 823.697 632.655 816.044L617.709 815.066Z" fill="#263238"/>
<path d="M632.741 810.899C632.549 805.371 635.356 764.765 635.356 764.765L612.416 767.358C617.859 799.716 618.284 810.75 617.667 815.47C617.552 815.907 617.502 816.358 617.518 816.809C617.518 823.187 624.64 826.504 630.274 830.692C632.4 832.35 638.077 837.453 644.667 839.685C648.919 841.152 656.807 841.811 657.806 839.111C651.088 833.966 641.904 827.248 636.546 821.359C633.91 818.51 632.932 816.384 632.741 810.899Z" fill="#FFBDA7"/>
<path d="M558.033 581.163C545.532 608.504 558.501 704.769 558.501 704.769C558.118 709.212 553.037 717.929 551.166 737.467C548.934 760.513 555.269 822.273 555.269 822.273C557.503 823.628 560.055 824.371 562.667 824.427C565.28 824.483 567.861 823.85 570.151 822.592C570.151 822.592 586.287 731.854 589.285 708.936C591.815 688.909 596.662 644.901 596.662 644.901L610.439 708.808C608.419 715.262 606.953 721.877 606.059 728.58C604.762 742.059 617.901 809.772 617.901 809.772C620.269 810.75 622.812 811.228 625.373 811.177C627.934 811.125 630.457 810.546 632.783 809.474C632.783 809.474 638.587 722.011 639.82 705.768C641.946 678.47 634.611 593.324 629.615 577.166L558.033 581.163Z" fill="#1C1364"/>
<path opacity="0.5" d="M558.033 581.163C545.532 608.504 558.501 704.769 558.501 704.769C558.118 709.212 553.037 717.929 551.166 737.467C548.934 760.513 555.269 822.273 555.269 822.273C557.503 823.628 560.055 824.371 562.667 824.427C565.28 824.483 567.861 823.85 570.151 822.592C570.151 822.592 586.287 731.854 589.285 708.936C591.815 688.909 596.662 644.901 596.662 644.901L610.439 708.808C608.419 715.262 606.953 721.877 606.059 728.58C604.762 742.059 617.901 809.772 617.901 809.772C620.269 810.75 622.812 811.228 625.373 811.177C627.934 811.125 630.457 810.546 632.783 809.474C632.783 809.474 638.587 722.011 639.82 705.768C641.946 678.47 634.611 593.324 629.615 577.166L558.033 581.163Z" fill="black"/>
<path opacity="0.2" d="M596.62 644.901L600.68 619.516C600.68 619.516 617.858 615.966 625.661 608.631C620.28 614.942 613.239 619.618 605.336 622.131L600.765 641.691L608.759 700.857L596.62 644.901Z" fill="black"/>
<path d="M564.454 496.272L581.462 500.694V464.701C572.065 462.256 564.454 467.678 564.454 476.819V496.272Z" fill="#1C1364"/>
<path opacity="0.6" d="M564.454 496.272L581.462 500.694V464.701C572.065 462.256 564.454 467.678 564.454 476.819V496.272Z" fill="black"/>
<path d="M598.129 469.846L592.027 469.718C573.404 469.272 558.649 453.221 559.053 433.832C559.053 412.699 575.423 395.564 595.705 395.372C615.987 395.266 632.528 412.38 632.634 433.428V435.554C632.124 454.964 616.71 470.25 598.129 469.846Z" fill="#1C1364"/>
<path opacity="0.6" d="M598.129 469.846L592.027 469.718C573.404 469.272 558.649 453.221 559.053 433.832C559.053 412.699 575.423 395.564 595.705 395.372C615.987 395.266 632.528 412.38 632.634 433.428V435.554C632.124 454.964 616.71 470.25 598.129 469.846Z" fill="black"/>
<path d="M569.619 404.195C569.471 403.578 569.197 402.999 568.815 402.493C568.433 401.987 567.95 401.565 567.398 401.253C566.845 400.942 566.234 400.748 565.603 400.684C564.972 400.619 564.335 400.685 563.73 400.878L565.367 407.256C565.029 406.826 564.61 406.465 564.134 406.193C563.583 405.881 562.972 405.689 562.341 405.628C561.71 405.567 561.074 405.639 560.473 405.839C559.872 406.039 559.319 406.364 558.851 406.791C558.383 407.218 558.01 407.739 557.756 408.319L566.048 413.188C566.479 412.357 566.671 411.422 566.601 410.488C567.787 409.991 568.75 409.076 569.307 407.916C569.863 406.756 569.974 405.432 569.619 404.195Z" fill="#1C1364"/>
<path opacity="0.6" d="M569.619 404.195C569.471 403.578 569.197 402.999 568.815 402.493C568.433 401.987 567.95 401.565 567.398 401.253C566.845 400.942 566.234 400.748 565.603 400.684C564.972 400.619 564.335 400.685 563.73 400.878L565.367 407.256C565.029 406.826 564.61 406.465 564.134 406.193C563.583 405.881 562.972 405.689 562.341 405.628C561.71 405.567 561.074 405.639 560.473 405.839C559.872 406.039 559.319 406.364 558.851 406.791C558.383 407.218 558.01 407.739 557.756 408.319L566.048 413.188C566.479 412.357 566.671 411.422 566.601 410.488C567.787 409.991 568.75 409.076 569.307 407.916C569.863 406.756 569.974 405.432 569.619 404.195Z" fill="black"/>
<path d="M579.675 479.328C573.95 480.104 568.272 481.197 562.667 482.602C569.258 498.76 558.926 523.719 558.926 523.719L568.684 553.759C561.945 567.557 556.396 574.403 554.1 585.649C560.308 597.767 604.124 609.333 632.655 587.244C632.655 587.244 631.741 556.565 628.106 538.686C637.439 520.466 635.929 515.108 634.016 508.752C629.573 493.976 620.601 488.3 609.907 477.882L603.529 477.202L579.675 479.328Z" fill="#37474F"/>
<path d="M569.768 565.792C575.062 560.371 586.287 558.819 586.287 558.819L575.976 552.951L564.453 525.122C569.288 515.649 571.678 505.118 571.405 494.486L564.772 492.892C565.58 507.625 558.904 523.74 558.904 523.74L568.663 553.78C561.923 567.578 556.374 574.424 554.078 585.67C558.33 593.962 580.207 601.998 602.742 599.149C572.553 597.108 564.687 571.043 569.768 565.792Z" fill="#263238"/>
<path d="M600.276 599.383L601.509 599.255C601.095 599.263 600.683 599.306 600.276 599.383Z" fill="#E6E6E6"/>
<path d="M618.943 414.209C622.599 417.568 627.17 424.839 626.809 446.099C626.49 464.17 620.898 468.656 618.071 469.952C615.243 471.249 609.822 470.505 604.528 469.612V477.096C604.528 477.096 611.501 484.834 611.076 489.852C610.651 494.869 601.127 496.889 594.26 491.978C589.422 488.314 585.127 483.984 581.504 479.115V456.389C581.504 456.389 578.4 459.556 573 454.794C568.748 450.84 567.132 444.164 570.512 440.55C571.38 439.694 572.445 439.065 573.613 438.717C574.781 438.369 576.016 438.313 577.211 438.555C578.406 438.796 579.523 439.327 580.464 440.101C581.405 440.876 582.142 441.869 582.609 442.995C590.712 442.147 598.6 439.873 605.91 436.277C610.021 434.299 613.453 431.147 615.773 427.219C618.093 423.291 619.196 418.764 618.943 414.209Z" fill="#FFBDA7"/>
<path d="M604.507 442.038C604.506 442.451 604.384 442.854 604.157 443.199C603.93 443.544 603.608 443.816 603.229 443.981C602.85 444.145 602.432 444.196 602.025 444.127C601.618 444.058 601.239 443.872 600.936 443.591C600.633 443.31 600.419 442.948 600.318 442.547C600.218 442.147 600.237 441.725 600.372 441.335C600.507 440.945 600.753 440.603 601.08 440.35C601.406 440.097 601.799 439.945 602.211 439.912C602.794 439.9 603.36 440.115 603.788 440.511C604.216 440.908 604.474 441.455 604.507 442.038Z" fill="#263238"/>
<path d="M605.336 457.09L611.013 458.94C610.922 459.327 610.753 459.692 610.516 460.012C610.279 460.332 609.979 460.6 609.634 460.799C609.289 460.998 608.907 461.125 608.512 461.171C608.116 461.216 607.716 461.181 607.335 461.066C606.562 460.777 605.927 460.207 605.556 459.47C605.186 458.732 605.107 457.883 605.336 457.09Z" fill="#F79776"/>
<path d="M625.044 433.895L619.878 432.131C619.959 431.786 620.112 431.462 620.327 431.18C620.542 430.898 620.813 430.664 621.124 430.494C621.434 430.324 621.777 430.22 622.13 430.191C622.483 430.162 622.839 430.207 623.173 430.324C623.87 430.584 624.447 431.092 624.792 431.751C625.137 432.41 625.227 433.174 625.044 433.895Z" fill="#263238"/>
<path d="M582.63 440.975V448.607C583.12 448.628 583.609 448.548 584.066 448.372C584.524 448.197 584.941 447.93 585.291 447.587C585.642 447.244 585.918 446.834 586.104 446.38C586.29 445.927 586.381 445.44 586.372 444.95C586.379 443.934 585.994 442.954 585.297 442.213C584.601 441.473 583.646 441.029 582.63 440.975Z" fill="#1C1364"/>
<path opacity="0.6" d="M582.63 440.975V448.607C583.12 448.628 583.609 448.548 584.066 448.372C584.524 448.197 584.941 447.93 585.291 447.587C585.642 447.244 585.918 446.834 586.104 446.38C586.29 445.927 586.381 445.44 586.372 444.95C586.379 443.934 585.994 442.954 585.297 442.213C584.601 441.473 583.646 441.029 582.63 440.975Z" fill="black"/>
<path d="M623.173 441.294C623.22 441.905 623.023 442.51 622.624 442.977C622.226 443.443 621.659 443.732 621.047 443.781C620.579 443.827 620.107 443.732 619.694 443.507C619.28 443.283 618.942 442.941 618.725 442.523C618.507 442.106 618.419 441.633 618.473 441.165C618.526 440.698 618.718 440.257 619.023 439.899C619.329 439.541 619.735 439.283 620.189 439.158C620.642 439.032 621.123 439.046 621.569 439.195C622.015 439.345 622.406 439.625 622.692 439.999C622.978 440.373 623.145 440.824 623.173 441.294Z" fill="#263238"/>
<path d="M611.055 438.211L611.013 453.008L617.901 450.733L611.055 438.211Z" fill="#F79776"/>
<path d="M604.529 469.697C598.937 468.974 587.521 465.594 585.628 460.874C586.348 463.242 587.763 465.338 589.689 466.891C593.133 469.931 604.571 473.269 604.571 473.269L604.529 469.697Z" fill="#F79776"/>
<path d="M536.497 554.886C536.497 554.886 550.145 574.275 552.484 576.805C554.823 579.335 556.438 578.485 558.968 577.358C562.054 576.112 565.222 575.082 568.45 574.275C572.702 573.233 573.51 577.082 569.386 579.824C566.409 581.823 563.008 582.673 564.411 584.31C567.32 586.944 570.694 589.013 574.361 590.411C584.438 594.387 583.651 596.386 581.802 599.638C580.186 602.487 575.424 608.61 557.48 601.382C550.039 598.384 539.579 589.901 534.647 584.374C527.525 576.486 516.406 562.348 516.406 562.348L536.497 554.886Z" fill="#FFBDA7"/>
<path d="M565.282 481.9C560.35 482.219 551.059 483.41 539.409 502.756C529.183 519.764 513.344 542.746 510.41 550.974C509.22 554.312 513.854 561.221 519.828 568.301C527.971 567.94 535.391 562.306 539.239 557.799C538.229 555.401 536.975 553.114 535.497 550.974L559.393 523.719C559.393 523.719 568.471 515.406 570.363 504.585C572.404 492.849 571.767 483.622 565.282 481.9Z" fill="#455A64"/>
<path d="M699.071 518.595L640.16 534.115L623.938 600.765L679.959 584.501L699.071 518.595Z" fill="#1C1364"/>
<path opacity="0.25" d="M699.071 518.595L640.16 534.115L623.938 600.765L679.959 584.501L699.071 518.595Z" fill="black"/>
<g opacity="0.1">
<path opacity="0.1" d="M672.454 565.792C673.44 567.85 675.01 569.572 676.968 570.744C678.927 571.916 681.187 572.486 683.466 572.383L683.891 570.916L672.454 565.792Z" fill="black"/>
</g>
<g opacity="0.1">
<path opacity="0.1" d="M681.319 529.183L681.808 526.929C682.085 525.696 678.619 525.632 674.091 526.929L665.395 529.055C660.867 530.246 656.891 532.201 656.7 533.435L656.232 535.688L681.319 529.183Z" fill="black"/>
</g>
<path d="M685.847 520.742C686.018 519.956 684.614 519.743 682.722 520.274L679.278 521.231C679.278 521.231 680.299 516.363 672.688 518.063C670.644 518.364 668.714 519.188 667.082 520.454C665.451 521.721 664.174 523.387 663.376 525.292L659.719 526.334C657.593 526.908 655.85 527.992 655.616 528.757L655.169 530.16L685.529 522.167L685.847 520.742Z" fill="#37474F"/>
<path d="M681.659 523.123C678.896 523.804 677.726 524.165 677.407 526.079C677.089 527.992 676.727 529.863 676.727 529.863L663.312 533.413C663.312 533.413 663.971 530.65 664.184 529.587C664.396 528.524 663.929 527.843 661.781 528.417L661.611 527.567L682.659 522.188L681.659 523.123Z" fill="#37474F"/>
<path d="M682.127 529.374L682.616 527.121C682.893 525.887 679.427 525.824 674.899 527.121L666.204 529.246C661.675 530.437 657.7 532.393 657.508 533.626L657.041 535.88L682.127 529.374Z" fill="#37474F"/>
<path d="M692.864 540.004C692.864 540.004 690.738 547.551 690.164 549.337C689.59 551.123 683.041 554.376 678.726 555.566C674.41 556.757 669.648 558.16 671.71 564.219C673.581 569.811 680.724 571.086 684.338 570.916C687.953 570.746 692.949 567.302 694.968 561.71C697.456 554.567 696.116 546.956 697.094 542.789C698.072 538.622 695.032 537.517 692.864 540.004Z" fill="#FFBDA7"/>
<path d="M469.697 541.769C461.618 533.626 458.727 536.794 457.706 545.723C457.328 549.468 456.419 553.141 455.006 556.629C454.755 554.775 454.247 552.965 453.497 551.251C453.141 550.324 452.449 549.565 451.558 549.127C450.666 548.69 449.643 548.605 448.692 548.891C447.905 549.21 448.883 551.017 448.692 554.567C448.543 558.989 447.097 561.434 448.139 566.133C448.502 567.9 448.223 569.739 447.352 571.32C443.1 579.399 429.09 594.323 419.268 605.081L381.957 571.384C369.201 559.904 365.076 554.737 352.767 555.566C356.618 557.027 360.164 559.19 363.227 561.944C368.946 566.77 367.585 594.387 367.585 594.387C367.585 594.387 409.935 624.746 414.357 627.638C414.995 628.063 415.654 628.446 416.292 628.807C418.382 629.897 420.78 630.248 423.095 629.804C425.41 629.361 427.508 628.148 429.048 626.362C438.083 616.03 451.264 595.684 458.812 585.118C462.262 580.003 465.339 574.646 468.017 569.088C475.586 554.057 474.757 546.871 469.697 541.769Z" fill="#914F4E"/>
<path d="M354.085 554.886C357.059 554.345 360.115 554.444 363.048 555.177C365.98 555.91 368.723 557.261 371.093 559.138C378.364 564.665 409.361 593.154 409.361 593.154C409.361 593.154 410.211 608.227 394.479 617.199L356.487 590.411L354.085 554.886Z" fill="#1C1364"/>
<path opacity="0.3" d="M354.085 554.886C357.059 554.345 360.115 554.444 363.048 555.177C365.98 555.91 368.723 557.261 371.093 559.138C378.364 564.665 409.361 593.154 409.361 593.154C409.361 593.154 410.211 608.227 394.479 617.199L356.487 590.411L354.085 554.886Z" fill="black"/>
<path d="M317.412 894.961H301.318V923.662H317.412V894.961Z" fill="#914F4E"/>
<path d="M357.125 893.431L373.219 894.005L374.027 863.624L357.125 863.05V893.431Z" fill="#914F4E"/>
<path d="M299.043 646.453C299.043 662.462 301.403 791.318 301.403 791.318C301.042 795.911 296.896 804.415 297.789 822.103C299.001 846.148 300.638 909.269 300.638 909.269C303.402 910.685 306.452 911.453 309.557 911.515C312.662 911.578 315.741 910.933 318.56 909.63C318.56 909.63 333.782 822.145 336.673 798.334C339.182 777.542 343.455 707.554 343.455 707.554L352.172 788.937C350.314 797.687 349.642 806.647 350.173 815.576C350.939 826.589 356.105 883.97 356.105 883.97C358.888 885.616 362.011 886.606 365.234 886.864C368.458 887.122 371.698 886.641 374.707 885.458C374.707 885.458 383.849 799.036 384.041 788.937C384.253 777.414 378.683 646.24 378.683 646.24L299.043 646.453Z" fill="#37474F"/>
<path d="M317.412 915.371V912.99C318.964 913.691 322.535 927.872 328.913 933.973C333.994 938.799 340.925 944.369 342.69 949.748C344.454 955.127 333.038 958.422 328.297 957.551C322.79 956.53 313.223 952.491 310.842 948.749C308.461 945.007 307.313 939.458 305.357 936.716C303.401 933.973 298.979 930.912 297.874 927.723C297.558 924.757 297.869 921.758 298.788 918.921C299.532 915.966 300.34 912.713 301.318 912.99V914.818C303.588 916.677 306.441 917.678 309.375 917.646C311.714 917.731 317.433 917.242 317.412 915.371Z" fill="#263238"/>
<path d="M373.389 888.838C374.218 888.838 374.899 890.093 376.748 892.176C379.482 895.051 382.68 897.444 386.209 899.256C392.247 902.402 403.961 907.249 409.276 909.737C412.593 911.289 412.423 915.456 409 917.816C405.577 920.175 397.307 921.897 387.378 919.601C381.978 918.326 374.92 913.223 370.37 913.415C365.821 913.606 357.614 913.627 354.276 911.289C350.939 908.95 352.299 903.869 353.235 899.553C354.255 894.812 355.531 887.435 357.019 887.754V889.391C358.954 892.452 368.946 893.643 373.198 891.517L373.389 888.838Z" fill="#263238"/>
<path d="M343.455 707.597C351.831 704.861 359.488 700.285 365.863 694.203C365.863 694.203 361.611 702.707 348.685 710.488L351.428 783.176L343.455 707.597Z" fill="#263238"/>
<path d="M307.42 559.138C307.42 559.138 294.834 560.286 295.727 584.288L298.512 622.557L298.256 679.959C310.077 693.374 362.568 692.396 380.533 678.874C380.533 678.874 378.683 610.991 377.471 584.863C376.6 566.303 372.326 556.948 354.085 554.907L331.635 555.885L307.42 559.138Z" fill="#1C1364"/>
<path opacity="0.3" d="M343.2 571.724L346.091 591.879L352.831 591.751L345.219 592.942L343.2 571.724Z" fill="black"/>
<path d="M267.472 641.542C273.999 589.03 289.029 562.88 307.334 559.861L306.037 593.452C298.416 611.366 292.577 629.988 288.604 649.047C286.202 661.973 283.417 684.445 284.14 695.478C284.284 697.423 285.113 699.253 286.478 700.645C290.092 704.323 291.177 707.512 293.6 711.657C295.514 714.91 297.47 716.058 296.959 716.845C296.302 717.672 295.348 718.21 294.3 718.345C293.252 718.48 292.192 718.201 291.347 717.568C289.428 716.208 287.673 714.632 286.117 712.869C285.884 717.874 286.785 722.867 288.753 727.475C293.005 736.319 292.325 740.975 280.462 738.36C273.021 736.744 267.706 728.899 265.58 710.594C265.02 703.763 264.9 696.904 265.218 690.057C266.026 672.56 266.175 652.044 267.472 641.542Z" fill="#914F4E"/>
<path d="M308.376 558.99C298.873 558.99 290.199 560.627 283.289 573.871C276.678 586.627 271.596 613.606 269.024 622.429C269.024 622.429 282.907 630.636 295.684 630.423L304.677 599.213C304.677 599.213 310.757 584.65 308.376 558.99Z" fill="#1C1364"/>
<path opacity="0.3" d="M308.376 558.99C298.873 558.99 290.199 560.627 283.289 573.871C276.678 586.627 271.596 613.606 269.024 622.429C269.024 622.429 282.907 630.636 295.684 630.423L304.677 599.213C304.677 599.213 310.757 584.65 308.376 558.99Z" fill="black"/>
<path d="M327.999 504.946C328.191 509.644 329.759 514.181 332.509 517.995C335.259 521.808 339.069 524.729 343.466 526.395C347.862 528.06 352.651 528.396 357.238 527.362C361.824 526.327 366.005 523.967 369.261 520.576C372.517 517.184 374.704 512.91 375.55 508.286C376.396 503.661 375.865 498.89 374.021 494.565C372.178 490.24 369.104 486.552 365.181 483.96C361.259 481.368 356.661 479.987 351.959 479.987C345.474 480.127 339.31 482.833 334.818 487.512C330.326 492.191 327.874 498.461 327.999 504.946Z" fill="#263238"/>
<path d="M312.756 517.426C312.756 517.426 316.434 535.412 317.901 538.367C318.858 540.176 320.482 541.542 322.429 542.173L322.153 529.417L312.756 517.426Z" fill="#263238"/>
<path d="M317.369 491.659C317.369 491.659 314.648 491.106 311.927 495.358C309.524 499.1 308.993 507.519 312.756 517.405L319.665 518.234L317.369 491.659Z" fill="#263238"/>
<path d="M321.748 518.255C320.367 519.127 318.389 516.342 316.667 514.492C314.945 512.642 309.375 510.07 306.59 516.193C303.805 522.316 309.035 530.671 313.436 532.095C321.026 534.583 322.152 529.502 322.152 529.502L322.748 558.011C332.804 573.574 355.616 573.021 347.409 557.246V548.508C350.787 549.07 354.217 549.255 357.635 549.061C363.206 548.168 366.713 543.576 368.414 537.283C371.135 527.184 372.156 519.042 369.86 499.185C367.33 477.415 343.03 477.181 329.891 485.791C316.752 494.401 321.748 518.255 321.748 518.255Z" fill="#914F4E"/>
<path d="M322.62 551.612C324.96 556.399 328.32 560.615 332.464 563.964C335.989 566.563 340.074 568.303 344.391 569.045C340.832 571.455 337.914 574.695 335.887 578.485C333.378 584.033 315.647 568.79 315.817 557.969C315.817 557.969 318.602 547.105 322.408 546.403L322.62 551.612Z" fill="#263238"/>
<path d="M344.412 569.045C344.412 569.045 349.875 566.324 347.431 557.246V548.508L349.833 548.827C352.633 551.555 354.62 555.007 355.573 558.798C356.126 561.285 357.487 573.871 355.084 576.359C352.682 578.846 349.301 569.768 344.412 569.045Z" fill="#263238"/>
<path d="M321.748 520.7C321.047 520.7 318.389 516.129 316.667 514.492C314.265 512.217 317.369 491.659 317.369 491.659C316.743 489.884 316.626 487.97 317.032 486.133C317.438 484.295 318.35 482.608 319.665 481.263C322.96 477.5 328.445 477.011 337.8 475.565C341.535 475.106 345.24 474.431 348.897 473.545C352.759 472.1 356.475 470.292 359.995 468.145C361.102 467.428 362.428 467.126 363.737 467.295C364.341 467.498 364.88 467.857 365.302 468.334C365.724 468.812 366.012 469.392 366.139 470.016C366.352 471.261 366.352 472.534 366.139 473.779C367.322 472.679 368.892 472.093 370.506 472.149C372.12 472.204 373.646 472.898 374.75 474.077C375.794 475.32 376.473 476.829 376.714 478.434C376.954 480.04 376.745 481.681 376.11 483.176C374.752 486.15 372.529 488.647 369.732 490.341C357.976 498.292 344.093 496.081 330.911 494.593C330.289 494.453 329.639 494.497 329.041 494.72C326.915 495.656 326.532 502.055 326.171 503.905C325.108 510.07 324.087 520.657 321.748 520.7Z" fill="#263238"/>
<path d="M317.369 492.743L308.993 488.045C309.247 487.464 309.62 486.943 310.088 486.516C310.556 486.089 311.108 485.764 311.709 485.564C312.31 485.364 312.947 485.292 313.578 485.353C314.208 485.414 314.819 485.607 315.371 485.919C316.484 486.612 317.304 487.691 317.672 488.949C318.041 490.208 317.933 491.559 317.369 492.743Z" fill="#263238"/>
<path d="M347.388 548.508C347.388 548.508 334.951 545.893 330.593 543.491C328.006 542.077 325.908 539.913 324.576 537.283C325.225 539.922 326.388 542.407 327.999 544.596C331.167 548.848 347.388 551.973 347.388 551.973V548.508Z" fill="#783736"/>
<path d="M342.881 514.279C342.895 514.62 342.842 514.96 342.725 515.28C342.608 515.6 342.428 515.894 342.197 516.145C341.966 516.396 341.688 516.599 341.379 516.742C341.069 516.885 340.734 516.966 340.394 516.979C339.706 516.941 339.06 516.634 338.595 516.126C338.13 515.617 337.883 514.947 337.906 514.258C337.906 513.598 338.168 512.966 338.635 512.499C339.101 512.033 339.734 511.771 340.394 511.771C341.053 511.771 341.686 512.033 342.153 512.499C342.619 512.966 342.881 513.598 342.881 514.258V514.279Z" fill="#263238"/>
<path d="M338.608 503.479L333.272 506.541C332.888 505.783 332.802 504.909 333.03 504.09C333.258 503.272 333.784 502.569 334.505 502.119C334.86 501.921 335.252 501.799 335.657 501.761C336.062 501.723 336.47 501.769 336.855 501.897C337.241 502.025 337.596 502.232 337.898 502.504C338.2 502.777 338.441 503.109 338.608 503.479Z" fill="#263238"/>
<path d="M346.262 532.967L351.959 535.199C351.847 535.59 351.655 535.954 351.396 536.268C351.136 536.582 350.815 536.838 350.452 537.022C350.088 537.206 349.691 537.312 349.285 537.335C348.878 537.358 348.472 537.297 348.09 537.155C347.313 536.816 346.693 536.197 346.354 535.42C346.015 534.643 345.982 533.767 346.262 532.967Z" fill="#783736"/>
<path d="M367.798 506.456L362.185 503.734C362.323 503.354 362.539 503.007 362.82 502.716C363.101 502.425 363.44 502.197 363.816 502.047C364.191 501.896 364.594 501.827 364.998 501.843C365.402 501.859 365.798 501.96 366.161 502.14C366.919 502.529 367.507 503.186 367.809 503.983C368.112 504.78 368.107 505.661 367.798 506.456Z" fill="#263238"/>
<path d="M364.12 514.28C364.152 514.627 364.111 514.977 364 515.308C363.889 515.639 363.711 515.943 363.476 516.201C363.241 516.458 362.954 516.664 362.635 516.805C362.316 516.946 361.971 517.019 361.622 517.019C361.273 517.019 360.928 516.946 360.609 516.805C360.29 516.664 360.003 516.458 359.768 516.201C359.533 515.943 359.354 515.639 359.244 515.308C359.133 514.977 359.092 514.627 359.124 514.28C359.11 513.94 359.163 513.601 359.281 513.282C359.398 512.963 359.578 512.671 359.809 512.422C360.04 512.172 360.319 511.972 360.628 511.831C360.937 511.69 361.272 511.612 361.611 511.601C362.297 511.629 362.945 511.925 363.415 512.426C363.884 512.927 364.137 513.593 364.12 514.28Z" fill="#263238"/>
<path d="M349.982 512.345L350.258 528.098L359.209 526.057L349.982 512.345Z" fill="#783736"/>
<path d="M339.033 507.774C337.381 507.774 335.796 508.43 334.628 509.598C333.46 510.767 332.804 512.351 332.804 514.003C332.804 515.655 333.46 517.24 334.628 518.408C335.796 519.576 337.381 520.232 339.033 520.232H340.16C341.812 520.232 343.396 519.576 344.564 518.408C345.732 517.24 346.389 515.655 346.389 514.003C346.389 512.351 345.732 510.767 344.564 509.598C343.396 508.43 341.812 507.774 340.16 507.774H339.033ZM331.656 514.003C331.639 512.033 332.403 510.137 333.782 508.73C335.161 507.323 337.042 506.521 339.012 506.498H340.16C341.965 506.735 343.623 507.621 344.825 508.99C346.026 510.359 346.688 512.118 346.688 513.939C346.688 515.761 346.026 517.52 344.825 518.889C343.623 520.258 341.965 521.143 340.16 521.38H339.033C337.08 521.369 335.21 520.588 333.829 519.207C332.448 517.826 331.667 515.956 331.656 514.003Z" fill="#263238"/>
<path d="M361.42 507.774C359.768 507.774 358.183 508.43 357.015 509.598C355.847 510.767 355.191 512.351 355.191 514.003C355.191 515.655 355.847 517.24 357.015 518.408C358.183 519.576 359.768 520.232 361.42 520.232H362.547C364.199 520.232 365.783 519.576 366.951 518.408C368.119 517.24 368.776 515.655 368.776 514.003C368.776 512.351 368.119 510.767 366.951 509.598C365.783 508.43 364.199 507.774 362.547 507.774H361.42ZM354.064 514.003C354.047 512.033 354.812 510.137 356.191 508.73C357.569 507.323 359.45 506.521 361.42 506.498H362.547C364.352 506.735 366.01 507.621 367.212 508.99C368.413 510.359 369.075 512.118 369.075 513.939C369.075 515.761 368.413 517.52 367.212 518.889C366.01 520.258 364.352 521.143 362.547 521.38H361.42C359.478 521.352 357.624 520.564 356.257 519.185C354.889 517.806 354.117 515.945 354.106 514.003H354.064Z" fill="#263238"/>
<path d="M347.431 512.515C347.876 511.897 348.46 511.393 349.136 511.042C349.811 510.692 350.56 510.504 351.321 510.495C351.949 510.427 352.584 510.512 353.172 510.741C353.761 510.971 354.285 511.338 354.702 511.813L355.701 511.048C355.17 510.4 354.485 509.895 353.709 509.579C352.933 509.263 352.09 509.147 351.257 509.241C350.292 509.251 349.343 509.494 348.492 509.949C347.641 510.404 346.912 511.058 346.368 511.856L347.431 512.515Z" fill="#263238"/>
<path d="M332.337 512.451H319.666V513.705H332.337V512.451Z" fill="#263238"/>
</svg>
