<?xml version="1.0" encoding="utf-8"?>
<!-- Generator: Adobe Illustrator 16.0.0, SVG Export Plug-In . SVG Version: 6.00 Build 0)  -->
<!DOCTYPE svg PUBLIC "-//W3C//DTD SVG 1.1//EN" "http://www.w3.org/Graphics/SVG/1.1/DTD/svg11.dtd">
<svg version="1.1" id="Layer_1" xmlns="http://www.w3.org/2000/svg" xmlns:xlink="http://www.w3.org/1999/xlink" x="0px" y="0px"
	 width="1995px" height="1100px" viewBox="0 0 1995 1100" enable-background="new 0 0 1995 1100" xml:space="preserve">
<g>
	<g>
		<path fill-rule="evenodd" clip-rule="evenodd" fill="#FDFDFD" d="M1998.5,299c0,265.787-0.014,531.575,0.125,797.362
			c0.002,4.293-1.165,4.732-4.986,4.731c-663.386-0.098-1326.771-0.099-1990.157,0.021c-4.277,0-5.126-0.944-5.097-5.133
			C-1.402,1064.989-1.5,1033.994-1.5,1003c1.972-1.68,4.116-0.85,6.192-0.356c38.974,9.259,78.542,14.814,118.32,19.108
			c24.655,2.661,49.343,4.737,74.115,6.02c15.956,0.826,31.926,1.231,47.868,2.029c29.986,1.5,59.967,0.893,89.934,0.622
			c23.437-0.212,46.89-1.173,70.318-2.572c16.939-1.012,33.896-1.836,50.791-3.372c31.713-2.883,63.168-7.657,94.293-14.42
			c40.311-8.759,79.647-20.732,117.76-36.568c45.11-18.744,87.536-42.29,127.27-70.781c34.134-24.475,64.961-52.634,93.807-83.006
			c13.879-14.612,26.881-30.065,39.055-46.14c37.425-49.414,76.853-97.282,113.679-147.153
			c29.001-39.272,56.89-79.358,86.446-118.229c29.196-38.396,60.303-75.131,95.669-107.987
			c41.957-38.979,89.432-69.292,143.52-88.854c36.383-13.159,73.871-21.266,112.227-25.937c23.804-2.898,47.672-4.993,71.576-6.517
			c9.938-0.634,19.951-0.937,29.914-1.418c28.645-1.387,57.299-1.134,85.93-0.669c21.769,0.354,43.557,1.162,65.319,2.529
			c13.771,0.865,27.579,1.473,41.352,2.386c15.597,1.035,31.191,2.195,46.771,3.522c13.427,1.144,26.857,2.238,40.287,3.348
			c14.588,1.204,29.17,2.498,43.762,3.64c10.612,0.83,21.229,1.621,31.846,2.414c16.091,1.203,32.238,1.446,48.308,2.883
			C1989.383,297.929,1994.191,296.291,1998.5,299z"/>
		<path fill-rule="evenodd" clip-rule="evenodd" fill="#302D62" d="M-1.5,833c0-275.789,0.014-551.577-0.125-827.366
			c-0.002-4.301,1.176-4.728,4.99-4.728c663.393,0.098,1326.786,0.1,1990.178-0.025c4.343-0.001,5.069,1.041,5.063,5.16
			c-0.142,82.319-0.105,164.64-0.105,246.959c-1.984,1.413-3.873,0.272-5.702-0.329c-62.451-20.542-126.401-35.461-190.249-50.767
			c-35.196-8.438-70.836-14.517-106.695-19.179c-20.947-2.724-42.027-4.288-63.135-5.648c-14.472-0.934-28.964-0.895-43.399-1.284
			c-16.726-0.452-33.601-0.015-50.371,1.326c-7.461,0.598-14.954,0.482-22.438,1.055c-9.113,0.697-18.248,1.158-27.358,2.007
			c-3.965,0.369-7.929,0.16-11.925-0.596c-41.41-7.838-82.776-15.963-124.535-21.774c-25.886-3.603-51.826-6.739-77.924-8.601
			c-27.082-1.933-54.176-3.465-81.313-2.743c-20.943,0.557-41.869,1.712-62.766,3.598c-29.903,2.698-59.542,7.074-89.046,12.473
			c-55.269,10.113-108.979,25.365-160.497,48.102c-45.169,19.935-87.502,44.734-127.578,73.421
			c-26.708,19.117-52.014,39.982-76.172,62.28c-15.935,14.706-31.342,29.947-46.218,45.66
			c-26.468,27.957-51.127,57.491-74.151,88.396c-14.539,19.515-28.725,39.271-42.306,59.446
			c-13.86,20.592-27.133,41.58-40.327,62.605c-13.957,22.24-30.328,42.604-47.411,62.442
			c-13.265,15.403-27.062,30.351-41.609,44.523c-29.865,29.095-61.278,56.429-95.727,80.049
			c-32.691,22.415-67.201,41.47-104.747,54.569c-18.14,6.33-36.799,10.436-55.964,12.453c-23.178,2.441-46.212,1.556-69.076-2.458
			c-19.923-3.498-39.066-9.835-57.638-17.863C0.631,835.475-0.663,834.529-1.5,833z"/>
		<path fill-rule="evenodd" clip-rule="evenodd" fill="#36336A" d="M-1.5,833c16.282,7.105,32.887,13.137,50.267,17.158
			c15.739,3.643,31.571,5.342,47.689,5.984c24.372,0.973,48.128-2.086,71.577-8.436c29.885-8.092,57.441-21.438,84.332-36.519
			c22.498-12.617,43.686-27.162,63.972-42.928c14.771-11.479,29.249-23.407,42.887-36.32c11.101-10.511,22.796-20.424,33.284-31.552
			c20.365-21.608,40.463-43.433,58.569-67.067c13.256-17.305,24.495-35.86,36.378-54.04c12.25-18.74,24.248-37.641,37.039-56.04
			c11.924-17.153,24.212-34.024,36.771-50.699c11.963-15.885,24.651-31.192,37.463-46.413c21.778-25.874,45.4-49.983,69.727-73.384
			c17.68-17.007,36.272-33.051,55.661-48.148c18.599-14.483,37.642-28.318,57.375-41.213c17.946-11.727,36.464-22.436,55.325-32.635
			c33.004-17.845,67.501-32.158,102.94-44.203c18.187-6.181,36.781-11.116,55.495-15.592c26.722-6.391,53.698-11.466,80.807-15.727
			c17.784-2.795,35.686-4.962,53.682-6.363c16.531-1.288,33.069-2.143,49.609-3.127c16.489-0.98,32.971-1.154,49.374-0.487
			c19.337,0.786,38.695,1.74,58.016,3.52c21.585,1.989,43.098,4.505,64.553,7.398c21.123,2.85,42.13,6.624,63.122,10.358
			c21.977,3.909,43.843,8.441,65.827,12.308c7.555,1.329,15.288-0.423,22.815-1.22c6.927-0.732,13.923-0.938,20.795-1.291
			c12.255-0.632,24.528-1.937,36.856-1.376c6.794,0.31,13.64-0.819,20.365-0.719c14.787,0.222,29.606,0.237,44.365,0.951
			c20.318,0.983,40.636,2.68,60.847,4.996c19.03,2.181,37.954,5.313,56.877,8.423c54.035,8.877,106.772,23.331,159.778,36.587
			c32.184,8.048,64.127,17.103,95.561,27.814c0,9.333,0,18.667,0,28c-2.197,1.874-4.703,1.229-7.161,0.855
			c-32.122-4.896-64.062-10.821-95.967-16.955c-48.432-9.313-96.668-19.582-145-29.385
			c-56.491-11.456-112.965-22.997-169.413-34.667c-29.691-6.139-59.478-11.83-89.091-18.349c-10.498-2.312-20.932-0.906-31.324,0.14
			c-22.87,2.302-45.667,5.285-68.224,9.793c-25.497,5.095-50.699,11.249-75.416,19.517c-28.368,9.488-55.797,21.103-82.189,35.046
			c-34.206,18.071-67.654,37.508-97.879,61.851c-15.167,12.216-28.959,25.97-42.32,40.227
			c-30.938,33.007-59.005,68.314-85.819,104.66c-16.718,22.661-32.618,45.886-47.698,69.69
			c-10.627,16.773-23.532,31.896-36.469,46.929c-23.469,27.271-47.87,53.666-73.094,79.346
			c-24.983,25.435-50.781,49.949-77.49,73.553c-31.69,28.007-65.993,52.404-101.893,74.624
			c-39.038,24.162-79.729,45.027-122.511,61.852c-57.209,22.498-116.305,37.46-177.178,45.588
			c-22.273,2.974-44.629,4.984-67.082,6.202c-16.454,0.893-32.944,1.894-49.365,1.583c-20.096-0.381-40.217-0.925-60.312-2.5
			c-36.274-2.843-72.152-7.922-107.571-16.223c-28.596-6.702-56.635-15.177-83.735-26.597c-2.162-0.91-4.282-1.881-5.799-3.779
			C-1.5,853.667-1.5,843.333-1.5,833z"/>
		<path fill-rule="evenodd" clip-rule="evenodd" fill="#3D3A74" d="M-1.5,864c13.594,5.335,27.024,11.099,40.975,15.496
			c29.259,9.222,58.943,16.583,89.232,21.665c19.585,3.286,39.271,5.639,58.989,7.672c13.342,1.376,26.81,1.588,40.228,2.137
			c11.617,0.477,23.252,1.121,34.866,0.928c17.42-0.289,34.866-0.74,52.234-2.023c37.454-2.769,74.715-7.329,111.517-14.973
			c23.366-4.854,46.465-10.82,69.312-17.804c41.75-12.762,81.994-29.185,120.752-49.208c23.77-12.28,46.723-25.985,69.269-40.421
			c24.205-15.496,47.545-32.153,69.768-50.333c11.803-9.656,23.191-19.83,34.492-30.101c13.544-12.31,26.3-25.45,39.85-37.7
			c14.481-13.092,27.405-27.639,40.921-41.597c18.921-19.537,36.783-40.116,54.745-60.561
			c19.198-21.849,35.204-46.032,51.115-70.338c18.986-29.002,39.77-56.768,61.319-83.937c13.808-17.408,28.022-34.462,42.886-50.991
			c10.789-11.999,21.643-23.923,33.275-35.097c20.194-19.395,42.706-35.764,66.523-50.41c23.093-14.202,46.477-27.887,71.004-39.486
			c20.571-9.729,41.585-18.341,63.146-25.747c24.686-8.479,49.928-14.697,75.427-19.816c18.784-3.771,37.767-6.613,56.885-8.485
			c10.369-1.016,20.696-2.398,31.121-2.905c11.66-0.567,22.586,3.313,33.746,5.518c34.571,6.831,69.024,14.253,103.542,21.356
			c27.225,5.604,54.473,11.096,81.718,16.602c32.43,6.553,64.875,13.03,97.3,19.611c29.839,6.056,59.627,12.362,89.495,18.268
			c26.764,5.292,53.547,10.503,80.505,14.756c11.264,1.776,22.396,4.433,33.845,4.925c0,6,0,12,0,18
			c-40.166-0.91-80.171-4.303-120.185-7.646c-32.204-2.69-64.431-5.103-96.654-7.554c-57.521-4.374-115.12-6.651-172.811-5.65
			c-51.342,0.891-102.537,4.128-153.326,12.015c-92.649,14.387-172.665,54.082-239.818,119.757
			c-38.626,37.774-72.218,79.741-104.193,123.085c-39.153,53.073-76.734,107.315-117.986,158.826
			c-28.22,35.237-54.517,72.003-83.697,106.459c-81.385,96.098-182.677,162.048-303.125,198.584
			c-50.504,15.32-102.138,24.903-154.719,29.26c-75.49,6.256-151.108,7.523-226.773,4.566
			c-63.125-2.468-125.947-8.275-188.138-19.784c-12.905-2.388-25.719-5.266-38.575-7.917C-1.5,956.667-1.5,910.333-1.5,864z"/>
	</g>
</g>
</svg>
