<?xml version="1.0" encoding="utf-8"?>
<!-- Generator: Adobe Illustrator 16.0.0, SVG Export Plug-In . SVG Version: 6.00 Build 0)  -->
<!DOCTYPE svg PUBLIC "-//W3C//DTD SVG 1.1//EN" "http://www.w3.org/Graphics/SVG/1.1/DTD/svg11.dtd">
<svg version="1.1" id="Layer_1" xmlns="http://www.w3.org/2000/svg" xmlns:xlink="http://www.w3.org/1999/xlink" x="0px" y="0px"
	 width="2975px" height="2400px" viewBox="0 0 2975 2400" enable-background="new 0 0 2975 2400" xml:space="preserve">
<g>
	<g>
		<path fill-rule="evenodd" clip-rule="evenodd" fill="#FEFEFE" d="M-10.5,1224c0-407.237,0-814.475,0-1222
			c7.566,0,15.136,0,22.706,0c989.433,0,1978.866,0,2968.299,0c2.333,0,4.671,0.104,6.997-0.023
			c3.943-0.216,1.175,2.769,1.998,4.023c-8.814,7.95-20.169,11.466-30.345,16.957c-39.536,21.337-75.46,47.613-109.067,77.252
			c-81.316,71.715-144.338,158.312-202.281,248.984c-66.433,103.962-125.026,212.545-187.513,318.835
			c-32.767,55.736-65.739,111.393-103.09,164.235c-50.66,71.67-115.589,127.668-191.288,171.485
			c-103.874,60.127-216.921,93.117-334.469,112.743c-48.001,8.015-96.33,12.771-144.841,16.603
			c-71.558,5.653-143.228,4.888-214.749,3.049c-102.929-2.646-205.162-14.711-306.933-30.404
			c-86.272-13.304-172.619-26.186-259.313-36.417c-47.577-5.615-95.292-10.003-143.16-13.001
			c-41.917-2.626-83.807-4.407-125.755-3.478c-54.306,1.202-108.282,6.597-162.002,14.689
			c-86.922,13.096-171.851,34.442-255.07,62.456c-60.036,20.21-118.961,43.348-176.104,70.882
			c-14.707,7.086-29.737,13.47-43.828,21.803C-3.352,1224.475-6.71,1226.653-10.5,1224z"/>
		<path fill-rule="evenodd" clip-rule="evenodd" fill="#FEFEFE" d="M2989.5,1686c0,238.667,0,477.333,0,716c-1000,0-2000,0-3000,0
			c0-11.333,0-22.667,0-34c2.928-2.127,5.131-0.182,7.031,1.568c22.43,20.669,46.842,16.024,70.615,4.08
			c22.814-11.462,41.669-28.443,58.569-47.658c17.815-20.257,37.197-39.072,55.852-58.545
			c31.114-32.479,62.873-64.389,95.366-95.487c57.993-55.503,117.731-109.09,179.963-159.858
			c70.288-57.342,143.091-111.251,218.997-160.925c56.339-36.869,114.104-71.337,173.445-103.21
			c90.569-48.646,183.895-91.126,280.678-125.778c117.983-42.243,238.883-73.134,363.049-90.771
			c47.474-6.743,95.145-11.282,143.013-14.527c52.898-3.586,105.832-4.897,158.714-3.198c44.176,1.419,88.362,4.096,132.507,7.06
			c26.202,1.76,52.478,3.008,78.695,4.703c33.516,2.169,67.035,4.408,100.519,7.145c27.187,2.222,54.383,4.351,81.577,6.473
			c31.85,2.484,63.646,5.509,95.422,8.664c50.027,4.968,99.979,10.726,149.787,17.605c88.186,12.181,175.607,28.371,262.18,49.239
			c94.581,22.799,188.621,47.893,284.017,67.25C2983.089,1682.559,2986.697,1683.335,2989.5,1686z"/>
		<path fill-rule="evenodd" clip-rule="evenodd" fill="#403C78" d="M-10.5,1702c0-139.333,0-278.667,0-418
			c11.962-10.292,26.214-17.01,39.562-25.105c53.161-32.247,108.349-60.259,167.988-78.687
			c57.491-17.765,116.371-29.015,175.946-36.77c54.841-7.138,109.896-12.814,165.229-11.941
			c44.555,0.704,89.085,3.205,133.555,7.098c126.894,11.108,252.586,31.024,378.415,50.031
			c102.467,15.478,204.92,31.079,307.771,43.847c53.535,6.646,107.188,12.209,160.931,17.038
			c40.777,3.663,81.628,6.181,122.439,9.266c14.581,1.102,29.247,1.61,43.868,2.242c72.256,3.123,144.592,3.195,216.86,1.787
			c45.544-0.888,91.154-1.944,136.674-5.101c19.551-1.355,39.233-1.611,58.856-2.419c130.249-5.363,248.028-43.919,347.709-130.488
			c55.222-47.957,98.47-105.562,134.175-169.056c52.349-93.09,86.402-193.242,114.186-295.837
			c16.561-61.151,29.381-123.187,44.351-184.708c14.998-61.634,35.478-121.534,61.06-179.642
			c36.971-83.978,82.504-162.873,139.886-234.644c12.881-16.109,25.629-32.453,41.036-46.367c2.854-2.578,5.057-6.231,9.504-6.545
			c0,557.333,0,1114.667,0,1672c-5.244,1.682-8.902-1.67-12.711-4.183c-63.564-41.947-130.987-76.78-199.771-109.224
			c-91.821-43.31-186.948-77.937-283.575-108.563c-96.623-30.626-194.725-55.771-293.835-77
			c-96.479-20.665-193.582-37.847-291.318-51.299c-54.418-7.489-108.949-14.103-163.653-19.376
			c-35.441-3.416-70.904-6.648-106.395-9.217c-48.801-3.53-97.711-5.484-146.69-4.42c-17.32,0.377-34.657-0.079-51.983,0.088
			c-44.61,0.43-89.054,3.754-133.488,7.511c-115.037,9.726-228.657,28.685-341.565,52.21
			c-105.726,22.029-210.423,48.316-314.502,77.096c-67.448,18.65-134.778,37.682-200.986,60.455
			c-82.289,28.305-163.104,60.272-241.942,97.174c-70.351,32.929-139.634,67.868-205.753,108.8
			C-2.259,1702.274-5.904,1705.351-10.5,1702z"/>
		<path fill-rule="evenodd" clip-rule="evenodd" fill="#393774" d="M-10.5,1702c2.347,0.008,4.509-0.262,6.623-1.659
			c29.968-19.807,61.839-36.353,92.999-54.118c2.313-1.318,4.747-2.425,7.13-3.617c30.654-15.328,61.053-31.196,92.035-45.832
			c32.132-15.179,64.57-29.716,97.447-43.304c25.782-10.655,51.639-21.111,77.6-31.305c16.996-6.674,34.221-12.788,51.459-18.821
			c26.347-9.222,52.657-18.585,79.231-27.112c38.855-12.469,78.138-23.533,117.398-34.677
			c37.325-10.594,74.759-20.764,112.29-30.571c36.242-9.472,72.521-18.833,108.948-27.558
			c53.759-12.877,107.687-24.991,161.918-35.816c33.734-6.733,67.517-13.253,101.399-19.039
			c23.754-4.057,47.555-8.204,71.583-10.796c17.064-1.84,33.949-5.302,50.982-7.509c14.1-1.828,28.31-2.79,42.454-4.298
			c17.088-1.821,34.149-3.893,51.238-5.704c9.218-0.977,18.576-1.318,27.747-1.699c14.594-0.607,29.139-2.052,43.703-2.83
			c59.907-3.202,119.835-1.6,179.738-1.356c17.75,0.072,35.805,0.18,53.493,3.466c1.295,0.241,2.671,0.25,3.988,0.132
			c15.009-1.341,29.911,1.18,44.703,2.475c19.078,1.669,38.251,2.669,57.313,5.036c9.433,1.172,19.13,1.891,28.655,2.831
			c9.832,0.971,19.802,0.966,29.569,3.133c6.752,1.498,13.821,1.476,20.712,2.185c21.717,2.232,43.27,5.683,64.944,8.031
			c22.364,2.424,44.655,5.435,66.88,8.668c27.455,3.993,54.843,8.611,82.227,13.162c34.583,5.748,69.086,11.863,103.51,18.454
			c34.451,6.595,68.811,13.621,103.044,21.307c37.822,8.491,75.633,17.035,113.126,26.854
			c34.321,8.987,68.547,18.351,102.638,28.227c49.481,14.335,98.281,30.736,146.983,47.431
			c37.698,12.924,74.712,27.673,111.662,42.644c55.57,22.515,109.496,48.445,162.776,75.771
			c36.37,18.654,71.772,39.075,106.191,61.178c7.796,5.007,14.979,11.052,23.661,14.641c0,2,0,4,0,6
			c-18.506-2.372-36.536-7.127-54.729-11.034c-80.387-17.265-159.829-38.471-239.754-57.671
			c-74.165-17.815-148.926-32.463-224.376-43.683c-59.305-8.818-118.8-15.983-178.441-22.071
			c-51.37-5.243-102.797-9.76-154.273-13.81c-70.751-5.566-141.562-10.175-212.406-14.375c-72.531-4.3-145.043-8.902-217.757-7.01
			c-54.312,1.413-108.47,5.021-162.485,11.139c-140.236,15.883-276.563,48.334-409.433,95.639
			c-153.807,54.759-298.529,127.891-435.931,215.79c-160.381,102.6-306.615,222.787-442.426,355.937
			c-44.278,43.41-87.044,88.291-129.932,133.056c-12.216,12.751-24.279,25.691-38.873,35.882
			c-10.963,7.655-22.323,14.558-35.17,18.644c-22.622,7.193-43.419,5.855-60.435-13.015c-0.958-1.063-2.191-1.436-3.578-1.417
			C-10.5,2146-10.5,1924-10.5,1702z"/>
		<path fill-rule="evenodd" clip-rule="evenodd" fill="#4C4583" d="M2989.5,8c-3.814,4.145-7.499,8.419-11.466,12.413
			c-20.634,20.776-38.706,43.72-56.177,67.111c-14.699,19.682-28.772,39.854-41.687,60.766
			c-11.342,18.366-22.524,36.821-32.907,55.786c-11.363,20.755-21.989,41.865-32.219,63.161
			c-13.813,28.754-26.09,58.191-37.181,88.127c-9.703,26.188-18.236,52.761-26.208,79.497c-7.953,26.675-14.055,53.85-20.192,81.005
			c-9.497,42.014-18.809,84.08-29.969,125.694c-6.872,25.628-13.319,51.374-21.689,76.596c-6.675,20.116-11.835,40.761-19.096,60.65
			c-8.879,24.321-17.606,48.712-27.675,72.62c-12.409,29.471-25.724,58.495-40.748,86.676
			c-16.877,31.654-35.127,62.493-56.824,91.236c-15.21,20.149-31.109,39.566-48.123,58.276
			c-28.573,31.425-60.844,58.216-96.031,81.606c-32.786,21.794-67.887,39.099-104.806,52.937
			c-26.2,9.821-53.105,17.108-80.306,22.959c-19.646,4.225-39.592,7.476-59.788,9.204c-19.495,1.669-38.995,2.762-58.48,4.148
			c-15.961,1.135-31.991-0.054-47.741,1.857c-15.975,1.938-32.004,0.045-47.75,1.974c-20.961,2.566-41.908,0.4-62.774,1.82
			c-61.229,4.167-122.511,1.469-183.754,1.459c-22.191-0.003-44.551-0.467-66.72-1.997c-12.271-0.847-24.563-0.651-36.761-1.737
			c-20.812-1.854-41.674-2.648-62.487-4.152c-16.166-1.168-32.404-2.137-48.477-4c-17.742-2.058-35.563-3.402-53.312-5.155
			c-16.118-1.591-32.287-3.29-48.41-4.875c-19.368-1.903-38.772-3.976-58.067-6.994c-12.693-1.986-25.641-2.79-38.412-4.665
			c-18.636-2.735-37.401-4.42-56.002-7.55c-16.618-2.796-33.462-4.22-50.169-6.515c-15.064-2.069-30.08-4.5-45.117-6.766
			c-11.438-1.724-22.876-3.451-34.316-5.156c-19.944-2.975-39.892-5.935-59.838-8.896c-16.02-2.38-32.047-4.705-48.057-7.145
			c-14.707-2.241-29.387-4.662-44.095-6.895c-16.013-2.43-32.048-4.709-48.066-7.1c-15.365-2.294-30.712-4.726-46.088-6.947
			c-12.431-1.796-24.897-3.338-37.34-5.054c-11.462-1.58-22.903-3.319-34.372-4.849c-13.433-1.791-26.885-3.434-40.329-5.133
			c-14.425-1.824-28.84-3.735-43.28-5.42c-7.559-0.881-15.184-1.953-22.7-2.3c-17.235-0.793-34.199-3.888-51.457-4.711
			c-17.821-0.851-35.696-2.36-53.473-3.98c-17.31-1.578-34.679,0.136-51.739-1.971c-16.329-2.017-32.563-1.801-48.785-1.38
			c-16.91,0.438-33.863,1.09-50.733,2.099c-21.436,1.282-42.924,3.303-64.215,6.044c-36.698,4.724-73.374,9.649-109.737,17.014
			c-39.07,7.914-77.684,17.127-115.327,30.237c-36.823,12.825-72.106,28.995-106.179,48.017
			c-24.378,13.609-48.381,27.812-72.281,42.22c-3.083,1.858-6.237,3.923-10.068,4.132c0-20,0-40,0-60
			c3.048-0.45,5.551-2.158,8.208-3.524c122.661-63.047,251.503-108.867,386.093-138.748
			c50.757-11.268,101.975-19.751,153.657-25.133c60.724-6.322,121.603-8.409,182.659-5.407c35.282,1.734,70.522,3.911,105.69,7.09
			c39.133,3.537,78.207,7.705,117.148,13.008c40.901,5.57,81.816,11.055,122.686,16.854c37.572,5.333,75.092,11.035,112.635,16.576
			c38.864,5.736,77.766,11.179,116.81,15.588c108.781,12.284,217.911,16.881,327.293,13.419
			c121.24-3.838,240.915-18.991,357.535-53.816c67.579-20.18,132.308-47.037,192.952-83.36
			c82.585-49.465,150.279-114.076,202.397-195.317c50.568-78.825,97.567-159.735,144.093-240.952
			c45.201-78.903,90.149-157.957,140.026-234.061c38.405-58.6,79.5-115.168,126.805-167.003
			c52.729-57.777,111.583-107.865,181.62-143.779c7.012-3.596,13.725-7.987,21.691-9.434C2989.5,6.667,2989.5,7.333,2989.5,8z"/>
	</g>
</g>
</svg>
